<svg width="32" height="33" viewBox="0 0 32 33" fill="none" xmlns="http://www.w3.org/2000/svg">
<path d="M9.3335 22.0742H22.6668" stroke="white" stroke-width="1.23592" stroke-linecap="round" stroke-linejoin="round"/>
<path fill-rule="evenodd" clip-rule="evenodd" d="M22.6611 19.2346C22.9556 19.2375 23.1967 19.0012 23.1997 18.7066L23.2 18.6738C23.2014 18.532 23.1463 18.3954 23.0468 18.2944C22.9474 18.1933 22.8117 18.136 22.6699 18.1351L22.344 18.1332L21.8589 18.1251L21.5413 18.1133L21.3878 18.1047L21.2351 18.0931L21.0852 18.0781L20.9399 18.0592L20.7974 18.0349L20.6588 18.0052L20.5252 17.9688L20.3945 17.9248L20.2673 17.8715L20.14 17.8068L20.0135 17.7293L19.8849 17.635L19.7519 17.5208L19.6157 17.3847L19.474 17.2226L19.3289 17.0344L19.1798 16.818L19.027 16.574L18.8718 16.3042L18.7136 16.0106L18.5536 15.697L18.392 15.368L18.0641 14.6882L17.897 14.3499L17.7286 14.0225L17.5562 13.7115C17.552 13.704 17.5477 13.6966 17.5432 13.6893L17.3776 13.4219C17.3713 13.4118 17.3647 13.4018 17.3577 13.3921L17.1925 13.1615C17.1815 13.1462 17.1698 13.1314 17.1572 13.1174L16.991 12.9308C16.9731 12.9108 16.9538 12.8921 16.9331 12.8749L16.7682 12.7383C16.7381 12.7133 16.7053 12.6918 16.6705 12.674L16.5033 12.5886C16.456 12.5644 16.4053 12.5474 16.353 12.5383L16.1809 12.508C16.1206 12.4975 16.059 12.4973 15.9988 12.5076L15.8316 12.5362C15.7794 12.5451 15.7288 12.5618 15.6815 12.5856L15.5126 12.6707C15.4768 12.6888 15.4431 12.7108 15.4121 12.7365L15.2427 12.877C15.2218 12.8944 15.2022 12.9133 15.1842 12.9336L15.019 13.1198C15.0069 13.1335 14.9955 13.1477 14.9848 13.1626L14.8196 13.3925C14.8125 13.4024 14.8056 13.4126 14.7992 13.4231L14.634 13.6901C14.6295 13.6974 14.6251 13.7048 14.6209 13.7124L14.4565 14.0088L14.2845 14.3418L14.1158 14.6842L13.7853 15.3679L13.6239 15.6968L13.4638 16.0107L13.3064 16.304L13.1511 16.573L12.9981 16.8174L12.8494 17.0334L12.7034 17.2225L12.563 17.3842L12.4266 17.52L12.2934 17.6344L12.165 17.7287L12.0384 17.8062L11.9112 17.871L11.7839 17.9245L11.6531 17.9686L11.519 18.0053L11.3808 18.0349L11.2384 18.0592L11.0928 18.0781L10.9427 18.0931L10.7905 18.1047L10.6353 18.1134L10.4785 18.12L10.1585 18.1286L9.50554 18.1351C9.3641 18.1366 9.22901 18.1941 9.13 18.2951C9.03098 18.3961 8.97615 18.5323 8.97757 18.6738L8.97789 18.7066C8.98083 19.0003 9.22069 19.2364 9.5144 19.2346L9.84317 19.2327L10.3425 19.2245L10.6827 19.212L10.8576 19.2024L11.0328 19.1893L11.2115 19.1714L11.3909 19.1481C11.3979 19.1472 11.4049 19.1461 11.412 19.1449L11.5775 19.1167C11.5849 19.1154 11.5922 19.114 11.5995 19.1124L11.7651 19.077C11.7747 19.0749 11.7842 19.0726 11.7937 19.07L11.9586 19.025C11.9689 19.0222 11.9791 19.0191 11.9892 19.0156L12.1551 18.9595C12.1668 18.9555 12.1783 18.9512 12.1897 18.9464L12.3555 18.8771C12.3681 18.8719 12.3805 18.8661 12.3926 18.8599L12.5578 18.7755C12.5701 18.7692 12.5821 18.7625 12.5939 18.7553L12.7594 18.6538C12.772 18.6461 12.7842 18.6379 12.7961 18.6291L12.9613 18.5079C12.9724 18.4999 12.9831 18.4914 12.9934 18.4825L13.159 18.3402C13.1689 18.3317 13.1785 18.3228 13.1878 18.3136L13.3533 18.1487C13.3624 18.1396 13.3712 18.1302 13.3797 18.1205L13.5442 17.931C13.551 17.9232 13.5575 17.9152 13.5638 17.9071L13.729 17.6929C13.7348 17.6854 13.7404 17.6777 13.7459 17.6698L13.9104 17.431C13.9148 17.4247 13.919 17.4183 13.9231 17.4118L14.0883 17.1483L14.0984 17.1315L14.2635 16.8459L14.4356 16.5253L14.6053 16.1925L14.7731 15.851L15.1031 15.1682L15.2639 14.8415L15.4225 14.5344L15.5761 14.257L15.7239 14.0179L15.8609 13.8274L15.9779 13.6952L16.064 13.6238L16.0888 13.6112L16.1136 13.6238L16.1984 13.6941L16.3164 13.8266L16.4528 14.0167L16.6008 14.2563L16.7548 14.5341L16.9135 14.8414L17.0748 15.1682L17.4025 15.8476L17.5688 16.1859L17.7367 16.5157L17.907 16.8327L18.0793 17.1318L18.0894 17.1486L18.2543 17.412C18.2585 17.4188 18.2629 17.4255 18.2675 17.4321L18.4323 17.6709C18.4376 17.6785 18.443 17.6859 18.4487 17.6933L18.6139 17.9077C18.6207 17.9165 18.6277 17.9251 18.635 17.9335L18.8006 18.1227C18.8083 18.1314 18.8162 18.14 18.8245 18.1482L18.9893 18.3134C18.9992 18.3233 19.0095 18.3329 19.0201 18.342L19.186 18.4838C19.1961 18.4925 19.2065 18.5007 19.2172 18.5086L19.3824 18.6298C19.3943 18.6385 19.4066 18.6467 19.4191 18.6544L19.5847 18.7559C19.5969 18.7634 19.6095 18.7705 19.6223 18.777L19.7882 18.861C19.7993 18.8667 19.8106 18.8719 19.8222 18.8768L19.9874 18.9464C19.9994 18.9515 20.0117 18.9561 20.0241 18.9603L20.1896 19.0162C20.1999 19.0196 20.2103 19.0228 20.2208 19.0256L20.3861 19.0703C20.3947 19.0727 20.4035 19.0748 20.4123 19.0767L20.5775 19.1125C20.5855 19.1142 20.5935 19.1158 20.6016 19.1171L20.7668 19.1451L20.7872 19.1481L20.952 19.1697L21.1315 19.1881L21.31 19.2017L21.4851 19.2115L21.6574 19.2188L21.9941 19.2279L22.6611 19.2346ZM9.5112 18.7012L9.5112 18.7013L9.83997 18.6993L10.3336 18.6911L10.6628 18.679L10.8275 18.6698L10.992 18.6573L11.157 18.6406L11.3219 18.6192L11.487 18.5911L11.6523 18.5557L11.8174 18.5107L11.983 18.4547L12.1499 18.385L12.3151 18.3006L12.4797 18.1997L12.6449 18.0787L12.8104 17.9365L12.9761 17.7717L13.1409 17.582L13.3063 17.3677L13.4709 17.1289L13.6362 16.8654L13.8009 16.5799L13.9653 16.2736L14.1301 15.9504L14.2943 15.6159L14.6237 14.9345L14.7875 14.6016L14.952 14.2832L15.1155 13.988L15.2793 13.7228L15.4436 13.4941L15.6058 13.3109L15.7691 13.1755L15.9293 13.0938L16.0886 13.0665L16.2482 13.0938L16.2481 13.0937L16.0885 13.0665L15.9292 13.0937L15.7689 13.1755L15.6057 13.3108L15.4434 13.4941L15.2799 13.7217L15.1156 13.9874L14.9521 14.2827L14.7875 14.6013L14.6236 14.9343L14.2942 15.6158L14.13 15.9502L13.9654 16.2731L13.8012 16.5792L13.6363 16.8649L13.4711 17.1283L13.3066 17.3671L13.1414 17.5813L12.9768 17.7708L12.8113 17.9356L12.6457 18.0779L12.4805 18.1991L12.315 18.3005L12.1498 18.385L11.9839 18.4543L11.8181 18.5104L11.6532 18.5554L11.4876 18.5909L11.3221 18.6191L11.1576 18.6405L10.9924 18.6572L10.8278 18.6697L10.6629 18.6789L10.3335 18.6911L9.83984 18.6993L9.5112 18.7012ZM20.6276 18.5776L20.6898 18.5911L20.6902 18.5912L20.6276 18.5776ZM20.7209 18.5964L20.8551 18.6191L20.8555 18.6191L21.0199 18.6405L21.1851 18.6573L21.3501 18.6698L21.5147 18.679L21.6797 18.6859L22.0085 18.6947L22.6664 18.7013L22.6667 18.6685L22.6666 18.6685L22.6663 18.7013L22.0084 18.6947L21.6796 18.6858L21.5147 18.6789L21.3502 18.6697L21.1853 18.6572L21.0204 18.6405L20.8555 18.6191L20.7209 18.5964ZM20.5334 18.5237L20.4085 18.4898L20.5327 18.5236L20.5334 18.5237ZM20.3704 18.4794L20.2222 18.4295L20.3698 18.4792L20.3704 18.4794ZM20.0441 18.3562L19.8806 18.2732L19.716 18.1725L19.554 18.0536L19.3892 17.9124L19.2267 17.7499L19.0625 17.5622L18.8982 17.3492L18.7343 17.1115L18.5701 16.8491L18.406 16.5642L18.2413 16.2585L18.0769 15.9361L17.9126 15.6016L17.5838 14.9201L17.419 14.5865L17.2544 14.2672L17.0901 13.9708L16.9247 13.7036L16.9241 13.7027L16.759 13.4721L16.5928 13.2856L16.4279 13.1489L16.2607 13.0636L16.2607 13.0635L16.4278 13.1489L16.5927 13.2855L16.7589 13.4721L16.9241 13.7027L17.0896 13.97L17.2541 14.2669L17.4187 14.5862L17.5836 14.9199L17.9124 15.6014L18.0766 15.9357L18.2411 16.2583L18.4057 16.5637L18.5696 16.8485L18.7338 17.1109L18.8977 17.3487L19.0616 17.5612L19.2258 17.7491L19.389 17.9123L19.5529 18.0529L19.7158 18.1725L19.8794 18.2726L20.043 18.3557L20.0441 18.3562Z" fill="white"/>
<path d="M27.7613 3.21484V11.8083H26.2812V3.21484H27.7613Z" fill="white"/>
<path d="M31.3338 6.76953V8.2526H22.708V6.76953H31.3338Z" fill="white"/>
<path d="M24.2443 7.51953H5.86312C5.12674 7.51953 4.52979 8.11648 4.52979 8.85286V27.2214C4.52979 27.9578 5.12674 28.5547 5.86312 28.5547H25.6798C26.4162 28.5547 27.0132 27.9578 27.0132 27.2214V10.4452" stroke="white" stroke-width="1.48" stroke-dasharray="2.96 2.96"/>
</svg>
