<svg width="40" height="40" viewBox="0 0 40 40" fill="none" xmlns="http://www.w3.org/2000/svg">
<path d="M9.99902 13C11.3797 13 12.499 11.8807 12.499 10.5C12.499 9.11929 11.3797 8 9.99902 8C8.61831 8 7.49902 9.11929 7.49902 10.5C7.49902 11.8807 8.61831 13 9.99902 13Z" stroke="white" stroke-width="1.38" stroke-linecap="round" stroke-linejoin="round"/>
<path d="M9.99996 24.25V30.5L6.58496 33.915" stroke="white" stroke-width="1.38" stroke-linecap="round" stroke-linejoin="round"/>
<path d="M29.999 24.25V30.5L33.4165 33.9175" stroke="white" stroke-width="1.38" stroke-linecap="round" stroke-linejoin="round"/>
<path d="M4.37402 39.25C6.09991 39.25 7.49902 37.8509 7.49902 36.125C7.49902 34.3991 6.09991 33 4.37402 33C2.64813 33 1.24902 34.3991 1.24902 36.125C1.24902 37.8509 2.64813 39.25 4.37402 39.25Z" stroke="white" stroke-width="1.38" stroke-linecap="round" stroke-linejoin="round"/>
<path d="M35.624 39.25C37.3499 39.25 38.749 37.8509 38.749 36.125C38.749 34.3991 37.3499 33 35.624 33C33.8981 33 32.499 34.3991 32.499 36.125C32.499 37.8509 33.8981 39.25 35.624 39.25Z" stroke="white" stroke-width="1.38" stroke-linecap="round" stroke-linejoin="round"/>
<path d="M19.999 39.25C21.7249 39.25 23.124 37.8509 23.124 36.125C23.124 34.3991 21.7249 33 19.999 33C18.2731 33 16.874 34.3991 16.874 36.125C16.874 37.8509 18.2731 39.25 19.999 39.25Z" stroke="white" stroke-width="1.38" stroke-linecap="round" stroke-linejoin="round"/>
<path d="M19.999 33V20.5" stroke="white" stroke-width="1.38" stroke-linecap="round" stroke-linejoin="round"/>
<path d="M17.8959 6.75001C17.0445 4.95504 15.6076 3.50325 13.8215 2.63337C12.0354 1.7635 10.0064 1.52732 8.0683 1.96369C6.13015 2.40007 4.3982 3.483 3.15725 5.03441C1.9163 6.58582 1.24023 8.51335 1.24023 10.5C1.24023 12.4867 1.9163 14.4142 3.15725 15.9656C4.3982 17.517 6.13015 18.6 8.0683 19.0363C10.0064 19.4727 12.0354 19.2365 13.8215 18.3666C15.6076 17.4968 17.0445 16.045 17.8959 14.25H26.2497L28.7497 16.75L31.2497 14.25H36.2497L37.4997 6.75001H17.8959Z" stroke="white" stroke-width="1.38" stroke-linecap="round" stroke-linejoin="round"/>
</svg>
