<svg width="21" height="16" viewBox="0 0 21 16" fill="none" xmlns="http://www.w3.org/2000/svg">
<path d="M9.39962 12.8125C9.71212 12.8125 9.99337 13.0625 9.99337 13.4063C9.99337 13.7188 9.74337 14 9.39962 14C9.08712 14 8.80587 13.75 8.80587 13.4063C8.80587 13.0625 9.08712 12.8125 9.39962 12.8125ZM18.5871 9.18751C18.2746 9.18751 17.9934 8.93751 17.9934 8.59376C17.9934 8.28126 18.2434 8.00001 18.5871 8.00001C18.8996 8.00001 19.1809 8.25001 19.1809 8.59376C19.1809 8.90626 18.8996 9.18751 18.5871 9.18751ZM18.5871 6.78126C17.5871 6.78126 16.7746 7.59376 16.7746 8.59376C16.7746 8.78126 16.8059 8.96876 16.8684 9.15626L10.8996 12.3438C10.5559 11.8438 9.99337 11.5625 9.39962 11.5625C8.71212 11.5625 8.08712 11.9688 7.77462 12.5625L2.39962 9.75001C1.83712 9.43751 1.39962 8.53126 1.46212 7.65626C1.49337 7.21876 1.64962 6.87501 1.86837 6.75001C2.02462 6.65626 2.18087 6.68751 2.39962 6.78126L2.43087 6.81251C3.86837 7.56251 8.52462 10 8.71212 10.0938C9.02462 10.2188 9.18087 10.2813 9.71212 10.0313L19.3371 5.03126C19.4934 4.96876 19.6496 4.84376 19.6496 4.62501C19.6496 4.34376 19.3684 4.21876 19.3684 4.21876C18.8059 3.96876 17.9621 3.56251 17.1496 3.18751C15.3996 2.37501 13.3996 1.43751 12.5246 0.968763C11.7746 0.562513 11.1496 0.906263 11.0559 0.968763L10.8371 1.06251C6.86837 3.06251 1.61837 5.65626 1.30587 5.84376C0.774621 6.15626 0.430871 6.81251 0.399621 7.62501C0.337121 8.90626 0.993371 10.25 1.93087 10.7188L7.61837 13.6563C7.74337 14.5313 8.52462 15.2188 9.39962 15.2188C10.3996 15.2188 11.1809 14.4375 11.2121 13.4375L17.4621 10.0625C17.7746 10.3125 18.1809 10.4375 18.5871 10.4375C19.5871 10.4375 20.3996 9.62501 20.3996 8.62501C20.3996 7.59376 19.5871 6.78126 18.5871 6.78126Z" fill="black"/>
</svg>
