<svg width="28" height="27" viewBox="0 0 28 27" fill="none" xmlns="http://www.w3.org/2000/svg">
<g clip-path="url(#clip0_7584_1974)">
<path d="M14 21.5785L0.666626 10.7216L14 0.166016V21.5785Z" fill="#4285F4"/>
<path d="M13.9999 21.5785L27.3333 10.7216L13.9999 0.166016V21.5785Z" fill="#356AC3"/>
<path d="M13.9999 26.8348C18.2955 26.8348 21.7777 23.3526 21.7777 19.0571C21.7777 14.7615 18.2955 11.2793 13.9999 11.2793C9.70439 11.2793 6.22217 14.7615 6.22217 19.0571C6.22217 23.3526 9.70439 26.8348 13.9999 26.8348Z" fill="#A0C3FF"/>
<path d="M6.97064 15.7238C8.21898 13.096 10.8973 11.2793 14 11.2793C17.1026 11.2793 19.781 13.096 21.0293 15.7238H6.97064Z" fill="#76A7FA"/>
</g>
<defs>
<clipPath id="clip0_7584_1974">
<rect width="26.6667" height="26.6667" fill="white" transform="translate(0.666626 0.166016)"/>
</clipPath>
</defs>
</svg>
