<svg width="40" height="41" viewBox="0 0 40 41" fill="none" xmlns="http://www.w3.org/2000/svg">
<g clip-path="url(#clip0_1_2015)">
<path d="M18.333 37.6667C26.6173 37.6667 33.333 30.951 33.333 22.6667C33.333 14.3824 26.6173 7.66669 18.333 7.66669C10.0487 7.66669 3.33301 14.3824 3.33301 22.6667C3.33301 30.951 10.0487 37.6667 18.333 37.6667Z" stroke="white" stroke-width="1.38" stroke-miterlimit="10" stroke-linecap="square"/>
<path d="M36.6662 31C38.4846 34.5783 38.8879 37.3642 37.6262 38.6267C33.6071 42.6458 19.3821 30.4 14.9987 25.9992C5.27122 16.3108 -0.406278 6.14917 2.37122 3.37167C3.63289 2.11 6.42122 2.515 9.99956 4.33334" stroke="white" stroke-width="1.38" stroke-miterlimit="10" stroke-linecap="square"/>
<path d="M10.4419 29.3333C11.118 29.3333 11.6661 28.7853 11.6661 28.1092C11.6661 27.4331 11.118 26.885 10.4419 26.885C9.76585 26.885 9.21777 27.4331 9.21777 28.1092C9.21777 28.7853 9.76585 29.3333 10.4419 29.3333Z" fill="white"/>
<path d="M25.416 26.8334C26.1064 26.8334 26.666 26.2737 26.666 25.5834C26.666 24.893 26.1064 24.3334 25.416 24.3334C24.7257 24.3334 24.166 24.893 24.166 25.5834C24.166 26.2737 24.7257 26.8334 25.416 26.8334Z" fill="white"/>
<path d="M19.999 20.1667C21.3797 20.1667 22.499 19.0474 22.499 17.6667C22.499 16.286 21.3797 15.1667 19.999 15.1667C18.6183 15.1667 17.499 16.286 17.499 17.6667C17.499 19.0474 18.6183 20.1667 19.999 20.1667Z" stroke="white" stroke-width="1.38" stroke-miterlimit="10" stroke-linecap="square"/>
</g>
<defs>
<clipPath id="clip0_1_2015">
<rect width="40" height="40" fill="white" transform="translate(0 0.5)"/>
</clipPath>
</defs>
</svg>
