<svg width="40" height="40" viewBox="0 0 40 40" fill="none" xmlns="http://www.w3.org/2000/svg">
<path d="M6.66 12.8431C3.17 14.6594 1 17.1938 1 20C1 25.5231 9.39437 30 19.75 30C30.1056 30 38.5 25.5231 38.5 20C38.5 14.4769 30.1056 10 19.75 10C18.2242 9.99918 16.7 10.0994 15.1875 10.3" stroke="white" stroke-width="1.38" stroke-linecap="round" stroke-linejoin="round"/>
<path d="M26.9069 33.09C25.0906 36.58 22.5562 38.75 19.75 38.75C14.2269 38.75 9.75 30.3556 9.75 20C9.75 9.64437 14.2269 1.25 19.75 1.25C25.2731 1.25 29.75 9.64437 29.75 20C29.7508 21.5258 29.6506 23.05 29.45 24.5625" stroke="white" stroke-width="1.38" stroke-linecap="round" stroke-linejoin="round"/>
<path d="M19.75 25C22.5114 25 24.75 22.7614 24.75 20C24.75 17.2386 22.5114 15 19.75 15C16.9886 15 14.75 17.2386 14.75 20C14.75 22.7614 16.9886 25 19.75 25Z" stroke="white" stroke-width="1.38" stroke-linecap="round" stroke-linejoin="round"/>
</svg>
