<svg width="25" height="25" viewBox="0 0 25 25" fill="none" xmlns="http://www.w3.org/2000/svg">
<path d="M14.374 21.0555L16.2399 18.1982L18.1043 21.0555H14.374Z" fill="#53BAA1"/>
<path d="M6.57227 21.0555L8.43816 18.1982L10.3025 21.0555H6.57227Z" fill="#53BAA1"/>
<path d="M22.1192 13.1096C22.7801 12.9867 23.2827 12.6931 23.6255 12.2305C23.9697 11.7678 24.1403 11.2053 24.1403 10.5459C24.1403 9.99877 24.0451 9.54382 23.856 9.17802C23.667 8.81222 23.4103 8.52173 23.089 8.30501C22.7678 8.08984 22.3928 7.9346 21.9655 7.84238C21.5382 7.75016 21.0864 7.70405 20.6114 7.70405H16.9903V10.5982C16.9611 10.5137 16.9304 10.4307 16.8965 10.3477C16.646 9.74056 16.2956 9.22259 15.8452 8.79531C15.3949 8.36803 14.8631 8.03912 14.2452 7.8101C13.6289 7.58109 12.9542 7.46582 12.2226 7.46582C11.491 7.46582 10.8178 7.58109 10.1999 7.8101C9.58357 8.03912 9.05024 8.36803 8.5999 8.79531C8.19721 9.17802 7.87445 9.6345 7.6316 10.1632C7.59625 9.78359 7.50711 9.45468 7.36417 9.17802C7.17512 8.81222 6.91844 8.52173 6.59721 8.30501C6.27598 8.08984 5.90096 7.9346 5.47368 7.84238C5.0464 7.75016 4.59452 7.70405 4.1196 7.70405H0.5V17.0612H2.56109V13.3202H3.57858L5.53516 17.0612H8.00663L5.62891 13.1096C6.28982 12.9867 6.79241 12.6931 7.13516 12.2305C7.15053 12.209 7.16436 12.1859 7.17973 12.1644C7.17666 12.2366 7.17512 12.3089 7.17512 12.3826C7.17512 13.1311 7.30115 13.8105 7.55168 14.4176C7.80221 15.0247 8.15264 15.5427 8.60298 15.97C9.05178 16.3972 9.58511 16.7261 10.203 16.9552C10.8193 17.1842 11.494 17.2994 12.2256 17.2994C12.9573 17.2994 13.6305 17.1842 14.2483 16.9552C14.8646 16.7261 15.398 16.3972 15.8483 15.97C16.2971 15.5427 16.6475 15.0247 16.8996 14.4176C16.9334 14.3361 16.9642 14.2516 16.9934 14.1671V17.0612H19.0545V13.3202H20.0719L22.0285 17.0612H24.5L22.1192 13.1096ZM5.34457 11.1269C5.23391 11.2683 5.09558 11.3713 4.92805 11.4374C4.76052 11.5035 4.57301 11.5434 4.36705 11.5557C4.15956 11.5696 3.96436 11.5757 3.77839 11.5757H2.56263V9.44853H3.91057C4.095 9.44853 4.28559 9.46236 4.47925 9.48849C4.67291 9.51462 4.84505 9.56534 4.99414 9.64065C5.14323 9.71596 5.26772 9.82355 5.36455 9.96496C5.46138 10.1064 5.51057 10.2954 5.51057 10.5336C5.51057 10.7872 5.45524 10.9855 5.34457 11.1269ZM14.9277 13.5922C14.7909 13.958 14.5957 14.2747 14.339 14.5436C14.0839 14.8126 13.778 15.0216 13.4199 15.1723C13.0633 15.3229 12.6637 15.3967 12.2241 15.3967C11.783 15.3967 11.3849 15.3213 11.0283 15.1723C10.6718 15.0232 10.3659 14.8126 10.1092 14.5436C9.85408 14.2747 9.65735 13.958 9.52056 13.5922C9.38377 13.2264 9.31614 12.8237 9.31614 12.3826C9.31614 11.9507 9.38377 11.5496 9.52056 11.1792C9.65735 10.8088 9.85254 10.4906 10.1092 10.2216C10.3644 9.95266 10.6702 9.74363 11.0283 9.59301C11.3849 9.44392 11.783 9.36861 12.2241 9.36861C12.6652 9.36861 13.0633 9.44392 13.4199 9.59301C13.7765 9.74209 14.0823 9.95266 14.339 10.2216C14.5941 10.4906 14.7909 10.8103 14.9277 11.1792C15.0645 11.5496 15.1321 11.9507 15.1321 12.3826C15.1321 12.8237 15.0645 13.2264 14.9277 13.5922ZM21.8349 11.1269C21.7242 11.2683 21.5859 11.3713 21.4183 11.4374C21.2508 11.5035 21.0633 11.5434 20.8573 11.5557C20.6499 11.5696 20.4547 11.5757 20.2687 11.5757H19.0529V9.44853H20.4009C20.5853 9.44853 20.7759 9.46236 20.9695 9.48849C21.1632 9.51462 21.3353 9.56534 21.4844 9.64065C21.6335 9.71596 21.758 9.82355 21.8548 9.96496C21.9517 10.1064 22.0009 10.2954 22.0009 10.5336C22.0009 10.7872 21.9455 10.9855 21.8349 11.1269Z" fill="white"/>
<path d="M18.1043 3.94531L16.2399 6.80103L14.374 3.94531H18.1043Z" fill="#53BAA1"/>
<path d="M10.3026 3.94531L8.43829 6.80103L6.57239 3.94531H10.3026Z" fill="#53BAA1"/>
</svg>
