<?xml version="1.0" encoding="utf-8"?>
<!-- Generator: Adobe Illustrator 26.1.0, SVG Export Plug-In . SVG Version: 6.00 Build 0)  -->
<svg version="1.1" id="Layer_1"
	xmlns="http://www.w3.org/2000/svg"
	xmlns:xlink="http://www.w3.org/1999/xlink" x="0px" y="0px" viewBox="0 0 215 69" style="enable-background:new 0 0 215 69;" xml:space="preserve">
	<style type="text/css">
	.torus0{fill-rule:evenodd;clip-rule:evenodd;fill:#0364FF;}
	.torus1{fill:#0364FF;}
	.torus2{fill:#0016DE;}
	</style>
	<path class="torus0" d="M96,47.4c1.2-3.3,1.8-6.9,1.7-10.4c0-3.5-0.5-7-1.7-10.4c-1-3-2.7-5.7-4.8-8c-2.1-2.2-4.6-4-7.4-5.1
	c-3-1.2-6.3-1.8-9.6-1.8c-3.3,0-6.5,0.6-9.5,1.8c-2.8,1.2-5.3,2.9-7.4,5.1c-2.1,2.3-3.8,5-4.8,8c-1.2,3.3-1.8,6.8-1.7,10.4
	c0,3.5,0.5,7.1,1.7,10.4c1,3,2.7,5.7,4.8,8c2.1,2.2,4.6,4,7.4,5.1c6.1,2.4,13,2.4,19.1,0c2.8-1.2,5.3-2.9,7.4-5.1
	C93.3,53.1,94.9,50.4,96,47.4z M92.6,27.7c1,3,1.5,6.1,1.4,9.3c0.1,3.2-0.4,6.3-1.4,9.3c-0.9,2.6-2.2,5-4.1,7
	c-1.7,1.9-3.9,3.4-6.3,4.4c-5.2,2-10.9,2-16.1,0c-2.4-1-4.5-2.5-6.3-4.4c-1.8-2-3.2-4.4-4.1-7c-1-3-1.5-6.2-1.4-9.3
	c0-3.1,0.5-6.3,1.4-9.3c0.9-2.6,2.3-5,4.1-7c1.8-1.9,3.9-3.4,6.3-4.4c5.2-2,10.9-2,16.1,0c2.4,1,4.5,2.5,6.3,4.4
	C90.3,22.8,91.7,25.2,92.6,27.7z"/>
	<path class="torus0" d="M136.1,62.6c0.4,0,0.6-0.4,0.4-0.7l-16.3-21.1c-0.4-0.6-0.9-1-1.5-1.4c2-0.2,4-0.7,5.8-1.5
	c1.6-0.7,3.1-1.7,4.4-2.9c1.2-1.2,2.1-2.6,2.8-4.2c0.7-1.7,1-3.5,1-5.3c0-4.4-1.4-7.7-4.2-9.9c-2.8-2.3-7-3.4-12.7-3.4h-12.1
	c-0.3,0-0.5,0.2-0.5,0.5v49.6c0,0.3,0.2,0.5,0.5,0.5h2.6c0.3,0,0.5-0.2,0.5-0.5V40.2c0-0.3,0.2-0.5,0.5-0.5h6c0.4,0,0.8,0,1.2,0.1
	c0.3,0,0.6,0.1,0.9,0.2c0.3,0.1,0.5,0.3,0.7,0.4c0.2,0.2,0.4,0.5,0.6,0.7l15.7,20.5c0.2,0.3,0.4,0.5,0.7,0.7c0.3,0.1,0.6,0.2,1,0.2
	H136.1z M121.1,36.2c-1.9,0.6-3.9,0.8-5.8,0.8h-8c-0.3,0-0.5-0.2-0.5-0.5V15.4c0-0.3,0.2-0.5,0.5-0.5h8.5c4.4,0,7.7,0.9,9.9,2.6
	c2.3,1.7,3.4,4.4,3.4,8c0,1.6-0.3,3.3-0.9,4.8c-0.6,1.4-1.6,2.6-2.7,3.6C124.2,34.9,122.7,35.7,121.1,36.2z"/>
	<path class="torus1" d="M160.9,59.3c2.2,0,4.4-0.4,6.4-1.2c1.8-0.8,3.4-2,4.8-3.5c1.3-1.5,2.4-3.3,3-5.2c0.7-2.1,1-4.3,1-6.5V12.7
	c0-0.4,0.3-0.7,0.7-0.7h2.2c0.4,0,0.7,0.3,0.7,0.7v30.2c0,2.6-0.4,5.2-1.3,7.7c-0.8,2.3-2.1,4.4-3.7,6.2c-1.7,1.8-3.7,3.2-5.9,4.2
	c-5,2-10.6,2-15.6,0c-2.2-1-4.3-2.4-5.9-4.2c-1.6-1.8-2.9-3.9-3.7-6.2c-0.9-2.5-1.3-5.1-1.3-7.7V12.7c0-0.4,0.3-0.7,0.7-0.7h2.2
	c0.4,0,0.7,0.3,0.7,0.7v30.1c0,2.2,0.3,4.4,1,6.5c0.6,1.9,1.7,3.7,3,5.2c1.3,1.5,2.9,2.7,4.8,3.5C156.5,59,158.7,59.4,160.9,59.3z" />
	<path class="torus1" d="M212.8,18.6c-0.2,0.4-0.5,0.6-0.9,0.6c-0.4-0.1-0.9-0.3-1.2-0.6c-0.6-0.5-1.2-1-1.9-1.4c-0.9-0.6-2-1.1-3-1.4
	c-3-0.9-6.2-0.9-9.2,0.1c-1.3,0.5-2.4,1.2-3.4,2.1c-0.9,0.9-1.6,1.9-2.1,3.1c-0.5,1.2-0.7,2.4-0.7,3.7c-0.1,1.5,0.3,2.9,1,4.2
	c0.7,1.1,1.7,2.1,2.8,2.8c1.2,0.8,2.5,1.5,3.9,1.9c1.5,0.5,3,1,4.5,1.6c1.5,0.5,3,1.1,4.5,1.7c1.4,0.6,2.7,1.4,3.9,2.3
	c1.2,0.9,2.1,2.1,2.8,3.4c0.7,1.6,1.1,3.3,1,5.1c0,2-0.3,4-1,5.8c-0.7,1.8-1.7,3.4-3.1,4.8c-1.4,1.4-3.1,2.5-4.9,3.2
	c-2.1,0.8-4.4,1.2-6.6,1.2c-2.9,0.1-5.7-0.5-8.3-1.7c-2.1-1.1-4-2.5-5.7-4.2c-0.3-0.3-0.3-0.7-0.1-1.1l0.6-1c0.2-0.3,0.6-0.5,1-0.5
	c0.3,0,0.6,0.2,0.8,0.4l1.2,1c0.5,0.4,1,0.9,1.7,1.3c0.7,0.5,1.5,1,2.2,1.3c2.1,1,4.4,1.5,6.7,1.4c1.8,0,3.5-0.3,5.2-0.9
	c1.4-0.5,2.7-1.4,3.8-2.5c1-1,1.9-2.3,2.4-3.7c0.6-1.4,0.8-3,0.8-4.5c0.1-1.5-0.3-3-1.1-4.3c-0.7-1.1-1.7-2.1-2.8-2.8
	c-1.2-0.8-2.5-1.4-3.9-1.9c-1.5-0.5-3-1-4.5-1.5c-1.5-0.5-3-1-4.5-1.6c-1.4-0.6-2.7-1.4-3.9-2.3c-1.2-1-2.1-2.2-2.8-3.5
	c-0.8-1.7-1.1-3.5-1.1-5.3c0-1.6,0.3-3.3,0.9-4.8c0.6-1.5,1.6-2.9,2.7-4.1c1.3-1.2,2.8-2.2,4.4-2.8c1.9-0.8,4-1.1,6-1.1
	c2.3,0,4.6,0.4,6.8,1.2c1.9,0.8,3.6,1.9,5,3.3c0.3,0.3,0.3,0.7,0.2,1.1L212.8,18.6z"/>
	<path class="torus0" d="M4.8,12C2.1,12,0,14.1,0,16.7v5.5C0,24.9,2.1,27,4.8,27h8.4v30.8c0,2.6,2.1,4.7,4.8,4.7h5.5
	c2.6,0,4.8-2.1,4.8-4.7V22.3c0,0,0,0,0,0v-5.5c0-2.6-2.1-4.7-4.8-4.7h-5.5H4.8z"/>
	<path class="torus2" d="M39.5,27c4.2,0,7.5-3.4,7.5-7.5S43.6,12,39.5,12S32,15.4,32,19.5S35.3,27,39.5,27z"/>
</svg>
