<svg width="4" height="20" viewBox="0 0 4 20" fill="none"
    xmlns="http://www.w3.org/2000/svg">
    <path fill-rule="evenodd" clip-rule="evenodd" d="M0.122559 2.32611C0.122559 3.26777 0.885922 4.03113 1.82758 4.03113C2.76923 4.03113 3.5326 3.26777 3.5326 2.32611C3.5326 1.38446 2.76923 0.621094 1.82758 0.621094C0.885922 0.621094 0.122559 1.38446 0.122559 2.32611ZM0.122559 9.99876C0.122559 10.9404 0.885922 11.7038 1.82758 11.7038C2.76923 11.7038 3.5326 10.9404 3.5326 9.99876C3.5326 9.05711 2.76923 8.29374 1.82758 8.29374C0.885922 8.29374 0.122559 9.05711 0.122559 9.99876ZM1.82758 19.3764C0.885922 19.3764 0.122559 18.6131 0.122559 17.6714C0.122559 16.7298 0.885922 15.9664 1.82758 15.9664C2.76923 15.9664 3.5326 16.7298 3.5326 17.6714C3.5326 18.6131 2.76923 19.3764 1.82758 19.3764Z" />
</svg>
