<svg width="41" height="40" viewBox="0 0 41 40" xmlns="http://www.w3.org/2000/svg">
    <g fill="none" fill-rule="evenodd">
        <path fill="#000" d="m20.5 1.25 16.238 9.375v18.75L20.5 38.75 4.262 29.375v-18.75z"/>
        <path fill="#FF722B" d="M20.5 3.174 5.928 11.586v16.827L20.5 36.825l14.571-8.413V11.587z"/>
        <path d="m17.366 27.349-5.468-5.586a.524.524 0 0 1 0-.729l1.428-1.459a.497.497 0 0 1 .714 0l3.683 3.762 9.237-9.436a.497.497 0 0 1 .714 0l1.428 1.459a.524.524 0 0 1 0 .73L18.08 27.348a.497.497 0 0 1-.714 0zM30.134 24.844h-1.612a.366.366 0 0 1-.366-.366v-1.612a.366.366 0 0 0-.366-.366h-.83a.366.366 0 0 0-.366.366v1.612a.366.366 0 0 1-.366.366h-1.612a.366.366 0 0 0-.366.366v.83c0 .202.164.366.366.366h1.612c.202 0 .366.164.366.366v1.612c0 .202.164.366.366.366h.83a.366.366 0 0 0 .366-.366v-1.612c0-.202.164-.366.366-.366h1.612a.366.366 0 0 0 .366-.366v-.83a.366.366 0 0 0-.366-.366z" fill="#000"/>
    </g>
</svg>
