<svg width="41" height="40" viewBox="0 0 41 40" xmlns="http://www.w3.org/2000/svg">
    <g fill-rule="evenodd">
        <path fill="#000" d="m20.5 1.25 16.238 9.375v18.75L20.5 38.75 4.262 29.375v-18.75z"/>
        <path d="M20.5 3.174 5.928 11.586v16.827L20.5 36.825l14.571-8.413V11.587z"/>
        <path d="M19.433 11.25h2.134c.377 0 .683.306.683.683v16.134a.683.683 0 0 1-.683.683h-2.134a.683.683 0 0 1-.683-.683V11.933c0-.377.306-.683.683-.683zm-7 10.5h2.134c.377 0 .683.306.683.683v5.634a.683.683 0 0 1-.683.683h-2.134a.683.683 0 0 1-.683-.683v-5.634c0-.377.306-.683.683-.683zm14-5.25h2.134c.377 0 .683.306.683.683v10.884a.683.683 0 0 1-.683.683h-2.134a.683.683 0 0 1-.683-.683V17.183c0-.377.306-.683.683-.683z" fill="#000"/>
    </g>
</svg>
