<?xml version="1.0" encoding="utf-8"?>
<!-- Generator: Adobe Illustrator 25.4.1, SVG Export Plug-In . SVG Version: 6.00 Build 0)  -->
<svg version="1.0" id="Layer_1" xmlns="http://www.w3.org/2000/svg" xmlns:xlink="http://www.w3.org/1999/xlink" x="0px" y="0px"
	 width="24px" height="25px" viewBox="0 0 24 25" style="enable-background:new 0 0 24 25;" xml:space="preserve">
<style type="text/css">
	.st0000{fill:none;stroke:#28AAC4;stroke-width:1.7;stroke-linecap:round;stroke-linejoin:round;}
</style>
<path class="st0000" d="M12,11.2v5.9"/>
<path class="st0000" d="M12,21.5c1.3,0,2.3-1,2.3-2.2c0-1.2-1-2.2-2.3-2.2s-2.3,1-2.3,2.2C9.7,20.6,10.7,21.5,12,21.5z"/>
<path class="st0000" d="M20.3,14.9v-3l-4.9-2.4"/>
<path class="st0000" d="M20.3,19.3c1.3,0,2.3-1,2.3-2.2s-1-2.2-2.3-2.2c-1.3,0-2.3,1-2.3,2.2S19.1,19.3,20.3,19.3z"/>
<path class="st0000" d="M3.7,14.9v-3l4.9-2.4"/>
<path class="st0000" d="M3.7,19.3c1.3,0,2.3-1,2.3-2.2s-1-2.2-2.3-2.2s-2.3,1-2.3,2.2S2.4,19.3,3.7,19.3z"/>
<path class="st0000" d="M12,11.2c2.2,0,4-1.7,4-3.9c0-2.1-1.8-3.9-4-3.9S8,5.2,8,7.3C8,9.5,9.8,11.2,12,11.2z"/>
</svg>
