<svg width="20" height="20" viewBox="0 0 20 20" fill="none" xmlns="http://www.w3.org/2000/svg">
<path d="M10 7.80322V12.6519"  stroke-width="1.14286" stroke-linecap="round" stroke-linejoin="round"/>
<path d="M3.45312 10.8338V8.40946L8.21503 5.98511"  stroke-width="1.14286" stroke-linecap="round" stroke-linejoin="round"/>
<path d="M16.548 10.8338V8.40946L11.7861 5.98511"  stroke-width="1.14286" stroke-linecap="round" stroke-linejoin="round"/>
<path d="M10.0006 7.80328C10.9868 7.80328 11.7863 6.98921 11.7863 5.98501C11.7863 4.98081 10.9868 4.16675 10.0006 4.16675C9.01433 4.16675 8.21484 4.98081 8.21484 5.98501C8.21484 6.98921 9.01433 7.80328 10.0006 7.80328Z"  stroke-width="1.14286" stroke-linecap="round" stroke-linejoin="round"/>
<path d="M10.0006 16.2884C10.9868 16.2884 11.7863 15.4743 11.7863 14.4701C11.7863 13.4659 10.9868 12.6519 10.0006 12.6519C9.01433 12.6519 8.21484 13.4659 8.21484 14.4701C8.21484 15.4743 9.01433 16.2884 10.0006 16.2884Z"  stroke-width="1.14286" stroke-linecap="round" stroke-linejoin="round"/>
<path d="M3.45271 14.4703C4.43893 14.4703 5.23842 13.6562 5.23842 12.652C5.23842 11.6478 4.43893 10.8337 3.45271 10.8337C2.46648 10.8337 1.66699 11.6478 1.66699 12.652C1.66699 13.6562 2.46648 14.4703 3.45271 14.4703Z"  stroke-width="1.14286" stroke-linecap="round" stroke-linejoin="round"/>
<path d="M16.5484 14.4703C17.5346 14.4703 18.3341 13.6562 18.3341 12.652C18.3341 11.6478 17.5346 10.8337 16.5484 10.8337C15.5622 10.8337 14.7627 11.6478 14.7627 12.652C14.7627 13.6562 15.5622 14.4703 16.5484 14.4703Z"  stroke-width="1.14286" stroke-linecap="round" stroke-linejoin="round"/>
</svg>
