<svg width="22" height="22" viewBox="0 0 22 22" fill="none" xmlns="http://www.w3.org/2000/svg">
<path d="M11 16.9531L11 21.4219" stroke="#28AAC4" stroke-width="1.3" stroke-miterlimit="10"/>
<path d="M2.0625 5.67188L6.53125 8.09445" stroke="#28AAC4" stroke-width="1.3" stroke-miterlimit="10"/>
<path d="M19.9375 5.67188L15.4688 8.09445" stroke="#28AAC4" stroke-width="1.3" stroke-miterlimit="10"/>
<path d="M19.9375 16.3281V5.67188L11 0.859375L2.0625 5.67188V16.3281L11 21.1406L19.9375 16.3281Z" stroke="#28AAC4" stroke-width="1.3" stroke-miterlimit="10"/>
<path d="M11.001 7.92188C11.7604 7.92188 12.376 7.30627 12.376 6.54688C12.376 5.78748 11.7604 5.17188 11.001 5.17188C10.2416 5.17188 9.62598 5.78748 9.62598 6.54688C9.62598 7.30627 10.2416 7.92188 11.001 7.92188Z" stroke="#28AAC4" stroke-width="1.14286" stroke-linecap="round" stroke-linejoin="round"/>
<path d="M6.875 15.2773C7.63439 15.2773 8.25 14.6617 8.25 13.9023C8.25 13.143 7.63439 12.5273 6.875 12.5273C6.11561 12.5273 5.5 13.143 5.5 13.9023C5.5 14.6617 6.11561 15.2773 6.875 15.2773Z" stroke="#28AAC4" stroke-width="1.14286" stroke-linecap="round" stroke-linejoin="round"/>
<path d="M15.1255 15.2773C15.8852 15.2773 16.5011 14.6617 16.5011 13.9023C16.5011 13.143 15.8852 12.5273 15.1255 12.5273C14.3659 12.5273 13.75 13.143 13.75 13.9023C13.75 14.6617 14.3659 15.2773 15.1255 15.2773Z" stroke="#28AAC4" stroke-width="1.14286" stroke-linecap="round" stroke-linejoin="round"/>
<path d="M8.55371 14.0195H13.4934" stroke="#28AAC4"/>
<path d="M10.2149 8.19141L7.45898 12.9049" stroke="#28AAC4"/>
<path d="M11.7627 8.19141C12.8697 10.1102 13.4903 11.186 14.5973 13.1049" stroke="#28AAC4"/>
</svg>
