<svg width="12" height="12" viewBox="0 0 12 12" xmlns="http://www.w3.org/2000/svg">
<path fill-rule="evenodd" clip-rule="evenodd" d="M2.26168 1H9.73832C10.4351 1 11 1.56487 11 2.26168V9.73832C11 10.4351 10.4351 11 9.73832 11H2.26168C1.56487 11 1 10.4351 1 9.73832V2.26168C1 1.56487 1.56487 1 2.26168 1ZM9.73832 1.65424H2.26168C1.92618 1.65424 1.65421 1.92621 1.65421 2.26171V9.73835C1.65421 10.0738 1.92618 10.3458 2.26168 10.3458H9.73832C10.0738 10.3458 10.3458 10.0738 10.3458 9.73835V2.26171C10.3458 1.92621 10.0738 1.65424 9.73832 1.65424ZM9.29983 8.03112L7.63733 4.70612C7.60067 4.63288 7.52887 4.58369 7.44733 4.57597C7.36539 4.57014 7.28599 4.60582 7.23595 4.67097L5.27848 7.28062L4.2824 6.08552C4.23365 6.02703 4.15981 5.99546 4.08384 6.00063C4.00787 6.0058 3.93898 6.04709 3.8986 6.11165L2.7111 8.01165C2.66534 8.08486 2.66292 8.17714 2.70478 8.25266C2.74663 8.32817 2.82617 8.37502 2.9125 8.37502H9.0875C9.16985 8.37502 9.24632 8.33236 9.28958 8.26229C9.33284 8.19222 9.33672 8.10475 9.29983 8.03112ZM4.8125 4.57506C5.20601 4.57506 5.525 4.25606 5.525 3.86256C5.525 3.46906 5.20601 3.15006 4.8125 3.15006C4.419 3.15006 4.1 3.46906 4.1 3.86256C4.1 4.25606 4.419 4.57506 4.8125 4.57506Z" />
</svg>
