<svg width="32" height="32" viewBox="0 0 32 32" fill="none" xmlns="http://www.w3.org/2000/svg">
<path fill-rule="evenodd" clip-rule="evenodd" d="M14.9932 23.9918L15.0312 15.9208C12.0832 15.5463 9.8101 13.0135 9.82449 9.95597C9.84004 6.65099 12.5224 3.98443 15.8156 4.00004C19.1089 4.01565 21.766 6.70751 21.7505 10.0125C21.7366 12.9737 19.5817 15.4225 16.7647 15.8885L16.7265 24L14.9932 23.9918ZM11.5586 9.96425C11.5476 12.3081 13.432 14.2172 15.7676 14.2283C18.1031 14.2393 20.0054 12.3482 20.0165 10.0043C20.0275 7.66046 18.1431 5.7514 15.8075 5.74033C13.4719 5.72926 11.5696 7.62038 11.5586 9.96425ZM22.6673 26.6616H9.33398V27.9997H22.6673V26.6616Z" />
</svg>
