<svg width="24" height="24" viewBox="0 0 24 24" fill="none" xmlns="http://www.w3.org/2000/svg">
<path fill-rule="evenodd" clip-rule="evenodd" d="M13.41 4.32735C13.41 3.7294 12.9253 3.24466 12.3274 3.24466C11.7294 3.24466 11.2447 3.7294 11.2447 4.32735C11.2447 4.9253 11.7294 5.41004 12.3274 5.41004C12.9253 5.41004 13.41 4.9253 13.41 4.32735ZM12.3274 2C13.6127 2 14.6547 3.04199 14.6547 4.32735C14.6547 5.61271 13.6127 6.6547 12.3274 6.6547C11.042 6.6547 10 5.61271 10 4.32735C10 3.04199 11.042 2 12.3274 2ZM13.41 12C13.41 11.402 12.9253 10.9173 12.3274 10.9173C11.7294 10.9173 11.2447 11.402 11.2447 12C11.2447 12.598 11.7294 13.0827 12.3274 13.0827C12.9253 13.0827 13.41 12.598 13.41 12ZM12.3274 9.67265C13.6127 9.67265 14.6547 10.7146 14.6547 12C14.6547 13.2854 13.6127 14.3274 12.3274 14.3274C11.042 14.3274 10 13.2854 10 12C10 10.7146 11.042 9.67265 12.3274 9.67265ZM12.3274 18.59C12.9253 18.59 13.41 19.0747 13.41 19.6726C13.41 20.2706 12.9253 20.7553 12.3274 20.7553C11.7294 20.7553 11.2447 20.2706 11.2447 19.6726C11.2447 19.0747 11.7294 18.59 12.3274 18.59ZM14.6547 19.6726C14.6547 18.3873 13.6127 17.3453 12.3274 17.3453C11.042 17.3453 10 18.3873 10 19.6726C10 20.958 11.042 22 12.3274 22C13.6127 22 14.6547 20.958 14.6547 19.6726Z" fill="black"/>
</svg>
