<svg width="17" height="17" viewBox="0 0 17 17" fill="none" xmlns="http://www.w3.org/2000/svg">
<path d="M15.0472 16.3619C15.6277 16.3619 16.0983 15.8914 16.0983 15.3109C16.0983 14.7304 15.6277 14.2598 15.0472 14.2598C14.4667 14.2598 13.9961 14.7304 13.9961 15.3109C13.9961 15.8914 14.4667 16.3619 15.0472 16.3619Z"  stroke-width="0.7" stroke-linecap="round" stroke-linejoin="round"/>
<path d="M9.26593 16.3619C9.84643 16.3619 10.317 15.8914 10.317 15.3109C10.317 14.7304 9.84643 14.2598 9.26593 14.2598C8.68543 14.2598 8.21484 14.7304 8.21484 15.3109C8.21484 15.8914 8.68543 16.3619 9.26593 16.3619Z"  stroke-width="0.7" stroke-linecap="round" stroke-linejoin="round"/>
<path d="M6.90039 9.00439V12.946L8.52222 14.5678"  stroke-width="0.7" stroke-linecap="round" stroke-linejoin="round"/>
<path d="M13.9964 5.58802C14.5769 5.58802 15.0475 5.11743 15.0475 4.53693C15.0475 3.95643 14.5769 3.48584 13.9964 3.48584C13.4159 3.48584 12.9453 3.95643 12.9453 4.53693C12.9453 5.11743 13.4159 5.58802 13.9964 5.58802Z"  stroke-width="0.7" stroke-linecap="round" stroke-linejoin="round"/>
<path d="M4.53547 5.58802C5.11597 5.58802 5.58656 5.11743 5.58656 4.53693C5.58656 3.95643 5.11597 3.48584 4.53547 3.48584C3.95496 3.48584 3.48438 3.95643 3.48438 4.53693C3.48438 5.11743 3.95496 5.58802 4.53547 5.58802Z"  stroke-width="0.7" stroke-linecap="round" stroke-linejoin="round"/>
<path d="M11.3687 12.1575H10.0549L9.26655 11.3692V10.5809H8.47823L5.65816 7.76083C4.92546 8.01728 4.12739 8.01734 3.39465 7.76099C2.66192 7.50465 2.03794 7.0071 1.6249 6.34981C1.21186 5.69253 1.03425 4.91448 1.12115 4.14308C1.20805 3.37167 1.55431 2.65263 2.10323 2.10372C2.65214 1.5548 3.37118 1.20854 4.14259 1.12164C4.91399 1.03474 5.69204 1.21235 6.34933 1.62539C7.00661 2.03842 7.50416 2.6624 7.76051 3.39514C8.01685 4.12788 8.01679 4.92595 7.76034 5.65865L8.74101 6.63931H11.8943L13.2533 5.28025"  stroke-width="0.7" stroke-linecap="round" stroke-linejoin="round"/>
<path d="M15.0462 14.2604V12.9466L12.1557 10.0561H11.3674V9.26775L10.0703 7.9707"  stroke-width="0.7" stroke-linecap="round" stroke-linejoin="round"/>
</svg>
