<svg width="20" height="20" viewBox="0 0 20 20" xmlns="http://www.w3.org/2000/svg">
<path fill-rule="evenodd" clip-rule="evenodd" d="M10.0002 2.22244C9.38658 2.22244 8.88912 2.7199 8.88912 3.33355C8.88912 3.63196 9.00675 3.90289 9.19818 4.1025C9.20393 4.10779 9.20961 4.11323 9.21519 4.11881C9.22079 4.1244 9.22624 4.13009 9.23155 4.13586C9.43113 4.32713 9.70196 4.44466 10.0002 4.44466C10.2984 4.44466 10.5692 4.32719 10.7688 4.136C10.7741 4.13018 10.7796 4.12445 10.7853 4.11881C10.7909 4.11318 10.7966 4.1077 10.8024 4.10236C10.9938 3.90276 11.1113 3.63189 11.1113 3.33355C11.1113 2.7199 10.6139 2.22244 10.0002 2.22244ZM7.77801 3.33355C7.77801 3.74581 7.89027 4.13184 8.08589 4.46276L4.46172 8.08852C4.13104 7.89328 3.74538 7.78125 3.33355 7.78125C2.10625 7.78125 1.11133 8.77617 1.11133 10.0035C1.11133 11.2308 2.10625 12.2257 3.33355 12.2257C3.74596 12.2257 4.13213 12.1134 4.46313 11.9176L8.08572 15.539C7.8902 15.8698 7.77801 16.2558 7.77801 16.6679C7.77801 17.8952 8.77293 18.8901 10.0002 18.8901C11.2275 18.8901 12.2225 17.8952 12.2225 16.6679C12.2225 16.2558 12.1103 15.8698 11.9147 15.539L15.5373 11.9176C15.8683 12.1133 16.2545 12.2257 16.6669 12.2257C17.8942 12.2257 18.8891 11.2308 18.8891 10.0035C18.8891 8.77617 17.8942 7.78125 16.6669 7.78125C16.2551 7.78125 15.8694 7.89328 15.5387 8.08852L11.9146 4.46277C12.1102 4.13185 12.2225 3.74581 12.2225 3.33355C12.2225 2.10625 11.2275 1.11133 10.0002 1.11133C8.77293 1.11133 7.77801 2.10625 7.77801 3.33355ZM15.87 9.22919C15.874 9.22542 15.878 9.22157 15.8819 9.21766C15.8857 9.2138 15.8895 9.20989 15.8933 9.20595C16.0933 9.01185 16.3661 8.89236 16.6669 8.89236C17.2805 8.89236 17.778 9.38982 17.778 10.0035C17.778 10.6171 17.2805 11.1146 16.6669 11.1146C16.3729 11.1146 16.1056 11.0004 15.9069 10.814C15.899 10.805 15.8907 10.7961 15.882 10.7875C15.8734 10.7789 15.8646 10.7706 15.8556 10.7627C15.6697 10.5641 15.5558 10.2971 15.5558 10.0035C15.5558 9.7024 15.6755 9.4293 15.87 9.22919ZM14.7528 8.87391L11.1287 5.2483C10.798 5.44367 10.4122 5.55577 10.0002 5.55577C9.58825 5.55577 9.20246 5.44367 8.8717 5.2483L5.24768 8.8739C5.44343 9.2049 5.55577 9.59107 5.55577 10.0035C5.55577 10.4153 5.44375 10.8009 5.24852 11.1316L8.87142 14.7533C9.20224 14.5578 9.58814 14.4457 10.0002 14.4457C10.4123 14.4457 10.7982 14.5578 11.129 14.7533L14.7519 11.1316C14.5567 10.8009 14.4447 10.4153 14.4447 10.0035C14.4447 9.59107 14.557 9.2049 14.7528 8.87391ZM8.88912 16.6679C8.88912 16.3702 9.00616 16.0999 9.19674 15.9005C9.20304 15.8947 9.20924 15.8888 9.21534 15.8827C9.21848 15.8795 9.22158 15.8764 9.22464 15.8732C9.22744 15.8702 9.2302 15.8673 9.23293 15.8643C9.43238 15.6738 9.70264 15.5568 10.0002 15.5568C10.2977 15.5568 10.568 15.6737 10.7674 15.8641C10.7731 15.8704 10.779 15.8766 10.7851 15.8827C10.7912 15.8888 10.7975 15.8948 10.8038 15.9006C10.9943 16.1 11.1113 16.3703 11.1113 16.6679C11.1113 17.2815 10.6139 17.779 10.0002 17.779C9.38658 17.779 8.88912 17.2815 8.88912 16.6679ZM4.10713 9.20588L4.11857 9.21766L4.13051 9.22925C4.32494 9.42935 4.44466 9.70243 4.44466 10.0035C4.44466 10.2971 4.3308 10.564 4.14483 10.7627C4.13583 10.7706 4.12702 10.7789 4.11842 10.7875C4.10977 10.7961 4.10146 10.805 4.09349 10.8141C3.89477 11.0004 3.62749 11.1146 3.33355 11.1146C2.7199 11.1146 2.22244 10.6171 2.22244 10.0035C2.22244 9.38982 2.7199 8.89236 3.33355 8.89236C3.63427 8.89236 3.90708 9.01182 4.10713 9.20588ZM10.0002 8.89236C9.38658 8.89236 8.88912 9.38982 8.88912 10.0035C8.88912 10.6171 9.38658 11.1146 10.0002 11.1146C10.6139 11.1146 11.1113 10.6171 11.1113 10.0035C11.1113 9.38982 10.6139 8.89236 10.0002 8.89236ZM7.77801 10.0035C7.77801 8.77617 8.77293 7.78125 10.0002 7.78125C11.2275 7.78125 12.2225 8.77617 12.2225 10.0035C12.2225 11.2308 11.2275 12.2257 10.0002 12.2257C8.77293 12.2257 7.77801 11.2308 7.77801 10.0035Z" />
</svg>
