<svg width="25" height="24" viewBox="0 0 25 24" xmlns="http://www.w3.org/2000/svg">
    <path d="M12.768 5.4a3.192 3.192 0 1 1 0 6.385 3.192 3.192 0 0 1 0-6.385zm3.833-2.173a6.598 6.598 0 0 1 2.563 6.988l-.072.262-.181.612-1.224-.364.181-.612a5.32 5.32 0 1 0-10.264-.234l.064.234.182.612-1.224.364-.182-.612a6.597 6.597 0 0 1 10.157-7.25zm-3.833 3.45a1.915 1.915 0 1 0 0 3.83 1.915 1.915 0 0 0 0-3.83zm.639 7.236v3.493a2.342 2.342 0 1 1-1.277 0v-3.493h1.277zm-.639 4.682a1.064 1.064 0 1 0 0 2.128 1.064 1.064 0 0 0 0-2.128zm-4.079-5.78.708 1.062-2.801 1.867v1.662a2.342 2.342 0 1 1-1.277 0v-2.345l3.37-2.246zm-2.731 5.78a1.064 1.064 0 1 0 0 2.128 1.064 1.064 0 0 0 0-2.128zm10.89-5.78 3.369 2.246.001 2.345a2.342 2.342 0 1 1-1.278 0v-1.662l-2.8-1.867.708-1.062zm2.73 5.78a1.064 1.064 0 1 0 0 2.128 1.064 1.064 0 0 0 0-2.128z" fill-rule="evenodd"/>
</svg>
