<svg width="25" height="24" viewBox="0 0 25 24" xmlns="http://www.w3.org/2000/svg">
    <g fill-rule="nonzero" fill="none">
        <path d="M22.252 12c0 5.523-4.476 10-10 10-5.523 0-10-4.477-10-10s4.477-10 10-10c5.524 0 10 4.477 10 10z" fill="#A6CE39"/>
        <path d="M8.994 16.547H7.791V8.18h1.203V16.547zM10.76 8.18h3.25c3.094 0 4.453 2.21 4.453 4.187 0 2.149-1.68 4.188-4.437 4.188H10.76V8.18zm1.203 7.289h1.914c2.727 0 3.352-2.07 3.352-3.102 0-1.68-1.07-3.101-3.414-3.101h-1.852v6.203zM9.182 6.438c0 .43-.352.789-.79.789a.792.792 0 0 1-.788-.79c0-.437.351-.789.789-.789.437 0 .789.36.789.79z" fill="#FFF"/>
    </g>
</svg>
