<svg width="20" height="20" viewBox="0 0 20 20" fill="none" xmlns="http://www.w3.org/2000/svg">
<path fill-rule="evenodd" clip-rule="evenodd" d="M0.673645 4.04163H15.2847V19.9999H0.673645V4.04163ZM1.81208 5.18006V18.8615H14.1462V5.18006H1.81208Z" fill="white"/>
<path fill-rule="evenodd" clip-rule="evenodd" d="M7.97911 10.8475C8.19407 10.8475 8.36832 11.0218 8.36832 11.2367L8.36832 13.1533C8.36832 13.3683 8.19407 13.5425 7.97911 13.5425C7.76416 13.5425 7.5899 13.3683 7.5899 13.1533L7.5899 11.2367C7.5899 11.0218 7.76416 10.8475 7.97911 10.8475Z" fill="white"/>
<path fill-rule="evenodd" clip-rule="evenodd" d="M7.97894 13.5426C7.73988 13.5426 7.53414 13.7419 7.53414 14.0026C7.53414 14.2633 7.73988 14.4626 7.97894 14.4626C8.218 14.4626 8.42375 14.2633 8.42375 14.0026C8.42375 13.7419 8.218 13.5426 7.97894 13.5426ZM6.75572 14.0026C6.75572 13.3253 7.29678 12.7642 7.97894 12.7642C8.66111 12.7642 9.20216 13.3253 9.20216 14.0026C9.20216 14.6799 8.66111 15.241 7.97894 15.241C7.29678 15.241 6.75572 14.6799 6.75572 14.0026Z" fill="white"/>
<path fill-rule="evenodd" clip-rule="evenodd" d="M8.80246 9.98775C8.90307 9.7978 9.13862 9.72537 9.32857 9.82599L11.2193 10.8274C11.3466 10.8949 11.4263 11.0273 11.4263 11.1714V12.3037C11.4263 12.5186 11.252 12.6929 11.0371 12.6929C10.8221 12.6929 10.6479 12.5186 10.6479 12.3037V11.4057L8.96422 10.5139C8.77427 10.4132 8.70184 10.1777 8.80246 9.98775Z" fill="white"/>
<path fill-rule="evenodd" clip-rule="evenodd" d="M11.0372 12.6931C10.7982 12.6931 10.5924 12.8924 10.5924 13.1531C10.5924 13.4138 10.7982 13.6131 11.0372 13.6131C11.2763 13.6131 11.482 13.4138 11.482 13.1531C11.482 12.8924 11.2763 12.6931 11.0372 12.6931ZM9.814 13.1531C9.814 12.4758 10.3551 11.9147 11.0372 11.9147C11.7194 11.9147 12.2604 12.4758 12.2604 13.1531C12.2604 13.8304 11.7194 14.3915 11.0372 14.3915C10.3551 14.3915 9.814 13.8304 9.814 13.1531Z" fill="white"/>
<path fill-rule="evenodd" clip-rule="evenodd" d="M7.19222 10.1156C7.28284 10.3105 7.19828 10.542 7.00335 10.6326L5.31041 11.4196V12.3036C5.31041 12.5186 5.13616 12.6928 4.92121 12.6928C4.70625 12.6928 4.532 12.5186 4.532 12.3036V11.1713C4.532 11.0199 4.61982 10.8822 4.75714 10.8184L6.67522 9.92674C6.87014 9.83613 7.10161 9.92069 7.19222 10.1156Z" fill="white"/>
<path fill-rule="evenodd" clip-rule="evenodd" d="M4.92116 12.6931C4.6821 12.6931 4.47635 12.8924 4.47635 13.1531C4.47635 13.4138 4.6821 13.6131 4.92116 13.6131C5.16022 13.6131 5.36596 13.4138 5.36596 13.1531C5.36596 12.8924 5.16022 12.6931 4.92116 12.6931ZM3.69794 13.1531C3.69794 12.4758 4.23899 11.9147 4.92116 11.9147C5.60332 11.9147 6.14438 12.4758 6.14438 13.1531C6.14438 13.8304 5.60332 14.3915 4.92116 14.3915C4.23899 14.3915 3.69794 13.8304 3.69794 13.1531Z" fill="white"/>
<path fill-rule="evenodd" clip-rule="evenodd" d="M7.97902 9.26963C7.57199 9.26963 7.23008 9.60757 7.23008 10.0393C7.23008 10.4711 7.57199 10.809 7.97902 10.809C8.38606 10.809 8.72797 10.4711 8.72797 10.0393C8.72797 9.60757 8.38606 9.26963 7.97902 9.26963ZM6.45166 10.0393C6.45166 9.19098 7.12889 8.49121 7.97902 8.49121C8.82916 8.49121 9.50639 9.19098 9.50639 10.0393C9.50639 10.8877 8.82916 11.5874 7.97902 11.5874C7.12889 11.5874 6.45166 10.8877 6.45166 10.0393Z" fill="white"/>
<path fill-rule="evenodd" clip-rule="evenodd" d="M4.71538 -0.00012207H19.3264V15.9581H18.188V1.13831H4.71538V-0.00012207Z" fill="white"/>
<path fill-rule="evenodd" clip-rule="evenodd" d="M2.69452 2.02075H17.3055V17.979H16.1671V3.15918H2.69452V2.02075Z" fill="white"/>
</svg>
