<svg width="32" height="32" viewBox="0 0 32 32" fill="none" xmlns="http://www.w3.org/2000/svg">
<path fill-rule="evenodd" clip-rule="evenodd" d="M3.7778 4.02234C3.29915 4.02234 2.91113 4.41036 2.91113 4.88901V24.889C2.91113 25.7082 3.23657 26.4939 3.81585 27.0732C4.39513 27.6525 5.1808 27.9779 6.00002 27.9779H18.8205C18.9489 27.9779 19.0707 27.95 19.1803 27.8999L19.618 28.3376C20.3435 29.0631 21.3403 29.257 22.0784 29.3968L22.1967 29.4191L22.1967 29.4191C22.544 29.4845 22.8362 29.5395 23.0979 29.6206C23.3828 29.7089 23.565 29.8097 23.6838 29.9286L24.1553 30.4L24.6267 29.9286L29.93 24.6253L30.243 24.3123L30.0759 23.9023L29.4586 24.1539C30.0759 23.9023 30.0759 23.9022 30.0758 23.9021L30.0757 23.9017L30.0753 23.9007L30.0741 23.8978L30.0701 23.8881L30.0556 23.8536C30.0431 23.824 30.0249 23.7814 30.001 23.7268C29.9531 23.6178 29.8825 23.4609 29.7893 23.2648C29.6029 22.8728 29.3258 22.3229 28.9597 21.6844C28.9113 21.6 28.8612 21.5139 28.8096 21.4263C28.9814 21.268 29.0889 21.0411 29.0889 20.7891V9.33345C29.0889 8.8548 28.7009 8.46678 28.2222 8.46678H15.4245L13.4419 4.50142C13.2951 4.20781 12.995 4.02234 12.6667 4.02234H3.7778ZM27.3556 19.2469V10.2001H14.8889C14.5606 10.2001 14.2605 10.0146 14.1137 9.72104L12.1311 5.75567H4.64447V24.889C4.64447 25.2485 4.78728 25.5933 5.0415 25.8475C5.29572 26.1017 5.64051 26.2446 6.00002 26.2446H17.525L17.4967 26.2163C16.8458 25.5654 16.8458 24.5101 17.4967 23.8592L17.7324 23.6235L17.5851 23.4762C16.8854 22.7765 16.8854 21.6421 17.5851 20.9424C17.939 20.5885 18.4041 20.4136 18.868 20.4177C18.9379 20.0917 19.0995 19.7815 19.3528 19.5282C19.7627 19.1183 20.3217 18.9486 20.8551 19.0189C20.9389 18.7526 21.0862 18.5019 21.2973 18.2909C21.7527 17.8355 22.3922 17.6765 22.9761 17.8139C23.0584 17.6393 23.176 17.4728 23.3303 17.3185C23.6263 17.0225 24.0178 16.809 24.4693 16.7962C24.9293 16.7832 25.3504 16.9816 25.6873 17.3185C26.3088 17.94 26.8652 18.5978 27.3556 19.2469ZM18.5279 21.8852C18.3489 22.0642 18.3489 22.3544 18.5279 22.5334L18.6752 22.6807L18.6752 22.6807L19.1466 23.1521L20.5608 24.5664L21.0322 25.0378L20.0894 25.9806L19.618 25.5092L18.6752 24.5663L18.4395 24.8021C18.3093 24.9322 18.3093 25.1433 18.4395 25.2735L20.5608 27.3948C20.9549 27.7889 21.538 27.9374 22.3265 28.0868L22.4471 28.1095C22.781 28.172 23.1526 28.2417 23.4925 28.347C23.6871 28.4073 23.888 28.4839 24.0821 28.5875L28.664 24.0056C28.6401 23.9539 28.6138 23.8977 28.5851 23.8373C28.411 23.471 28.1495 22.952 27.803 22.3476C27.1076 21.1347 26.0807 19.5976 24.7445 18.2613C24.6174 18.1342 24.5358 18.1282 24.5069 18.129C24.4695 18.1301 24.3859 18.1485 24.2731 18.2613C24.1876 18.3468 24.1717 18.4038 24.1671 18.4274C24.1612 18.4573 24.1625 18.4968 24.1798 18.551C24.1978 18.6071 24.2278 18.6619 24.2575 18.7058C24.2714 18.7265 24.2832 18.7415 24.2898 18.7495L24.2899 18.7497L24.7444 19.2042L24.73 19.2187L24.744 19.2336L24.2666 19.6821L23.8016 20.147L23.7871 20.1325L23.7723 20.1465L23.3255 19.6709L22.8883 19.2337C22.7093 19.0547 22.4191 19.0547 22.2401 19.2337C22.0637 19.4101 22.0612 19.6946 22.2326 19.8741L22.5053 20.1469L22.9767 20.6183L22.0339 21.5611L21.7688 21.296L21.7687 21.2961L21.2973 20.8247L21.2823 20.8095L20.9438 20.471C20.7648 20.292 20.4746 20.292 20.2956 20.471C20.1166 20.65 20.1166 20.9402 20.2956 21.1192L20.9143 21.7379L21.3857 22.2093L20.4429 23.1521L20.2662 22.9754L19.7948 22.504L19.176 21.8852C18.9971 21.7062 18.7069 21.7062 18.5279 21.8852Z" fill="white"/>
</svg>
