<svg width="38" height="46" viewBox="0 0 38 46" xmlns="http://www.w3.org/2000/svg">
<path d="M37.164 3.01403L19.164 0.0140279C19.0554 -0.00402494 18.9446 -0.00402494 18.836 0.0140279L0.836 3.01403C0.602499 3.05285 0.390338 3.17324 0.237259 3.35378C0.0841804 3.53433 0.000108969 3.76332 0 4.00003V25C0 31.059 3.256 36.612 9.414 41.061C12.2644 43.1088 15.3838 44.7534 18.684 45.948C18.889 46.0174 19.111 46.0174 19.316 45.948C22.6162 44.7534 25.7356 43.1088 28.586 41.061C34.744 36.612 38 31.059 38 25V4.00003C37.9999 3.76332 37.9158 3.53433 37.7627 3.35378C37.6097 3.17324 37.3975 3.05285 37.164 3.01403ZM17.113 31.941L8.172 23L11 20.172L16.887 26.059L28.787 12.18L31.824 14.78L17.113 31.941Z" />
</svg>
