<svg width="21" height="20" viewBox="0 0 21 20"
    xmlns="http://www.w3.org/2000/svg">
    <path d="M12.583 7.16v1.135H8.985a2.462 2.462 0 0 0-2.458 2.318l-.004.145v3.03a2.462 2.462 0 0 0 2.317 2.458l.145.004h6.818a2.462 2.462 0 0 0 2.458-2.317l.004-.145v-3.03c0-.662-.262-1.28-.716-1.737l-.118-.11-.426-.377.752-.852.426.376a3.59 3.59 0 0 1 1.213 2.504l.006.196v3.03a3.599 3.599 0 0 1-3.425 3.594l-.174.004H8.985a3.599 3.599 0 0 1-3.594-3.424l-.005-.174v-3.03a3.599 3.599 0 0 1 3.425-3.595l.174-.004h3.598zm-.568-4.546a3.599 3.599 0 0 1 3.594 3.424l.005.174v3.03a3.599 3.599 0 0 1-3.425 3.595l-.174.004H8.417v-1.136h3.598a2.462 2.462 0 0 0 2.458-2.318l.004-.145v-3.03a2.462 2.462 0 0 0-2.317-2.458l-.145-.004H5.197a2.462 2.462 0 0 0-2.458 2.317l-.004.145v3.03c0 .662.262 1.28.716 1.737l.118.11.426.377-.752.852-.426-.376a3.59 3.59 0 0 1-1.213-2.504l-.006-.196v-3.03a3.599 3.599 0 0 1 3.425-3.594l.174-.004h6.818z" fill-rule="evenodd"/>
</svg>
