<svg xmlns="http://www.w3.org/2000/svg" width="32" height="32" viewBox="0 0 32 32"><g stroke-linecap="square" stroke-linejoin="miter" stroke-width="1.5" fill="none"  stroke-miterlimit="10"><line x1="16" y1="6" x2="16" y2="13.5" stroke-linecap="butt" ></line><line x1="16" y1="18.5" x2="16" y2="25.545" stroke-linecap="butt" ></line><line x1="13.807" y1="4.696" x2="7.189" y2="8.306" stroke-linecap="butt" ></line><line x1="18.193" y1="4.696" x2="24.811" y2="8.306" stroke-linecap="butt" ></line><line x1="13.807" y1="27.304" x2="7.189" y2="23.694" stroke-linecap="butt" ></line><line x1="18.193" y1="27.304" x2="24.811" y2="23.694" stroke-linecap="butt" ></line><line x1="27" y1="12" x2="27" y2="20" stroke-linecap="butt" ></line><line x1="5" y1="12" x2="5" y2="20" stroke-linecap="butt" ></line><line x1="13.849" y1="14.729" x2="7.151" y2="10.771" stroke-linecap="butt" ></line><line x1="13.849" y1="17.271" x2="7.151" y2="21.229" stroke-linecap="butt" ></line><line x1="18.151" y1="14.729" x2="24.849" y2="10.771" stroke-linecap="butt" ></line><line x1="18.153" y1="17.272" x2="24.849" y2="21.229" stroke-linecap="butt" ></line><circle cx="16" cy="16" r="2.5" stroke-linecap="butt"></circle><circle cx="16" cy="3.5" r="2.5" stroke-linecap="butt"></circle><circle cx="5" cy="9.5" r="2.5" stroke-linecap="butt"></circle><circle cx="27" cy="9.5" r="2.5" stroke-linecap="butt"></circle><circle cx="5" cy="22.5" r="2.5" stroke-linecap="butt"></circle><circle cx="27" cy="22.5" r="2.5" stroke-linecap="butt"></circle><circle cx="16" cy="28.5" r="2.5" stroke-linecap="butt"></circle></g></svg>