<svg width="21" height="20" viewBox="0 0 21 20" xmlns="http://www.w3.org/2000/svg">
    <path d="M17.27 1.667c.863 0 1.563.7 1.563 1.562v13.542c0 .862-.7 1.562-1.562 1.562H3.729c-.862 0-1.562-.7-1.562-1.562V3.229c0-.862.7-1.562 1.562-1.562zm0 1.041H3.73a.521.521 0 0 0-.522.521v13.542c0 .287.234.52.521.52h13.542c.287 0 .52-.233.52-.52V3.229a.521.521 0 0 0-.52-.52zm-2.082 2.084h.011c.022 0 .044.002.066.005l-.078-.005a.523.523 0 0 1 .369.152l.012.013a.524.524 0 0 1 .034.04l-.046-.053a.523.523 0 0 1 .142.264l.004.024.006.063v5.226a.52.52 0 0 1-1.03.105l-.011-.105V6.57l-5.361 5.36a.52.52 0 0 1-.804-.654l.067-.082 5.36-5.361H9.98a.521.521 0 0 1-.51-.416l-.01-.104c0-.252.178-.462.415-.51l.105-.011h5.209z" fill="#FFF" fill-rule="evenodd"/>
</svg>
