<svg width="27" height="42" viewBox="0 0 27 42" fill="none" xmlns="http://www.w3.org/2000/svg">
<g clip-path="url(#clip0_1418_11384)">
<path d="M9.65234 10.4854L13.651 12.2625L17.6497 10.4854" stroke="#28AAC4" stroke-width="1.03788" stroke-miterlimit="10"/>
<path d="M13.6504 12.2627V17.5943" stroke="#28AAC4" stroke-width="1.03788" stroke-miterlimit="10"/>
<path d="M17.6497 15.817L13.651 17.5942L9.65234 15.817V10.4854L13.651 8.70825L17.6497 10.4854V15.817Z" stroke="#28AAC4" stroke-width="1.03788" stroke-miterlimit="10" stroke-linecap="square"/>
</g>
<path d="M4.94304 22.4241C3.17835 20.6629 1.96877 18.4064 1.46853 15.9424C0.968283 13.4784 1.20004 10.9185 2.13424 8.58912C3.06845 6.25976 4.66278 4.26645 6.71395 2.86335C8.76512 1.46026 11.1802 0.710938 13.6513 0.710938C16.1223 0.710937 18.5374 1.46026 20.5886 2.86335C22.6397 4.26645 24.2341 6.25976 25.1683 8.58912C26.1025 10.9185 26.3342 13.4784 25.834 15.9424C25.3337 18.4064 24.1242 20.6629 22.3595 22.4241" stroke="#525659" stroke-width="1.03788" stroke-linecap="round" stroke-linejoin="round"/>
<path d="M13.6504 27.8528V35.0911" stroke="#525659" stroke-width="1.03788" stroke-linecap="round" stroke-linejoin="round"/>
<path d="M3.87695 32.3768V28.7576L10.9857 25.1384" stroke="#525659" stroke-width="1.03788" stroke-linecap="round" stroke-linejoin="round"/>
<path d="M23.4252 32.3768V28.7576L16.3164 25.1384" stroke="#525659" stroke-width="1.03788" stroke-linecap="round" stroke-linejoin="round"/>
<path d="M13.6521 27.7556C15.1244 27.7556 16.3179 26.5621 16.3179 25.0899C16.3179 23.6176 15.1244 22.4241 13.6521 22.4241C12.1798 22.4241 10.9863 23.6176 10.9863 25.0899C10.9863 26.5621 12.1798 27.7556 13.6521 27.7556Z" stroke="#28AAC4" stroke-width="1.03788" stroke-linecap="round" stroke-linejoin="round"/>
<path d="M13.6521 40.4226C15.1244 40.4226 16.3179 39.2291 16.3179 37.7568C16.3179 36.2846 15.1244 35.0911 13.6521 35.0911C12.1798 35.0911 10.9863 36.2846 10.9863 37.7568C10.9863 39.2291 12.1798 40.4226 13.6521 40.4226Z" stroke="#525659" stroke-width="1.03788" stroke-linecap="round" stroke-linejoin="round"/>
<path d="M3.87672 37.7083C5.34899 37.7083 6.5425 36.5148 6.5425 35.0425C6.5425 33.5702 5.34899 32.3767 3.87672 32.3767C2.40445 32.3767 1.21094 33.5702 1.21094 35.0425C1.21094 36.5148 2.40445 37.7083 3.87672 37.7083Z" stroke="#525659" stroke-width="1.03788" stroke-linecap="round" stroke-linejoin="round"/>
<path d="M23.4255 37.7083C24.8978 37.7083 26.0913 36.5148 26.0913 35.0425C26.0913 33.5702 24.8978 32.3767 23.4255 32.3767C21.9533 32.3767 20.7598 33.5702 20.7598 35.0425C20.7598 36.5148 21.9533 37.7083 23.4255 37.7083Z" stroke="#525659" stroke-width="1.03788" stroke-linecap="round" stroke-linejoin="round"/>
<path d="M13.6503 25.9784C14.1411 25.9784 14.5389 25.5805 14.5389 25.0898C14.5389 24.599 14.1411 24.2012 13.6503 24.2012C13.1596 24.2012 12.7617 24.599 12.7617 25.0898C12.7617 25.5805 13.1596 25.9784 13.6503 25.9784Z" fill="#525659"/>
<defs>
<clipPath id="clip0_1418_11384">
<rect width="10.6631" height="10.6631" fill="white" transform="translate(8.32031 7.81958)"/>
</clipPath>
</defs>
</svg>
