<svg width="20" height="20" viewBox="0 0 20 20" fill="none" xmlns="http://www.w3.org/2000/svg">
<path fill-rule="evenodd" clip-rule="evenodd" d="M10 0C4.47715 0 0 4.47715 0 10C0 15.5228 4.47715 20 10 20C15.5228 20 20 15.5228 20 10C20 4.47715 15.5228 0 10 0ZM10 1.25C14.8325 1.25 18.75 5.16751 18.75 10C18.75 12.3323 17.8375 14.4514 16.3501 16.0199C14.9927 13.8475 12.6005 12.501 9.99999 12.501C7.39947 12.501 5.00726 13.8475 3.64988 16.0199C2.16247 14.4514 1.25 12.3322 1.25 10C1.25 5.16751 5.16751 1.25 10 1.25ZM4.59195 16.8791C6.08046 18.0509 7.95859 18.75 10 18.75C12.0414 18.75 13.9195 18.0509 15.408 16.8791C14.3015 14.9544 12.2438 13.751 9.99999 13.751C7.75614 13.751 5.69844 14.9544 4.59195 16.8791ZM6.25 7.5C6.25 5.42893 7.92893 3.75 10 3.75C12.0711 3.75 13.75 5.42893 13.75 7.5C13.75 9.57107 12.0711 11.25 10 11.25C7.92893 11.25 6.25 9.57107 6.25 7.5ZM12.5 7.5C12.5 6.11929 11.3807 5 10 5C8.61929 5 7.5 6.11929 7.5 7.5C7.5 8.88071 8.61929 10 10 10C11.3807 10 12.5 8.88071 12.5 7.5Z" fill="white"/>
</svg>
