<svg width="25" height="24" viewBox="0 0 25 24" xmlns="http://www.w3.org/2000/svg">
    <g fill="none" fill-rule="evenodd">
        <path fill="#00E3FF" d="M6.057 12.167 11.58 3v12.534l-5.522-3.367"/>
        <path fill="#26CEFF" d="m11.579 9.72-5.522 2.447 5.522 3.367V9.72"/>
        <path fill="#00E3FF" d="m6.057 13.224 5.522 3.286V21l-5.522-7.776"/>
        <path fill="#4EBDF5" d="M17.1 12.167 11.58 9.719V3l5.521 9.167"/>
        <path fill="#79AFFA" d="M11.579 15.534V9.72l5.521 2.448-.142.087-.098.06-.044.026-1.13.69-.402.245-1.408.859h-.001l-2.296 1.4"/>
        <path fill="#4EBDF5" d="M11.579 21v-4.49l5.521-3.286-.035.05-.206.29-.044.062-.092.129-1.59 2.239-.09.128-1.03 1.45-.045.063-.21.295-.044.062L11.58 21"/>
    </g>
</svg>
