<svg width="38" height="46" viewBox="0 0 38 46" fill="none" xmlns="http://www.w3.org/2000/svg">
<rect x="4.5" y="7.5" width="28" height="28" fill="white" stroke="#5BB5BF"/>
<path d="M37.0818 3.50722L37.082 3.50726C37.1987 3.52667 37.3048 3.58686 37.3814 3.67714C37.4579 3.76741 37.4999 3.8819 37.5 4.00026V25C37.5 30.8578 34.358 36.2741 28.2932 40.6557C25.4822 42.6751 22.406 44.2971 19.1517 45.4757C19.0532 45.5081 18.9468 45.5081 18.8483 45.4757C15.594 44.2971 12.5178 42.6751 9.70681 40.6557C3.642 36.2741 0.5 30.8578 0.5 25V4.00003C0.500079 3.88171 0.542113 3.76738 0.61863 3.67714C0.695169 3.58686 0.801249 3.52667 0.918 3.50726L0.918199 3.50722L18.918 0.507258C18.9723 0.498232 19.0277 0.498232 19.082 0.507258L37.0818 3.50722ZM16.7594 32.2946L17.1412 32.6764L17.4926 32.2664L32.2036 15.1054L32.5292 14.7256L32.1492 14.4002L29.1122 11.8002L28.7326 11.4753L28.4074 11.8546L16.8588 25.3237L11.3536 19.8185L11 19.4649L10.6464 19.8185L7.81845 22.6465L7.46489 23L7.81845 23.3536L16.7594 32.2946Z" fill="#333333" stroke="#7A7A7A"/>
</svg>
