<?xml version="1.0" encoding="UTF-8"?>
<svg id="Layer_1" data-name="Layer 1"
  xmlns="http://www.w3.org/2000/svg" viewBox="0 0 20.86 20.37">
  <defs>
    <style>
      .cls-1 {
        fill: #fff;
        fill-rule: evenodd;
        stroke-width: 0.5px;
      }
    </style>
  </defs>
  <path class="cls-1" d="M9.54,0C4.41,0,0,3.35,0,7.76c0,1.7,.68,3.25,1.78,4.5v5.44l.94-.47,3.77-1.89c1.39,1.74,3.86,2.84,6.6,2.84,.49,0,.96-.04,1.42-.1l3.62,1.81,.94,.47v-4.35c1.08-1.01,1.78-2.33,1.78-3.81s-.71-2.82-1.81-3.84c.02-.2,.03-.4,.03-.61C19.08,3.35,14.66,0,9.54,0Zm9.17,9.91c-1.16,3.31-4.92,5.61-9.17,5.61-.35,0-.7-.02-1.05-.05,1.15,.86,2.77,1.41,4.6,1.41,.49,0,.96-.04,1.42-.12l.21-.03,.19,.09,2.87,1.43v-2.84l.23-.19c.99-.84,1.55-1.9,1.55-3.03,0-.82-.3-1.6-.84-2.3ZM1.3,7.76C1.3,4.32,4.85,1.3,9.54,1.3s8.24,3.02,8.24,6.46-3.55,6.46-8.24,6.46c-.93,0-1.81-.13-2.65-.35l-.24-.06-.22,.11-3.36,1.68v-3.84l-.18-.19c-1.02-1.09-1.6-2.4-1.6-3.81Z"/>
</svg>