<svg width="16" height="16" viewBox="0 0 16 16" fill="none" xmlns="http://www.w3.org/2000/svg">
<path fill-rule="evenodd" clip-rule="evenodd" d="M0.916992 8.00033C0.916992 4.08831 4.08831 0.916992 8.00033 0.916992C11.9123 0.916992 15.0837 4.08831 15.0837 8.00033C15.0837 11.9123 11.9123 15.0837 8.00033 15.0837C4.08831 15.0837 0.916992 11.9123 0.916992 8.00033ZM14.2504 8.00059C14.2504 4.54881 11.4522 1.75059 8.00039 1.75059C4.54861 1.75059 1.75039 4.54881 1.75039 8.00059C1.75039 11.4524 4.54861 14.2506 8.00039 14.2506C11.4522 14.2506 14.2504 11.4524 14.2504 8.00059ZM8.00007 10.9166C7.60259 10.9166 7.28037 11.2388 7.28037 11.6363C7.28037 12.0338 7.60259 12.356 8.00007 12.356C8.39755 12.356 8.71977 12.0338 8.71977 11.6363C8.71977 11.2388 8.39755 10.9166 8.00007 10.9166ZM10.2877 4.60888C9.6259 3.53795 7.82508 3.36873 6.31651 4.03594L5.93545 4.20448L6.27252 4.9666L6.65358 4.79806L6.78972 4.74104C7.92992 4.28963 9.19823 4.43112 9.57877 5.04694C9.99127 5.71448 9.7368 6.54393 8.88168 7.26739C7.91131 8.08836 7.58353 8.67628 7.58353 9.51519V9.93185H8.41686V9.51519L8.41884 9.42229C8.44156 8.9053 8.667 8.54058 9.41992 7.90358L9.53916 7.79914C10.5861 6.84928 10.9237 5.63811 10.2877 4.60888Z" fill="white"/>
<circle cx="8.33333" cy="11.6673" r="0.333333" fill="white"/>
</svg>
