<?xml version="1.0" encoding="UTF-8"?><svg id="a" xmlns="http://www.w3.org/2000/svg" viewBox="0 0 23.51 20.2"><defs><style>.b{fill:#fff;fill-rule:evenodd;}</style></defs><path class="b" d="M18.2,0H6.25V5.94l4.13,4.13-4.13,4.13v6h11.95v-6l-4.13-4.13,4.13-4.13V0ZM8.79,6.64l3.43,3.43-4.67,4.67v4.16h9.35v-4.16l-4.67-4.67,3.43-3.43h-6.88Zm-5.56,1.34c-1.23,0-2.23,1-2.23,2.23s1,2.23,2.23,2.23,2.23-1,2.23-2.23-1-2.23-2.23-2.23ZM0,10.21c0-1.78,1.45-3.23,3.23-3.23s3.23,1.45,3.23,3.23-1.45,3.23-3.23,3.23-3.23-1.44-3.23-3.23Zm3.63-.4v-1h-.8v1H1.83v.8h1v1h.8v-1h1v-.8h-1Zm19.88-1.72l-3.88,4.99-2.19-2.19,.79-.79,1.3,1.3,3.1-3.99,.88,.69Z"/></svg>