<?xml version="1.0" encoding="UTF-8"?>
<svg id="Layer_1" data-name="Layer 1" xmlns="http://www.w3.org/2000/svg" viewBox="0 0 20 8">
  <defs>
    <style>
      .cls-1 {
        fill: #fff;
        fill-rule: evenodd;
      }
    </style>
  </defs>
  <path class="cls-1" d="M10,6.7c-1.49,0-2.7-1.21-2.7-2.7s1.21-2.7,2.7-2.7,2.7,1.21,2.7,2.7-1.21,2.7-2.7,2.7Zm-4-2.7C6,1.79,7.79,0,10,0s4,1.79,4,4-1.79,4-4,4-4-1.79-4-4ZM3.99,1.2l-.6-.61L0,4l3.4,3.41,.6-.61L1.2,4,3.99,1.2Zm12.02,0l.6-.61,3.4,3.41-3.4,3.41-.6-.61,2.79-2.8-2.79-2.8Z"/>
</svg>