<?xml version="1.0" encoding="UTF-8"?>
<svg id="Layer_1" data-name="Layer 1" xmlns="http://www.w3.org/2000/svg" viewBox="0 0 20 20">
  <defs>
    <style>
      .cls-1 {
        fill: #fff;
        fill-rule: evenodd;
      }
    </style>
  </defs>
  <path class="cls-1" d="M19.2,.8H.8V19.2H19.2V.8ZM.8,0H0V20H20V0H.8ZM5.5,9.55c0-.28,.22-.5,.5-.5h1.32v-1.77c0-.74,.29-1.44,.81-1.96,.52-.52,1.23-.81,1.96-.81,.36,0,.72,.07,1.06,.21,.34,.14,.64,.34,.9,.6,.26,.26,.46,.56,.6,.9,.14,.34,.21,.7,.21,1.06v1.77h1.32c.28,0,.5,.22,.5,.5v5.45c0,.28-.22,.5-.5,.5H6c-.28,0-.5-.22-.5-.5v-5.45Zm6.36-.5v-1.77c0-.23-.05-.46-.13-.68-.09-.22-.22-.41-.38-.58-.16-.16-.36-.3-.58-.38-.22-.09-.45-.13-.68-.13-.47,0-.92,.19-1.25,.52-.33,.33-.52,.78-.52,1.25v1.77h3.55Zm-5.36,1v4.45h7.18v-4.45H6.5Z"/>
</svg>