<svg width="16" height="17" viewBox="0 0 16 17" fill="none" xmlns="http://www.w3.org/2000/svg">
<path fill-rule="evenodd" clip-rule="evenodd" d="M6.17785 2.20705V1.76562H5.29499V2.20705V2.89739H4.03856C3.16965 2.89739 2.46526 3.60178 2.46526 4.47069V5.72712H1.77493H1.3335V6.60998H1.77493H2.46526V7.99081H1.77493H1.3335V8.87367H1.77493H2.46526V10.2547H1.77493H1.3335V11.1375H1.77493H2.46526V12.3938C2.46526 13.2627 3.16965 13.9671 4.03856 13.9671H5.29499V14.6575V15.099H6.17785V14.6575V13.9671H7.55868V14.6575V15.099H8.44154V14.6575V13.9671H9.82253V14.6575V15.099H10.7054V14.6575V13.9671H11.9617C12.8306 13.9671 13.535 13.2627 13.535 12.3938V11.1375H14.2254H14.6668V10.2547H14.2254H13.535V8.87367H14.2254H14.6668V7.99081H14.2254H13.535V6.60998H14.2254H14.6668V5.72712H14.2254H13.535V4.47069C13.535 3.60178 12.8306 2.89739 11.9617 2.89739H10.7054V2.20705V1.76562H9.82253V2.20705V2.89739H8.44154V2.20705V1.76562H7.55868V2.20705V2.89739H6.17785V2.20705ZM4.03856 3.78025H5.29499L6.17785 3.78036L7.55868 3.78025L8.44154 3.78036L9.82253 3.78025L10.7054 3.78036L11.9617 3.78025C12.343 3.78025 12.6521 4.08937 12.6521 4.47069L12.6521 5.72712V6.60998V7.99081V8.87367V10.2547V11.1375L12.6521 12.3938C12.6521 12.7751 12.343 13.0842 11.9617 13.0842L10.7054 13.0842H9.82253H8.44154H7.55868H6.17785H5.29499L4.03856 13.0842C3.65724 13.0842 3.34812 12.7751 3.34812 12.3938V11.1375L3.34823 10.2547L3.34812 8.87367L3.34823 7.99081L3.34812 6.60998L3.34823 5.72712L3.34812 4.47069C3.34812 4.08937 3.65724 3.78025 4.03856 3.78025ZM5.17054 5.16124H4.72911V5.60267V11.262V11.7035H5.17054H10.8299H11.2713V11.262V5.60267V5.16124H10.8299H5.17054ZM5.61197 10.8206V6.0441H10.3885V10.8206H5.61197Z" fill="white"/>
</svg>
