<svg id="SvgjsSvg1001" width="100%" height="100%"
    xmlns="http://www.w3.org/2000/svg" version="1.1" xlink="http://www.w3.org/1999/xlink" preserveAspectRatio="xMidYMid meet" viewBox="0.0000013906574167776853 7.525540452846084e-15 111 111.86907958984375" overflow="visible">
    <defs id="SvgjsDefs1002">
        <linearGradient id="SvgjsLinearGradient1I5dBZN42o" gradientUnits="userSpaceOnUse" x1="-2.6505005955695746" y1="96.65049934387204" x2="90.65049809217453" y2="3.3495006561279217">
            <stop id="SvgjsStop1010" stop-color="#78a4fb" offset="0.05"></stop>
            <stop id="SvgjsStop1011" stop-color="#0754ed" offset="0.95"></stop>
        </linearGradient>
    </defs>
    <g id="SvgjsG1008" transform="scale(1.0591257049033018)" opacity="1">
        <g id="SvgjsG1012" class="_NosEeev_" transform="translate(-0.7383104379069831, 7.105427357601002e-15) scale(1.0562399999999998)" light-content="false" non-strokable="false" fill="url(#SvgjsLinearGradient1I5dBZN42o)">
            <path d="M44 0l43.301 25v50L44 100 .699 75V25z"></path>
        </g>
        <g id="SvgjsG1013" class="ZVpenVSBtC" transform="translate(20.649087281629285, 27.320724068576983) scale(0.5069649532055938)" light-content="true" non-strokable="false" fill="#ffffff">
            <path d="M94.273 62.561l-4.411-26.07a4.562 4.562 0 0 0 1.847-3.657 4.583 4.583 0 0 0-4.584-4.583 4.55 4.55 0 0 0-1.742.348L72.105 14.91c1.107-.986 1.819-2.407 1.819-4.007a5.377 5.377 0 0 0-5.379-5.379 5.377 5.377 0 0 0-4.457 2.368L42.86 3.369a3.862 3.862 0 0 0-7.646.776c0 .676.19 1.304.496 1.857L18.896 23.405c-.239-.036-.479-.073-.729-.073a4.833 4.833 0 0 0-4.833 4.834c0 1.788.982 3.332 2.426 4.168L7.01 54.818c-.223-.031-.445-.068-.677-.068a4.833 4.833 0 0 0-1.845 9.299L4.162 87.48C2.32 88.164 1 89.921 1 92.001a4.833 4.833 0 0 0 4.833 4.834c2.442 0 4.441-1.817 4.766-4.172l40.078-2.649a4.403 4.403 0 0 0 3.985 2.545 4.366 4.366 0 0 0 2.695-.941l19.896 6.713a3.843 3.843 0 0 0 3.338 1.954 3.862 3.862 0 0 0 3.783-4.639l9.846-24.393a4.403 4.403 0 0 0 3.75-4.35c.003-2.193-1.601-3.999-3.697-4.342zM51.657 39.797L67.333 60a5.433 5.433 0 0 0-1.024 1.918l-30.252-2.072a4.815 4.815 0 0 0-.738-1.214l11.368-18.284a5.874 5.874 0 0 0 4.97-.551zm1.984-1.987a5.932 5.932 0 0 0 .7-1.763l28.458-1.763c.188.562.479 1.07.854 1.511L72.047 58.029c-.16-.014-.314-.049-.479-.049-.711 0-1.385.146-2.008.391L53.641 37.81zm11.818-22.513a5.348 5.348 0 0 0 4.18.874l13.624 14.215a4.54 4.54 0 0 0-.589 1.399l-28.312 1.762a5.892 5.892 0 0 0-.963-2.227l12.06-16.023zM42.395 6.091l20.812 4.433c-.01.128-.039.25-.039.379 0 .813.193 1.577.518 2.268L51.354 29.522a5.854 5.854 0 0 0-2.249-.664 5.366 5.366 0 0 0-.827-.065c-.183 0-.354.036-.531.054L41.208 7.362a3.86 3.86 0 0 0 1.187-1.271zm-4.431 1.733c.173.052.349.096.531.124l6.653 21.823a5.497 5.497 0 0 0-2.151 3.043c-.03.086-.06.171-.086.259L22.92 27.378a4.797 4.797 0 0 0-1.559-2.814l16.603-16.74zM22.583 30.117l20.178 5.65a5.891 5.891 0 0 0 1.782 3.295L33.291 57.159a4.795 4.795 0 0 0-1.708-.326c-.123 0-.238.026-.358.036l-10.108-24.9a4.831 4.831 0 0 0 1.466-1.852zm-4.399 2.88c.218 0 .426-.035.636-.064l10.043 24.74a4.83 4.83 0 0 0-1.904 2.663l-15.881-1.637a4.8 4.8 0 0 0-1.767-2.897l8.873-22.805zM8.293 87.859a4.835 4.835 0 0 0-1.358-.555l.301-22.979a4.816 4.816 0 0 0 3.636-3.137l16.04 1.652c.144.573.38 1.108.709 1.58L8.293 87.859zm42.045-.586l-40.156 2.652c-.042-.089-.092-.173-.14-.259l19.494-23.638a4.78 4.78 0 0 0 2.047.471c.438 0 .853-.077 1.256-.186L50.95 85.775a4.351 4.351 0 0 0-.612 1.498zm6.122-3.153a4.384 4.384 0 0 0-1.797-.39c-.558 0-1.083.112-1.573.302L35.199 64.844a4.78 4.78 0 0 0 1.12-2.215l29.865 2.047c.142.646.397 1.248.743 1.787L56.46 84.12zm20.455 11.182l-17.99-6.071c.089-.35.15-.709.15-1.086a4.346 4.346 0 0 0-.583-2.154L68.96 68.332c.78.422 1.658.684 2.606.684.065 0 .129-.018.191-.02l6.979 24.056a3.842 3.842 0 0 0-1.821 2.25zm5.532-2.25a3.84 3.84 0 0 0-.975-.384l-7.06-24.465a5.51 5.51 0 0 0 2.519-3.455L89.5 68.635a4.418 4.418 0 0 0 1.947 2.122l-9 22.295zm6.828-27.168L76.85 61.99a5.49 5.49 0 0 0-2.146-3.022l11.295-21.707c-1.457-.511.734.156 1.127.156.035 0 .068-.01.104-.01l4.317 25.589a4.4 4.4 0 0 0-2.272 2.888z"></path>
        </g>
    </g>
</svg>