<svg width="32" height="32" viewBox="0 0 32 32" fill="none" xmlns="http://www.w3.org/2000/svg">
<circle cx="16" cy="16" r="12.5" stroke="white"/>
<path fill-rule="evenodd" clip-rule="evenodd" d="M16.0002 8.22244C15.3866 8.22244 14.8891 8.7199 14.8891 9.33355C14.8891 9.63196 15.0068 9.90289 15.1982 10.1025C15.2039 10.1078 15.2096 10.1132 15.2152 10.1188C15.2208 10.1244 15.2262 10.1301 15.2315 10.1359C15.4311 10.3271 15.702 10.4447 16.0002 10.4447C16.2984 10.4447 16.5692 10.3272 16.7688 10.136C16.7741 10.1302 16.7796 10.1244 16.7853 10.1188C16.7909 10.1132 16.7966 10.1077 16.8024 10.1024C16.9938 9.90276 17.1113 9.63189 17.1113 9.33355C17.1113 8.7199 16.6139 8.22244 16.0002 8.22244ZM13.778 9.33355C13.778 9.74581 13.8903 10.1318 14.0859 10.4628L10.4617 14.0885C10.131 13.8933 9.74538 13.7812 9.33355 13.7812C8.10625 13.7812 7.11133 14.7762 7.11133 16.0035C7.11133 17.2308 8.10625 18.2257 9.33355 18.2257C9.74596 18.2257 10.1321 18.1134 10.4631 17.9176L14.0857 21.539C13.8902 21.8698 13.778 22.2558 13.778 22.6679C13.778 23.8952 14.7729 24.8901 16.0002 24.8901C17.2275 24.8901 18.2225 23.8952 18.2225 22.6679C18.2225 22.2558 18.1103 21.8698 17.9147 21.539L21.5373 17.9176C21.8683 18.1133 22.2545 18.2257 22.6669 18.2257C23.8942 18.2257 24.8891 17.2308 24.8891 16.0035C24.8891 14.7762 23.8942 13.7812 22.6669 13.7812C22.2551 13.7812 21.8694 13.8933 21.5387 14.0885L17.9146 10.4628C18.1102 10.1319 18.2225 9.74581 18.2225 9.33355C18.2225 8.10625 17.2275 7.11133 16.0002 7.11133C14.7729 7.11133 13.778 8.10625 13.778 9.33355ZM21.87 15.2292C21.874 15.2254 21.878 15.2216 21.8819 15.2177C21.8857 15.2138 21.8895 15.2099 21.8933 15.2059C22.0933 15.0118 22.3661 14.8924 22.6669 14.8924C23.2805 14.8924 23.778 15.3898 23.778 16.0035C23.778 16.6171 23.2805 17.1146 22.6669 17.1146C22.3729 17.1146 22.1056 17.0004 21.9069 16.814C21.899 16.805 21.8907 16.7961 21.882 16.7875C21.8734 16.7789 21.8646 16.7706 21.8556 16.7627C21.6697 16.5641 21.5558 16.2971 21.5558 16.0035C21.5558 15.7024 21.6755 15.4293 21.87 15.2292ZM20.7528 14.8739L17.1287 11.2483C16.798 11.4437 16.4122 11.5558 16.0002 11.5558C15.5883 11.5558 15.2025 11.4437 14.8717 11.2483L11.2477 14.8739C11.4434 15.2049 11.5558 15.5911 11.5558 16.0035C11.5558 16.4153 11.4438 16.8009 11.2485 17.1316L14.8714 20.7533C15.2022 20.5578 15.5881 20.4457 16.0002 20.4457C16.4123 20.4457 16.7982 20.5578 17.129 20.7533L20.7519 17.1316C20.5567 16.8009 20.4447 16.4153 20.4447 16.0035C20.4447 15.5911 20.557 15.2049 20.7528 14.8739ZM14.8891 22.6679C14.8891 22.3702 15.0062 22.0999 15.1967 21.9005C15.203 21.8947 15.2092 21.8888 15.2153 21.8827C15.2214 21.8766 15.2272 21.8705 15.2329 21.8643C15.4324 21.6738 15.7026 21.5568 16.0002 21.5568C16.2977 21.5568 16.568 21.6737 16.7674 21.8641C16.7731 21.8704 16.779 21.8766 16.7851 21.8827C16.7912 21.8888 16.7975 21.8948 16.8038 21.9006C16.9943 22.1 17.1113 22.3703 17.1113 22.6679C17.1113 23.2815 16.6139 23.779 16.0002 23.779C15.3866 23.779 14.8891 23.2815 14.8891 22.6679ZM10.1071 15.2059L10.1186 15.2177L10.1305 15.2292C10.3249 15.4293 10.4447 15.7024 10.4447 16.0035C10.4447 16.2971 10.3308 16.564 10.1448 16.7627C10.1358 16.7706 10.127 16.7789 10.1184 16.7875C10.1098 16.7961 10.1015 16.805 10.0935 16.8141C9.89477 17.0004 9.62749 17.1146 9.33355 17.1146C8.7199 17.1146 8.22244 16.6171 8.22244 16.0035C8.22244 15.3898 8.7199 14.8924 9.33355 14.8924C9.63427 14.8924 9.90708 15.0118 10.1071 15.2059ZM16.0002 14.8924C15.3866 14.8924 14.8891 15.3898 14.8891 16.0035C14.8891 16.6171 15.3866 17.1146 16.0002 17.1146C16.6139 17.1146 17.1113 16.6171 17.1113 16.0035C17.1113 15.3898 16.6139 14.8924 16.0002 14.8924ZM13.778 16.0035C13.778 14.7762 14.7729 13.7812 16.0002 13.7812C17.2275 13.7812 18.2225 14.7762 18.2225 16.0035C18.2225 17.2308 17.2275 18.2257 16.0002 18.2257C14.7729 18.2257 13.778 17.2308 13.778 16.0035Z" fill="white"/>
</svg>
