<?xml version="1.0" encoding="utf-8"?>
<!-- Generator: Adobe Illustrator 26.1.0, SVG Export Plug-In . SVG Version: 6.00 Build 0)  -->
<svg version="1.1" id="Layer_1"
	xmlns="http://www.w3.org/2000/svg"
	xmlns:xlink="http://www.w3.org/1999/xlink" x="0px" y="0px" viewBox="0 0 56 57" style="enable-background:new 0 0 56 57;" xml:space="preserve">
	<style type="text/css">
	.st0a{fill-rule:evenodd;clip-rule:evenodd;stroke:#469EA2; stroke-width:3px;fill: transparent;}
	.st1a{fill-rule:evenodd;clip-rule:evenodd;fill:#EFEFEF;}
	</style>
	<path class="st0a" d="M28,5L7.1,16.2v24.9L28,52.3l20.9-11.2V16.2L28,5z"/>
	<path class="st1a" d="M32.8,27.4h-9.7v1.8h9.7V27.4z"/>
	<path class="st1a" d="M32.9,25c0.9,0,1.7,0.4,2.4,1c0.6,0.6,1,1.5,1,2.4s-0.4,1.7-1,2.4c-0.6,0.6-1.5,1-2.4,1h-3.9v1.8h3.9
	c1.4,0,2.7-0.5,3.6-1.5c1-1,1.5-2.3,1.5-3.6s-0.5-2.7-1.5-3.6c-1-1-2.3-1.5-3.6-1.5h-3.9V25H32.9z"/>
	<path class="st1a" d="M27.1,23.2h-3.9c-1.4,0-2.7,0.5-3.6,1.5c-1,1-1.5,2.3-1.5,3.6s0.5,2.7,1.5,3.6c1,1,2.3,1.5,3.6,1.5h3.9v-1.8
	h-3.9c-0.9,0-1.7-0.4-2.4-1c-0.6-0.6-1-1.5-1-2.4s0.4-1.7,1-2.4c0.6-0.6,1.5-1,2.4-1h3.9V23.2z"/>
</svg>
