<svg width="24" height="24" viewBox="0 0 24 24" fill="none" xmlns="http://www.w3.org/2000/svg">
<path d="M6.94191 22C6.80731 22 6.67824 21.9463 6.58307 21.8509L2.14804 17.4043C2.08054 17.3364 2.03355 17.2508 2.01248 17.1573C1.99141 17.0638 1.99711 16.9662 2.02894 16.8758C2.06076 16.7855 2.11741 16.7059 2.19236 16.6464C2.26731 16.5869 2.35751 16.5498 2.45257 16.5394L7.44186 15.9838C7.51737 15.9758 7.59373 15.9848 7.66531 16.0102C7.73689 16.0356 7.80186 16.0768 7.85544 16.1308C7.90902 16.1847 7.94983 16.2501 7.97488 16.3219C7.99993 16.3938 8.00857 16.4704 8.00017 16.546L7.44592 21.5467C7.43206 21.6711 7.37293 21.786 7.27986 21.8694C7.18678 21.9529 7.06628 21.999 6.94141 21.999L6.94191 22Z" fill="#76B5B5"/>
<path d="M15.0261 8.93019C13.4456 7.30234 12.3777 5.24445 11.9554 3.01274C11.9452 3.01732 11.9346 3.02088 11.9239 3.02597C10.1058 2.35491 7.49953 2.4302 6.02761 3.90613C5.96572 3.96816 5.92087 4.04518 5.89744 4.12971C5.874 4.21424 5.87277 4.30341 5.89387 4.38856C5.91497 4.4737 5.95767 4.55194 6.01783 4.61565C6.078 4.67937 6.15358 4.72642 6.23723 4.75221C7.10794 5.08273 7.84959 5.68505 8.35273 6.47031C5.61598 11.0171 6.94477 16.3861 7.00364 16.6171C7.02628 16.7052 7.07208 16.7857 7.13627 16.85C7.20045 16.9143 7.28067 16.9602 7.36858 16.9829C8.50506 17.2459 9.66833 17.3748 10.8347 17.367C13.3654 17.367 16.8071 16.7672 19.4951 14.0718C20.0199 13.5445 20.467 12.9449 20.8229 12.2911C18.6151 11.7363 16.6067 10.5719 15.0261 8.93019Z" fill="#335262"/>
<path d="M21.4072 2.90451C21.3825 2.82448 21.3384 2.75181 21.2789 2.69297C21.2194 2.63413 21.1463 2.59092 21.0662 2.5672C20.8525 2.50411 15.8921 1.07448 11.957 3.01084C12.3794 5.24255 13.4473 7.30044 15.0277 8.92829C16.6088 10.5689 18.6171 11.7322 20.8246 12.2861C23.0197 8.28419 21.4844 3.15584 21.4072 2.90451Z" fill="#76B5B5"/>
<path d="M16.8608 6.10977C17.4214 6.10977 17.8759 5.6542 17.8759 5.09224C17.8759 4.53027 17.4214 4.07471 16.8608 4.07471C16.3002 4.07471 15.8457 4.53027 15.8457 5.09224C15.8457 5.6542 16.3002 6.10977 16.8608 6.10977Z" fill="white"/>
</svg>
