<svg xmlns="http://www.w3.org/2000/svg" height="24" width="24" viewBox="0 0 24 24"><title>fishbone</title><g stroke-linecap="round" stroke-width="1.5" fill="none" stroke-linejoin="round" class="nc-icon-wrapper"><polyline data-cap="butt" points="7.69 16.32 6.898 21.863 2.146 17.112 7.69 16.32" ></polyline> <path d="M9.9,4.628a12.278,12.278,0,0,0,9.481,9.481" ></path> <path d="M7.323,9.765a12.3,12.3,0,0,0,6.921,6.922" ></path> <line data-cap="butt" x1="16.4" y1="7.61" x2="7.69" y2="16.32" ></line> <path d="M21.151,2.858a14.756,14.756,0,0,0-7.8-.308A12.259,12.259,0,0,0,16.4,7.61a12.273,12.273,0,0,0,5.048,3.046A15.08,15.08,0,0,0,21.151,2.858Z"></path></g></svg>