<svg width="18" height="16" viewBox="0 0 18 16" fill="none" xmlns="http://www.w3.org/2000/svg">
<path fill-rule="evenodd" clip-rule="evenodd" d="M0.525391 0.236328H1.17539H6.8661H7.1911L7.3861 0.496328L9.32512 3.08168H16.8248H17.4748V3.73168V13.6904C17.4748 14.2401 17.2565 14.7673 16.8678 15.156C16.4791 15.5447 15.9519 15.7631 15.4022 15.7631H2.59807C2.04836 15.7631 1.52117 15.5447 1.13246 15.156C0.743762 14.7673 0.525391 14.2401 0.525391 13.6904V0.886328V0.236328ZM1.82539 1.53633V13.6904C1.82539 13.8953 1.9068 14.0919 2.0517 14.2368C2.19661 14.3817 2.39314 14.4631 2.59807 14.4631H15.4022C15.6071 14.4631 15.8036 14.3817 15.9485 14.2368C16.0934 14.0919 16.1748 13.8953 16.1748 13.6904V4.38168H9.00012H8.67512L8.48012 4.12168L6.5411 1.53633H1.82539Z" fill="black"/>
</svg>
