<svg width="22" height="22" viewBox="0 0 22 22" fill="none" xmlns="http://www.w3.org/2000/svg">
<path fill-rule="evenodd" clip-rule="evenodd" d="M0.375 11C0.375 5.13197 5.13197 0.375 11 0.375C16.868 0.375 21.625 5.13197 21.625 11C21.625 16.868 16.868 21.625 11 21.625C5.13197 21.625 0.375 16.868 0.375 11ZM20.375 11C20.375 5.82233 16.1777 1.625 11 1.625C5.82233 1.625 1.625 5.82233 1.625 11C1.625 16.1777 5.82233 20.375 11 20.375C16.1777 20.375 20.375 16.1777 20.375 11ZM11 15.375C10.4038 15.375 9.92045 15.8583 9.92045 16.4545C9.92045 17.0508 10.4038 17.5341 11 17.5341C11.5962 17.5341 12.0795 17.0508 12.0795 16.4545C12.0795 15.8583 11.5962 15.375 11 15.375ZM14.4312 5.91327C13.4386 4.30688 10.7373 4.05305 8.47447 5.05386L7.90288 5.30667L8.40849 6.44985L8.98008 6.19705L9.18429 6.11151C10.8946 5.43439 12.797 5.64663 13.3679 6.57037C13.9866 7.57166 13.6049 8.81585 12.3222 9.90104C10.8667 11.1325 10.375 12.0144 10.375 13.2727V13.8977H11.625V13.2727L11.628 13.1334C11.662 12.3579 12.0002 11.8108 13.1296 10.8553L13.3084 10.6987C14.8789 9.27387 15.3852 7.45712 14.4312 5.91327Z" fill="white"/>
</svg>
