<svg width="4" height="20" viewBox="0 0 4 20" fill="none" xmlns="http://www.w3.org/2000/svg">
<path fill-rule="evenodd" clip-rule="evenodd" d="M2.24213 4.03211C1.30047 4.03211 0.537109 3.26875 0.537109 2.32709C0.537109 1.38543 1.30047 0.62207 2.24213 0.62207C3.18378 0.62207 3.94715 1.38543 3.94715 2.32709C3.94715 3.26875 3.18378 4.03211 2.24213 4.03211ZM0.537109 9.99994C0.537109 10.9416 1.30047 11.705 2.24213 11.705C3.18378 11.705 3.94715 10.9416 3.94715 9.99994C3.94715 9.05828 3.18378 8.29492 2.24213 8.29492C1.30047 8.29492 0.537109 9.05828 0.537109 9.99994ZM0.537109 17.6728C0.537109 18.6144 1.30047 19.3778 2.24213 19.3778C3.18378 19.3778 3.94715 18.6144 3.94715 17.6728C3.94715 16.7311 3.18378 15.9678 2.24213 15.9678C1.30047 15.9678 0.537109 16.7311 0.537109 17.6728Z" fill="white"/>
</svg>
