<svg width="25" height="25" viewBox="0 0 25 25" fill="none" xmlns="http://www.w3.org/2000/svg">
<g clip-path="url(#clip0_2373_181931)">
<path d="M9.06842 18.4058C10.104 18.4058 10.9434 17.5663 10.9434 16.5308C10.9434 15.4952 10.104 14.6558 9.06842 14.6558C8.03289 14.6558 7.19342 15.4952 7.19342 16.5308C7.19342 17.5663 8.03289 18.4058 9.06842 18.4058Z" stroke="white" stroke-width="1.25" stroke-miterlimit="10" stroke-linecap="round" stroke-linejoin="round"/>
<path d="M22.1934 3.40576H18.4434L10.6809 11.1683C10.1672 11.0145 9.63217 10.9058 9.06842 10.9058C5.96217 10.9058 3.44342 13.4245 3.44342 16.5308C3.44342 19.637 5.96217 22.1558 9.06842 22.1558C12.1747 22.1558 14.6934 19.637 14.6934 16.5308C14.6934 15.967 14.5847 15.432 14.4309 14.9183L17.1934 12.1558V8.40576H20.9434L22.1934 7.15576V3.40576Z" stroke="white" stroke-width="1.25" stroke-miterlimit="10" stroke-linecap="round" stroke-linejoin="round"/>
</g>
<defs>
<clipPath id="clip0_2373_181931">
<rect width="20" height="20" fill="white" transform="translate(2.81842 2.78076)"/>
</clipPath>
</defs>
</svg>
