<?xml version="1.0" encoding="UTF-8"?>
<svg xmlns="http://www.w3.org/2000/svg" xmlns:xlink="http://www.w3.org/1999/xlink" width="100px" height="42px" viewBox="0 0 100 42" version="1.1">
<g id="surface1">
<path style=" stroke:none;fill-rule:nonzero;fill:rgb(0%,0%,0%);fill-opacity:1;" d="M 23.808594 19.992188 L 22.871094 19.992188 C 22.496094 23.847656 21.972656 28.535156 15.371094 28.535156 L 12.332031 28.535156 C 10.570312 28.535156 10.496094 28.269531 10.496094 27.023438 L 10.496094 6.949219 C 10.496094 5.664062 10.496094 5.136719 14.019531 5.136719 L 15.257812 5.136719 L 15.257812 4.003906 C 13.910156 4.117188 10.535156 4.117188 8.996094 4.117188 C 7.535156 4.117188 4.609375 4.117188 3.332031 4.003906 L 3.332031 5.136719 L 4.195312 5.136719 C 7.082031 5.136719 7.160156 5.550781 7.160156 6.914062 L 7.160156 26.757812 C 7.160156 28.117188 7.082031 28.535156 4.195312 28.535156 L 3.332031 28.535156 L 3.332031 29.707031 L 22.796875 29.707031 Z M 23.808594 19.992188 "/>
<path style=" stroke:none;fill-rule:nonzero;fill:rgb(0%,0%,0%);fill-opacity:1;" d="M 23.171875 3.964844 C 23.019531 3.511719 22.945312 3.359375 22.457031 3.359375 C 21.972656 3.359375 21.859375 3.511719 21.707031 3.964844 L 15.671875 19.386719 C 15.410156 20.03125 14.957031 21.203125 12.632812 21.203125 L 12.632812 22.148438 L 18.445312 22.148438 L 18.445312 21.203125 C 17.285156 21.203125 16.570312 20.671875 16.570312 19.917969 C 16.570312 19.726562 16.609375 19.652344 16.683594 19.386719 C 16.683594 19.386719 17.957031 16.136719 17.957031 16.136719 L 25.382812 16.136719 L 26.882812 19.992188 C 26.957031 20.144531 27.035156 20.332031 27.035156 20.445312 C 27.035156 21.203125 25.609375 21.203125 24.894531 21.203125 L 24.894531 22.148438 L 32.285156 22.148438 L 32.285156 21.203125 L 31.757812 21.203125 C 29.996094 21.203125 29.808594 20.9375 29.546875 20.179688 C 29.546875 20.179688 23.171875 3.964844 23.171875 3.964844 Z M 21.671875 6.648438 L 25.007812 15.191406 L 18.332031 15.191406 Z M 21.671875 6.648438 "/>
<path style=" stroke:none;fill-rule:nonzero;fill:rgb(0%,0%,0%);fill-opacity:1;" d="M 53.207031 4.230469 L 30.371094 4.230469 C 30.371094 4.230469 29.695312 12.695312 29.695312 12.695312 L 30.597656 12.695312 C 31.121094 6.609375 31.683594 5.363281 37.347656 5.363281 C 38.019531 5.363281 38.996094 5.363281 39.371094 5.4375 C 40.160156 5.589844 40.160156 6.007812 40.160156 6.875 L 40.160156 26.71875 C 40.160156 28.003906 40.160156 28.535156 36.222656 28.535156 L 34.722656 28.535156 L 34.722656 29.707031 C 36.257812 29.59375 40.046875 29.59375 41.769531 29.59375 C 43.496094 29.59375 47.359375 29.59375 48.894531 29.707031 L 48.894531 28.535156 L 47.394531 28.535156 C 43.457031 28.535156 43.457031 28.003906 43.457031 26.71875 L 43.457031 6.875 C 43.457031 6.121094 43.457031 5.589844 44.132812 5.4375 C 44.546875 5.363281 45.558594 5.363281 46.269531 5.363281 C 51.894531 5.363281 52.457031 6.609375 52.984375 12.695312 L 53.921875 12.695312 C 53.921875 12.695312 53.207031 4.230469 53.207031 4.230469 Z M 53.207031 4.230469 "/>
<path style=" stroke:none;fill-rule:nonzero;fill:rgb(0%,0%,0%);fill-opacity:1;" d="M 73.308594 28.496094 L 72.371094 28.496094 C 71.433594 34.28125 70.570312 37.039062 64.160156 37.039062 L 59.207031 37.039062 C 57.445312 37.039062 57.371094 36.773438 57.371094 35.527344 L 57.371094 25.472656 L 60.707031 25.472656 C 64.347656 25.472656 64.757812 26.683594 64.757812 29.894531 L 65.695312 29.894531 L 65.695312 19.917969 L 64.757812 19.917969 C 64.757812 23.128906 64.347656 24.300781 60.707031 24.300781 L 57.371094 24.300781 L 57.371094 15.265625 C 57.371094 14.019531 57.445312 13.753906 59.207031 13.753906 L 64.007812 13.753906 C 69.746094 13.753906 70.722656 15.835938 71.320312 21.089844 L 72.257812 21.089844 L 71.207031 12.621094 L 50.207031 12.621094 L 50.207031 13.753906 L 51.070312 13.753906 C 53.957031 13.753906 54.035156 14.171875 54.035156 15.53125 L 54.035156 35.261719 C 54.035156 36.625 53.957031 37.039062 51.070312 37.039062 L 50.207031 37.039062 L 50.207031 38.210938 L 71.734375 38.210938 Z M 73.308594 28.496094 "/>
<path style=" stroke:none;fill-rule:nonzero;fill:rgb(0%,0%,0%);fill-opacity:1;" d="M 84.597656 15.152344 L 89.734375 7.59375 C 90.519531 6.382812 91.796875 5.175781 95.132812 5.136719 L 95.132812 4.003906 L 86.207031 4.003906 L 86.207031 5.136719 C 87.707031 5.175781 88.535156 6.007812 88.535156 6.875 C 88.535156 7.253906 88.457031 7.328125 88.195312 7.746094 C 88.195312 7.746094 83.921875 14.09375 83.921875 14.09375 L 79.121094 6.835938 C 79.046875 6.722656 78.859375 6.421875 78.859375 6.269531 C 78.859375 5.816406 79.683594 5.175781 81.257812 5.136719 L 81.257812 4.003906 C 79.984375 4.117188 77.246094 4.117188 75.820312 4.117188 C 74.660156 4.117188 72.332031 4.078125 70.945312 4.003906 L 70.945312 5.136719 L 71.660156 5.136719 C 73.722656 5.136719 74.433594 5.402344 75.144531 6.460938 C 75.144531 6.460938 82.007812 16.929688 82.007812 16.929688 L 75.894531 26.039062 C 75.371094 26.796875 74.246094 28.535156 70.496094 28.535156 L 70.496094 29.707031 L 79.421875 29.707031 L 79.421875 28.535156 C 77.695312 28.496094 77.058594 27.476562 77.058594 26.796875 C 77.058594 26.457031 77.171875 26.304688 77.433594 25.890625 L 82.722656 17.988281 L 88.644531 26.984375 C 88.722656 27.136719 88.832031 27.289062 88.832031 27.402344 C 88.832031 27.855469 88.007812 28.496094 86.394531 28.535156 L 86.394531 29.707031 C 87.707031 29.59375 90.445312 29.59375 91.832031 29.59375 C 93.410156 29.59375 95.132812 29.632812 96.707031 29.707031 L 96.707031 28.535156 L 95.996094 28.535156 C 94.046875 28.535156 93.257812 28.347656 92.472656 27.175781 C 92.472656 27.175781 84.597656 15.152344 84.597656 15.152344 Z M 84.597656 15.152344 "/>
</g>
</svg>
