<svg width="24" height="24" viewBox="0 0 24 24" fill="none" xmlns="http://www.w3.org/2000/svg">
<path d="M17.1039 8.75583L12 12.839L6.89608 8.75583C6.77643 8.66008 6.63909 8.58884 6.49191 8.54616C6.34472 8.50349 6.19058 8.49022 6.03826 8.50712C5.88595 8.52402 5.73846 8.57075 5.60421 8.64465C5.46996 8.71855 5.35158 8.81817 5.25583 8.93782C5.16008 9.05747 5.08883 9.19481 5.04616 9.342C5.00348 9.48918 4.99022 9.64333 5.00712 9.79564C5.02402 9.94795 5.07075 10.0954 5.14465 10.2297C5.21855 10.3639 5.31817 10.4823 5.43782 10.5781L11.2709 15.2445C11.4778 15.4102 11.7349 15.5004 12 15.5004C12.2651 15.5004 12.5222 15.4102 12.7291 15.2445L18.5622 10.5781C18.8038 10.3847 18.9587 10.1032 18.9929 9.79564C19.027 9.48804 18.9375 9.17947 18.7442 8.93782C18.6484 8.81817 18.53 8.71855 18.3958 8.64465C18.2615 8.57075 18.114 8.52402 17.9617 8.50712C17.6541 8.47299 17.3456 8.56246 17.1039 8.75583V8.75583Z" />
</svg>
