<svg width="14" height="14" viewBox="0 0 14 14" fill="none" xmlns="http://www.w3.org/2000/svg">
<path d="M8.66406 8.56673L4.08687 8.56673V7.90007L8.73448 7.90007L7.27794 6.4704L7.74494 5.99463L9.99205 8.20029L7.66926 10.4724L7.20308 9.99582L8.66406 8.56673Z" fill="white"/>
<path fill-rule="evenodd" clip-rule="evenodd" d="M0.306763 0.875H5.50933L7.21654 3.15128H13.693V11.5516C13.693 11.9684 13.5274 12.3681 13.2327 12.6628C12.938 12.9575 12.5383 13.1231 12.1215 13.1231H1.87824C1.46146 13.1231 1.06175 12.9575 0.767037 12.6628C0.472328 12.3681 0.306763 11.9684 0.306763 11.5516V0.875ZM1.17343 1.74167V11.5516C1.17343 11.7385 1.24769 11.9178 1.37986 12.05C1.51204 12.1822 1.69131 12.2564 1.87824 12.2564H12.1215C12.3084 12.2564 12.4877 12.1822 12.6199 12.05C12.7521 11.9178 12.8263 11.7385 12.8263 11.5516V4.01795H6.78321L5.076 1.74167H1.17343Z" fill="white"/>
</svg>
