<svg width="17" height="17" viewBox="0 0 17 17" fill="none" xmlns="http://www.w3.org/2000/svg">
<path fill-rule="evenodd" clip-rule="evenodd" d="M14.6543 2.62611C14.1682 2.14 13.3797 2.14 12.8936 2.62611L12.5132 3.00648C12.8976 3.1592 13.2605 3.39641 13.5718 3.70771C13.884 4.01983 14.1206 4.38367 14.2726 4.76859L14.6543 4.38684C15.1404 3.90074 15.1404 3.11221 14.6543 2.62611ZM13.1763 5.8649C13.2008 5.47623 13.0414 5.00428 12.6583 4.62124C12.2748 4.23776 11.8052 4.07737 11.4188 4.10089L4.56375 10.9559C4.94809 11.1087 5.31095 11.3459 5.6222 11.6571C5.93437 11.9693 6.17106 12.3332 6.32301 12.7182L13.1763 5.8649ZM3.12824 12.7428C3.27282 12.4024 3.39693 12.1745 3.48562 12.0494C3.86882 12.0314 4.33063 12.1926 4.70867 12.5706C5.08613 12.9481 5.24651 13.4119 5.22759 13.7972C5.10174 13.8858 4.87496 14.0089 4.53759 14.1522C4.12872 14.3258 3.63876 14.4962 3.15921 14.6478C2.8964 14.7308 2.63996 14.8072 2.40618 14.8742C2.47326 14.6405 2.54961 14.384 2.63265 14.1212C2.78418 13.6417 2.95461 13.1517 3.12824 12.7428ZM1.49131 15.7891C0.863856 15.6356 0.863871 15.6355 0.863889 15.6355L0.863941 15.6353L0.864104 15.6346L0.864668 15.6323L0.866732 15.6239L0.874527 15.5926C0.881322 15.5654 0.891278 15.5258 0.904154 15.4755C0.929897 15.3748 0.96735 15.2308 1.01457 15.056C1.10885 14.7068 1.24277 14.2319 1.40076 13.732C1.55808 13.2341 1.74263 12.7005 1.93909 12.2379C2.12327 11.8041 2.35637 11.3363 2.63911 11.0535L11.9801 1.71258C12.9707 0.721947 14.5772 0.721947 15.5678 1.71258C16.5585 2.70321 16.5585 4.30974 15.5678 5.30037L6.2269 14.6413C5.94417 14.9241 5.47629 15.1572 5.04256 15.3413C4.57993 15.5378 4.04633 15.7223 3.54847 15.8797C3.04848 16.0376 2.5736 16.1716 2.22444 16.2659C2.04959 16.3131 1.9056 16.3505 1.80493 16.3763C1.75459 16.3891 1.71504 16.3991 1.68785 16.4059L1.6565 16.4137L1.64813 16.4158L1.64584 16.4163L1.64517 16.4165L1.64496 16.4165C1.64488 16.4166 1.64482 16.4166 1.49131 15.7891ZM1.49131 15.7891L1.64482 16.4166L0.610901 16.6695L0.863856 15.6356L1.49131 15.7891Z" fill="currentColor"/>
</svg>
