<svg width="14" height="14" viewBox="0 0 14 14" fill="none" xmlns="http://www.w3.org/2000/svg">
<path fill-rule="evenodd" clip-rule="evenodd" d="M1.43683 7.0866C1.43683 4.01418 3.92751 1.5235 6.99993 1.5235C10.0723 1.5235 12.563 4.01418 12.563 7.0866C12.563 10.159 10.0723 12.6497 6.99993 12.6497C3.92751 12.6497 1.43683 10.159 1.43683 7.0866ZM6.99993 0.199219C3.19613 0.199219 0.112549 3.2828 0.112549 7.0866C0.112549 10.8904 3.19613 13.974 6.99993 13.974C10.8037 13.974 13.8873 10.8904 13.8873 7.0866C13.8873 3.2828 10.8037 0.199219 6.99993 0.199219ZM6.23538 4.27264L5.20595 3.58636V4.82358V9.35103V10.5882L6.23538 9.90196L9.63097 7.63823L10.4574 7.0873L9.63097 6.53637L6.23538 4.27264ZM8.06999 7.0873L6.53023 8.11381V6.0608L8.06999 7.0873Z" fill="white"/>
</svg>
