<svg width="48" height="25" viewBox="0 0 48 25" fill="none" xmlns="http://www.w3.org/2000/svg">
<path d="M12.5522 18.813C9.00925 18.813 6.17488 15.9961 6.17488 12.4749C6.17488 8.95381 9.05987 6.1369 12.5522 6.1369C14.2731 6.1369 15.8421 6.84113 17.0062 7.94777L21.359 3.62181C19.0814 1.40853 15.994 0.0503861 12.5522 0.0503861C5.61813 8.42038e-05 0 5.58358 0 12.4749C0 19.3663 5.61813 24.9498 12.5522 24.9498C15.994 24.9498 19.0814 23.5916 21.359 21.3784L17.0062 17.0524C15.8421 18.159 14.2731 18.813 12.5522 18.813Z" fill="#00A1E0"/>
<path d="M35.3787 0C31.937 0 28.7989 1.40845 26.5213 3.62173L26.4707 3.67203L17.6133 12.4748L26.5213 21.328L26.5719 21.3783C28.8495 23.6418 31.9876 25 35.4293 25C42.3634 25 47.9816 19.4165 47.9816 12.5252C47.9816 5.6338 42.3128 0 35.3787 0ZM35.3787 18.8129C33.6579 18.8129 32.0382 18.1087 30.9247 17.002L26.3695 12.4748L30.9247 7.94769C32.0888 6.84105 33.6579 6.13682 35.3787 6.13682C38.9217 6.13682 41.7561 8.95372 41.7561 12.4748C41.7561 15.996 38.9217 18.8129 35.3787 18.8129Z" fill="#00A1E0"/>
</svg>
