<svg width="21" height="18" viewBox="0 0 21 18" fill="none" xmlns="http://www.w3.org/2000/svg">
<path d="M10.7043 0.537842C7.48435 0.537842 3.30501 1.34463 3.30501 1.34463L3.29449 1.35665C1.82793 1.5912 0.704346 2.8514 0.704346 4.384V8.99938V9.00088V13.6148V13.6163C0.705777 14.3482 0.968092 15.0557 1.44419 15.6116C1.92029 16.1676 2.57898 16.5356 3.302 16.6496L3.30501 16.6541C3.30501 16.6541 7.48435 17.4624 10.7043 17.4624C13.9243 17.4624 18.1037 16.6541 18.1037 16.6541L18.1052 16.6526C18.829 16.5389 19.4884 16.1705 19.9649 15.6139C20.4414 15.0573 20.7036 14.349 20.7043 13.6163V13.6148V9.00088V8.99938V4.384C20.7033 3.65179 20.4411 2.94396 19.965 2.38769C19.4889 1.83143 18.83 1.46319 18.1067 1.34914L18.1037 1.34463C18.1037 1.34463 13.9243 0.537842 10.7043 0.537842ZM8.39665 5.45972L14.5505 8.99938L8.39665 12.539V5.45972Z" fill="#FF0000"/>
</svg>
