<svg width="25" height="24" viewBox="0 0 25 24" fill="none" xmlns="http://www.w3.org/2000/svg">
<g id="name=binder">
<g id="company logos">
<path id="Vector" d="M14.8804 12.1258C17.4 12.1258 19.4426 10.0832 19.4426 7.56359C19.4426 5.04393 17.4 3.00134 14.8804 3.00134C12.3607 3.00134 10.3181 5.04393 10.3181 7.56359C10.3181 10.0832 12.3607 12.1258 14.8804 12.1258Z" stroke="#F5A252" stroke-width="2.31134" stroke-miterlimit="10"/>
<path id="Vector_2" d="M14.8803 21.0001C17.4003 21.0001 19.4431 18.9573 19.4431 16.4374C19.4431 13.9174 17.4003 11.8746 14.8803 11.8746C12.3604 11.8746 10.3176 13.9174 10.3176 16.4374C10.3176 18.9573 12.3604 21.0001 14.8803 21.0001Z" stroke="#579ACA" stroke-width="2.31134" stroke-miterlimit="10"/>
<path id="Vector_3" d="M10.4204 16.5969C12.9403 16.5969 14.9831 14.5541 14.9831 12.0342C14.9831 9.51424 12.9403 7.47144 10.4204 7.47144C7.90047 7.47144 5.85767 9.51424 5.85767 12.0342C5.85767 14.5541 7.90047 16.5969 10.4204 16.5969Z" stroke="#E66581" stroke-width="2.31134" stroke-miterlimit="10"/>
<path id="Vector_4" d="M11.207 13.73C11.5699 13.2371 12.039 12.8087 12.6036 12.4835C14.7867 11.2261 17.5766 11.9767 18.834 14.1603" stroke="#579ACA" stroke-width="2.31134" stroke-miterlimit="10"/>
<path id="Vector_5" d="M10.9268 9.84041C9.6693 7.6573 10.4195 4.86746 12.6035 3.60952C14.7871 2.35206 17.5765 3.10319 18.8339 5.28677" stroke="#F5A252" stroke-width="2.31134" stroke-miterlimit="10"/>
</g>
</g>
</svg>
