<svg width="24" height="24" viewBox="0 0 24 24" fill="none" xmlns="http://www.w3.org/2000/svg">
<g id="name=JupyterHub">
<path id="Vector" d="M11.9598 17.0749C8.81583 17.0749 6.07034 15.945 4.64453 14.272C5.17521 15.7729 6.16486 17.0734 7.47613 17.9939C8.78739 18.9145 10.3546 19.4084 11.9618 19.4084C13.5691 19.4084 15.1367 18.9141 16.4475 17.9939C17.7584 17.0738 18.7476 15.7729 19.2783 14.272C17.8493 15.945 15.1038 17.0749 11.9598 17.0749Z" fill="#F37726"/>
<path id="Vector_2" d="M7.63449 20.3184C7.64749 20.6146 7.57291 20.908 7.42006 21.1621C7.26725 21.4157 7.04402 21.6181 6.7768 21.7429C6.50957 21.8677 6.21674 21.9109 5.92191 21.8653C5.62708 21.8197 5.36025 21.6885 5.14382 21.4877C4.9274 21.2869 4.77499 21.0265 4.70498 20.738C4.63567 20.4497 4.65264 20.1474 4.75378 19.8687C4.85499 19.5903 5.03581 19.3487 5.27384 19.1727C5.51186 18.9966 5.79509 18.8982 6.08872 18.8862C6.48196 18.8702 6.8648 19.0118 7.15523 19.2803C7.4455 19.5498 7.61771 19.923 7.63449 20.3188V20.3184Z" fill="white"/>
<g id="Group">
<path id="Vector_3" d="M4.25091 12.5001C4.25091 13.1057 4.20301 13.3035 4.0754 13.4495C3.93621 13.5737 3.75411 13.6424 3.56519 13.6419L3.61309 14.0021C3.90586 14.006 4.18961 13.9038 4.40936 13.7153C4.6379 13.4854 4.71774 13.1676 4.71774 12.6799V10.3901H4.24982V12.5032L4.25091 12.5001Z" fill="white"/>
<path id="Vector_4" d="M11.8875 10.3877L12.4503 11.8795L12.6153 12.3972H12.6259L12.7908 11.8701L13.3016 10.3889H13.7964L13.0951 12.1891C12.76 13.0546 12.5323 13.4987 12.2132 13.7701C12.052 13.9161 11.8542 14.0185 11.6399 14.0673L11.5228 13.6813C11.6729 13.6327 11.8119 13.5565 11.9324 13.4565C12.1027 13.3181 12.2374 13.143 12.3261 12.945C12.345 12.9108 12.3576 12.8737 12.3633 12.8353C12.3591 12.7939 12.3483 12.7534 12.3313 12.7153L11.3801 10.3889H11.8908L11.8875 10.3877Z" fill="white"/>
<path id="Vector_5" d="M7.74296 12.2242L7.76418 12.9127H7.35459L7.32799 12.4984H7.31738C7.23143 12.6429 7.10709 12.7627 6.95719 12.8454C6.80764 12.9277 6.6381 12.9699 6.46623 12.9674C6.06213 12.9676 5.5791 12.748 5.5791 11.8618V10.3855H6.04725V11.7863C6.04725 12.2667 6.19606 12.5896 6.62053 12.5896C6.75373 12.5873 6.88315 12.5467 6.9928 12.4731C7.10246 12.3995 7.18723 12.296 7.23676 12.1756C7.26518 12.1003 7.27945 12.0207 7.27945 11.9406V10.3876H7.74759V12.2242H7.74296Z" fill="white"/>
<path id="Vector_6" d="M19.0652 11.1751L19.0439 10.3871H19.4532L19.4691 10.883H19.4903C19.6074 10.5435 19.8891 10.3301 20.2019 10.3301C20.2467 10.3295 20.2913 10.3348 20.3359 10.3457V10.7785C20.2835 10.7675 20.2299 10.762 20.1765 10.763C19.8469 10.763 19.6141 11.0084 19.5504 11.352C19.5372 11.4228 19.5301 11.4945 19.5292 11.5664V12.9123H19.0652V11.1751Z" fill="white"/>
<path id="Vector_7" d="M16.557 11.7327C16.5676 12.3539 16.972 12.6095 17.4389 12.6095C17.6831 12.6169 17.926 12.5724 18.1506 12.4791L18.2304 12.8074C17.9612 12.9175 17.6712 12.9707 17.3793 12.9637C16.5875 12.9637 16.1143 12.4522 16.1143 11.6903C16.1143 10.9284 16.5717 10.3289 17.3206 10.3289C18.16 10.3289 18.3845 11.0536 18.3845 11.5184C18.3837 11.5902 18.3784 11.6616 18.3686 11.7326H16.5601L16.557 11.7327ZM17.9284 11.4043C17.9338 11.1124 17.8061 10.6579 17.2805 10.6579C16.8072 10.6579 16.6006 11.0855 16.5633 11.4043H17.9294H17.9284Z" fill="white"/>
<path id="Vector_8" d="M8.62523 11.2112L8.604 10.3831H9.02421L9.04544 10.8158H9.05605C9.1477 10.6611 9.28144 10.5334 9.44283 10.4466C9.60368 10.3601 9.78612 10.318 9.97014 10.325C10.5915 10.325 11.0596 10.8426 11.0596 11.6087C11.0596 12.5167 10.4968 12.965 9.88927 12.965C9.7332 12.9713 9.57815 12.9381 9.43954 12.8686C9.30051 12.7989 9.18268 12.6955 9.09764 12.5685H9.08703V13.9403H8.62425V11.2069L8.62523 11.2112ZM9.08801 11.8841C9.08921 11.9471 9.09631 12.0098 9.10923 12.0715C9.14716 12.2242 9.23694 12.3603 9.36428 12.4581C9.49109 12.5555 9.64829 12.6086 9.81035 12.6089C10.3051 12.6089 10.5912 12.2123 10.5912 11.6337C10.5912 11.1274 10.32 10.6945 9.82645 10.6945C9.66056 10.699 9.50077 10.7575 9.3727 10.8593C9.24462 10.9611 9.15558 11.1041 9.11996 11.2618C9.10118 11.3226 9.09044 11.3856 9.08801 11.4491V11.8819V11.8841Z" fill="white"/>
<path id="Vector_9" d="M15.0252 9.66162V10.3864H15.6944V10.7361H15.0252V12.0978C15.0252 12.4085 15.1155 12.5886 15.3763 12.5886C15.4677 12.59 15.559 12.5795 15.6475 12.5575L15.6688 12.9024C15.5358 12.948 15.3949 12.9691 15.2538 12.9645C15.1602 12.97 15.0666 12.9558 14.9794 12.9225C14.8921 12.8892 14.8135 12.8378 14.7485 12.7718C14.6143 12.6363 14.5676 12.4117 14.5676 12.1144V10.7361H14.1687V10.3864H14.5676V9.78072L15.0252 9.66162Z" fill="white"/>
</g>
<path id="Vector_10" d="M11.9435 6.23891C15.0944 6.23891 17.8463 7.35831 19.2749 9.01465C18.743 7.52834 17.7512 6.24046 16.437 5.32883C15.1229 4.4172 13.5527 3.92773 11.9423 3.92773C10.3319 3.92773 8.76046 4.4172 7.44671 5.32844C6.13296 6.23969 5.14073 7.52795 4.60889 9.01426C6.04064 7.36142 8.79257 6.23891 11.9435 6.23891Z" fill="#F37726"/>
<path id="Vector_11" d="M4.99352 5.85125C4.82151 5.85925 4.65029 5.81445 4.50267 5.72404C4.35506 5.63363 4.23744 5.50082 4.16464 5.3436C4.09183 5.18638 4.06743 5.00956 4.09383 4.83755C4.12023 4.66553 4.19664 4.50471 4.31345 4.3767C4.43026 4.24868 4.58228 4.15828 4.7495 4.11667C4.91672 4.07507 5.09353 4.08547 5.25555 4.14547C5.41757 4.20548 5.55838 4.31229 5.65959 4.45351C5.77873 4.61806 5.83757 4.81862 5.8262 5.02145C5.81484 5.22428 5.73396 5.41701 5.59719 5.56722C5.44117 5.73924 5.22355 5.84085 4.99312 5.85125H4.99352Z" fill="white"/>
<path id="Vector_12" d="M18.8593 3.40807C18.8693 3.6433 18.8101 3.87612 18.6893 4.07694C18.5685 4.27777 18.3909 4.43858 18.1792 4.53779C17.9676 4.637 17.7312 4.67101 17.5012 4.635C17.2703 4.59881 17.0554 4.49463 16.8839 4.33577C16.7118 4.17624 16.5906 3.96944 16.5355 3.74131C16.4803 3.51329 16.4935 3.27326 16.5735 3.05164C16.6531 2.83121 16.7962 2.63928 16.9847 2.49998C17.1725 2.36118 17.3975 2.28164 17.6308 2.27156C17.9428 2.25835 18.2477 2.37037 18.4781 2.58359C18.7085 2.79681 18.8453 3.09324 18.8589 3.40767L18.8593 3.40807Z" fill="white"/>
</g>
</svg>
