<svg width="24" height="24" viewBox="0 0 24 24" fill="none" xmlns="http://www.w3.org/2000/svg">
<g id="name=colab">
<g id="Group">
<path id="Vector" d="M5.69582 9.8547L3.71041 7.86084C2.61513 8.95847 2 10.4458 2 11.9964C2 13.547 2.61513 15.0343 3.71041 16.132L5.70427 14.1381C5.13616 13.5707 4.81624 12.8011 4.81466 11.9982C4.81307 11.1952 5.12995 10.4244 5.69582 9.8547Z" fill="#E8710A"/>
<path id="Vector_2" d="M11.4409 16.6135L9.98772 14.1465C9.70604 14.4285 9.37152 14.6522 9.0033 14.8049C8.63509 14.9575 8.24039 15.0361 7.84179 15.0361C7.44319 15.0361 7.0485 14.9575 6.68028 14.8049C6.31206 14.6522 5.97755 14.4285 5.69586 14.1465L3.71045 16.1403C4.70347 17.1248 6.01602 17.7213 7.41067 17.822C8.80532 17.9228 10.19 17.521 11.3141 16.6895L11.4071 16.6135" fill="#F9AB00"/>
<path id="Vector_3" d="M3.71045 7.86069L5.69586 9.85455C5.97755 9.57253 6.31206 9.3488 6.68028 9.19616C7.0485 9.04351 7.44319 8.96494 7.84179 8.96494C8.24039 8.96494 8.63509 9.04351 9.0033 9.19616C9.37152 9.3488 9.70604 9.57253 9.98772 9.85455L11.4324 7.37912L11.3479 7.31153C10.2211 6.47082 8.82929 6.06367 7.42698 6.1645C6.02466 6.26533 4.70545 6.8674 3.71045 7.86069Z" fill="#F9AB00"/>
<path id="Vector_4" d="M11.9983 7.86071C10.903 8.95834 10.2878 10.4456 10.2878 11.9963C10.2878 13.5469 10.903 15.0342 11.9983 16.1318L13.9921 14.138C13.423 13.5688 13.1032 12.7969 13.1032 11.9921C13.1032 11.1872 13.423 10.4153 13.9921 9.84612C14.5613 9.27698 15.3332 8.95724 16.138 8.95724C16.9429 8.95724 17.7148 9.27698 18.284 9.84612L20.2863 7.86071C19.7425 7.31583 19.0965 6.88355 18.3854 6.58861C17.6744 6.29366 16.9121 6.14185 16.1423 6.14185C15.3724 6.14185 14.6102 6.29366 13.8991 6.58861C13.188 6.88355 12.5421 7.31583 11.9983 7.86071Z" fill="#F9AB00"/>
<path id="Vector_5" d="M20.2863 7.86084L18.3009 9.8547C18.87 10.4238 19.1898 11.1958 19.1898 12.0006C19.1898 12.8055 18.87 13.5774 18.3009 14.1466C17.7318 14.7157 16.9599 15.0354 16.155 15.0354C15.3501 15.0354 14.5782 14.7157 14.009 14.1466L11.9983 16.1404C13.0962 17.2395 14.5858 17.8574 16.1393 17.8582C16.9085 17.8586 17.6703 17.7074 18.3811 17.4134C19.0919 17.1194 19.7379 16.6883 20.2821 16.1446C20.8263 15.601 21.2581 14.9555 21.5528 14.245C21.8476 13.5345 21.9995 12.7728 21.9998 12.0036C22.0002 11.2344 21.8491 10.4726 21.5551 9.76181C21.2611 9.05099 20.83 8.40504 20.2863 7.86084Z" fill="#E8710A"/>
</g>
</g>
</svg>
