<svg width="24" height="25" viewBox="0 0 24 25" fill="none" xmlns="http://www.w3.org/2000/svg">
<path d="M7.9375 12.8887H16.0625" stroke="#28AAC4" stroke-width="1.3" stroke-miterlimit="10" stroke-linecap="square"/>
<path d="M10.125 17.2637H7C5.83968 17.2637 4.72688 16.8027 3.90641 15.9823C3.08594 15.1618 2.625 14.049 2.625 12.8887C2.625 11.7283 3.08594 10.6156 3.90641 9.79508C4.72688 8.97461 5.83968 8.51367 7 8.51367H10.125" stroke="#28AAC4" stroke-width="1.3" stroke-miterlimit="10" stroke-linecap="square"/>
<path d="M13.875 17.2637H17C18.1603 17.2637 19.2731 16.8027 20.0936 15.9823C20.9141 15.1618 21.375 14.049 21.375 12.8887C21.375 11.7283 20.9141 10.6156 20.0936 9.79508C19.2731 8.97461 18.1603 8.51367 17 8.51367H13.875" stroke="#28AAC4" stroke-width="1.3" stroke-miterlimit="10" stroke-linecap="square"/>
</svg>
