<svg width="24" height="24" viewBox="0 0 24 24" fill="none" xmlns="http://www.w3.org/2000/svg">
<path d="M21.9315 16.3815C21.8794 16.1839 21.7949 15.9965 21.6816 15.8267C21.7058 15.7372 21.7243 15.6464 21.7367 15.5547C21.8171 14.9722 21.616 14.439 21.2368 14.0263C21.0314 13.801 20.8113 13.6522 20.5781 13.5609C20.7312 12.9037 20.8086 12.2311 20.809 11.5561C20.809 11.2479 20.7917 10.946 20.7625 10.6485C20.7473 10.5 20.7289 10.3517 20.7075 10.204C20.6407 9.768 20.5416 9.33763 20.4111 8.91644C20.3255 8.63971 20.2266 8.36732 20.1146 8.10026C19.9467 7.70479 19.7507 7.32192 19.528 6.95465C19.3818 6.71036 19.2228 6.47411 19.0514 6.24695C18.9674 6.13223 18.8799 6.02022 18.7888 5.91108C18.519 5.58198 18.226 5.27294 17.9116 4.98642C17.8073 4.8901 17.7 4.79711 17.5898 4.70757C17.4813 4.61675 17.3704 4.52884 17.2573 4.44392C17.0296 4.27383 16.7942 4.11424 16.552 3.96566C15.2138 3.14987 13.6444 2.68213 11.9671 2.68213C7.08342 2.68213 3.12521 6.65504 3.12521 11.5565C3.12508 12.2399 3.20397 12.921 3.3603 13.5861C3.15055 13.6776 2.94944 13.82 2.76309 14.0261C2.38398 14.4385 2.18277 14.9699 2.26328 15.5522C2.27541 15.6448 2.29386 15.7364 2.31834 15.8265C2.20508 15.9964 2.12062 16.1839 2.06838 16.3815C1.95185 16.826 1.99021 17.2269 2.1383 17.5781C1.97739 18.0372 2.01759 18.5261 2.22725 18.9512C2.37971 19.2616 2.59791 19.5016 2.8668 19.7164C3.18658 19.9714 3.58686 20.1883 4.06977 20.3962C4.64582 20.6428 5.34888 20.8745 5.66866 20.9594C6.49466 21.1742 7.28667 21.3102 8.08945 21.3168C9.23299 21.3275 10.2179 21.0575 10.9231 20.3668C11.2694 20.4093 11.6181 20.4307 11.9671 20.4306C12.3358 20.4298 12.7041 20.4064 13.07 20.3608C13.7735 21.0559 14.7621 21.3284 15.9099 21.3173C16.7125 21.311 17.5046 21.1749 18.3284 20.9599C18.6503 20.8749 19.3532 20.6433 19.9295 20.3968C20.4124 20.1884 20.8126 19.9716 21.1346 19.7168C21.4015 19.5022 21.6195 19.2621 21.7721 18.9516C21.9838 18.5266 22.022 18.0377 21.8631 17.5785C22.0099 17.2274 22.0479 16.8256 21.9315 16.3815ZM21.112 17.5483C21.2743 17.8574 21.2847 18.2066 21.1414 18.5319C20.9243 19.0248 20.385 19.413 19.3375 19.8299C18.6862 20.0893 18.0896 20.255 18.0844 20.2565C17.2228 20.4808 16.4436 20.5946 15.7691 20.5946C14.6522 20.5946 13.8211 20.2854 13.294 19.6745C12.4027 19.8268 11.4925 19.832 10.5995 19.6898C10.0718 20.2905 9.24533 20.5946 8.13781 20.5946C7.46321 20.5946 6.68411 20.4808 5.82257 20.2565C5.81723 20.255 5.22109 20.0893 4.56949 19.8299C3.52199 19.413 2.98255 19.025 2.76552 18.5319C2.62228 18.2066 2.63267 17.8574 2.79494 17.5483C2.80999 17.5197 2.82602 17.4916 2.8432 17.4646C2.74594 17.318 2.68071 17.1523 2.65178 16.9786C2.62287 16.805 2.63092 16.627 2.6754 16.4566C2.73988 16.2108 2.87311 16.0063 3.05393 15.8594C2.96686 15.7158 2.90971 15.5559 2.88593 15.3895C2.83388 15.0275 2.95352 14.666 3.2229 14.3713C3.43255 14.142 3.72902 14.0158 4.05734 14.0158H4.06608C3.81858 13.2196 3.69308 12.3902 3.69387 11.5562C3.69387 7.00728 7.36814 3.31936 11.9008 3.31936C16.4336 3.31936 20.1078 7.00699 20.1078 11.5562C20.1084 12.3925 19.9821 13.224 19.7331 14.022C19.7727 14.0181 19.8115 14.0161 19.8496 14.0161C20.1778 14.0161 20.4744 14.1422 20.6841 14.3715C20.9532 14.666 21.0732 15.0278 21.021 15.3896C20.9972 15.5561 20.9401 15.7161 20.853 15.8597C21.0338 16.0065 21.1671 16.211 21.2316 16.4569C21.2759 16.6273 21.284 16.8051 21.2551 16.9789C21.2261 17.1526 21.161 17.3182 21.0638 17.4649C21.0809 17.4916 21.0972 17.5197 21.112 17.5483Z" fill="white"/>
<path d="M21.0638 17.4648C21.161 17.3181 21.2261 17.1525 21.2551 16.9788C21.284 16.805 21.276 16.6272 21.2316 16.4568C21.1671 16.211 21.0339 16.0065 20.8531 15.8596C20.9401 15.7159 20.9973 15.5561 21.0211 15.3896C21.0731 15.0276 20.9535 14.6661 20.6841 14.3715C20.4744 14.1422 20.1779 14.0159 19.8496 14.0159C19.8115 14.0159 19.7727 14.0179 19.7331 14.0219C19.9818 13.2238 20.1079 12.3923 20.1072 11.5562C20.1072 7.00734 16.4329 3.31934 11.9006 3.31934C7.36826 3.31934 3.6936 7.00695 3.6936 11.5562C3.69281 12.3902 3.81831 13.2195 4.06581 14.0157H4.05707C3.72885 14.0157 3.43238 14.142 3.22272 14.3713C2.95354 14.6657 2.83371 15.0274 2.88576 15.3894C2.90952 15.5559 2.96667 15.7157 3.05375 15.8594C2.87294 16.0063 2.73971 16.2108 2.67533 16.4567C2.63087 16.6271 2.62285 16.805 2.65181 16.9788C2.68076 17.1525 2.74603 17.3182 2.84332 17.4648C2.82594 17.4918 2.81001 17.5198 2.79506 17.5485C2.63289 17.8576 2.6224 18.2068 2.76564 18.532C2.98267 19.0249 3.52211 19.4133 4.56961 19.8301C5.22091 20.0894 5.81745 20.2551 5.82269 20.2567C6.68423 20.481 7.46333 20.5949 8.13784 20.5949C9.24545 20.5949 10.0718 20.2908 10.5996 19.6899C11.4926 19.8321 12.4028 19.827 13.2942 19.6746C13.8212 20.2855 14.6523 20.5949 15.7693 20.5949C16.4438 20.5949 17.223 20.481 18.0845 20.2567C18.0898 20.2551 18.686 20.0894 19.3376 19.8301C20.3851 19.4133 20.9245 19.0249 21.1416 18.532C21.2848 18.2068 21.2744 17.8576 21.1121 17.5485C21.0973 17.5195 21.081 17.4916 21.0638 17.4648ZM10.222 18.7494C10.1765 18.8292 10.1279 18.9071 10.076 18.9828C9.93958 19.1833 9.76013 19.3364 9.55193 19.4503C9.15369 19.6682 8.64979 19.7444 8.13774 19.7444C7.32903 19.7444 6.49992 19.5544 6.03516 19.4334C6.01234 19.4274 3.1866 18.6264 3.54434 17.9445C3.60455 17.8299 3.7037 17.7841 3.82839 17.7841C4.33208 17.7841 5.24928 18.5369 5.64354 18.5369C5.73152 18.5369 5.79366 18.4992 5.819 18.4075C5.987 17.8027 3.26574 17.5485 3.49492 16.6729C3.53541 16.5179 3.64504 16.455 3.79935 16.455C4.46522 16.4549 5.9599 17.6304 6.27249 17.6304C6.29648 17.6304 6.31367 17.6234 6.32299 17.6085L6.32707 17.6018C6.4737 17.3586 6.38961 17.1818 5.38435 16.5639L5.28782 16.5049C4.18176 15.8329 3.40529 15.4286 3.84693 14.9462C3.89772 14.8904 3.96968 14.8657 4.05717 14.8657C4.16098 14.8657 4.28654 14.9006 4.42482 14.959C5.00902 15.2063 5.81871 15.8807 6.15694 16.1748C6.25667 16.2619 6.31542 16.3152 6.31542 16.3152C6.31542 16.3152 6.74366 16.7621 7.00265 16.7621C7.06227 16.7621 7.11277 16.7387 7.14705 16.6803C7.33078 16.3695 5.44154 14.9327 5.33501 14.3399C5.26286 13.9382 5.3857 13.7347 5.61303 13.7347C5.72102 13.7347 5.85289 13.7808 5.99846 13.8735C6.45001 14.1613 7.32184 15.665 7.64104 16.2499C7.74805 16.446 7.93071 16.5288 8.09531 16.5288C8.42188 16.5288 8.67718 16.203 8.12522 15.7889C7.29562 15.1658 7.58675 14.1475 7.98266 14.0848C7.99956 14.0822 8.01665 14.0809 8.03364 14.0808C8.39372 14.0808 8.55259 14.7036 8.55259 14.7036C8.55259 14.7036 9.01803 15.8769 9.81771 16.6788C10.5434 17.4068 10.6447 18.0042 10.222 18.7494ZM12.8079 18.8868L12.7664 18.8918L12.6956 18.9C12.6584 18.9038 12.6212 18.9075 12.5838 18.911L12.5473 18.9143L12.5141 18.9171L12.4668 18.9209C12.4494 18.9222 12.4321 18.9235 12.4147 18.9246L12.3626 18.9281L12.3512 18.9288L12.3102 18.9312L12.2928 18.9321L12.2442 18.9346L12.1878 18.9369L12.1366 18.9387L12.1024 18.9396H12.0851C12.0744 18.9396 12.0638 18.9402 12.0531 18.9403H12.0361C12.0255 18.9403 12.0149 18.9403 12.0042 18.9409L11.9608 18.9414H11.9C11.8523 18.9414 11.8048 18.9409 11.7573 18.94L11.7189 18.9391C11.708 18.9391 11.697 18.9386 11.6862 18.9383L11.6455 18.937L11.5948 18.935L11.5492 18.9331L11.5374 18.9326L11.494 18.9303C11.4819 18.9296 11.4699 18.929 11.458 18.9282L11.4299 18.9266C11.3946 18.9243 11.3594 18.9218 11.3241 18.9191L11.2872 18.9161L11.2406 18.9121L11.1862 18.9071C11.1558 18.9042 11.1254 18.9011 11.095 18.8977H11.0935C11.5373 17.9041 11.3129 16.9761 10.4161 16.0767C9.82801 15.4872 9.43666 14.6165 9.35557 14.4254C9.19127 13.8596 8.75632 13.2307 8.03413 13.2307C7.97305 13.2308 7.91216 13.2356 7.85186 13.2452C7.53538 13.2951 7.25882 13.4779 7.0615 13.753C6.84834 13.4868 6.64102 13.2752 6.4536 13.1556C6.17102 12.9759 5.88911 12.8846 5.6143 12.8846C5.27151 12.8846 4.96494 13.026 4.7513 13.2823L4.74596 13.2888L4.73392 13.2381L4.73343 13.2359C4.6928 13.0615 4.65867 12.8854 4.63108 12.7084C4.63108 12.7072 4.63108 12.706 4.6305 12.7048L4.62448 12.6648C4.62122 12.6431 4.61805 12.6214 4.61496 12.5998C4.61243 12.5817 4.60991 12.5637 4.60758 12.5458C4.60525 12.5278 4.60272 12.5098 4.60059 12.4918C4.59826 12.4736 4.59612 12.4556 4.59398 12.4376C4.59193 12.4204 4.58996 12.4033 4.58806 12.3861L4.58749 12.3817C4.57873 12.3026 4.57122 12.2233 4.56495 12.144L4.56155 12.0981C4.56058 12.0855 4.5597 12.0729 4.55893 12.0601C4.55893 12.0572 4.55854 12.0541 4.55835 12.0514L4.55515 12.0005C4.55399 11.9821 4.5531 11.9637 4.55213 11.9453C4.55116 11.9269 4.55019 11.9085 4.54941 11.89L4.54747 11.8418L4.54689 11.8271L4.54543 11.7825L4.54437 11.7447C4.54437 11.7296 4.54368 11.7144 4.54339 11.6993L4.54261 11.6516C4.54242 11.6357 4.54261 11.6199 4.54223 11.604C4.54174 11.5881 4.54223 11.5722 4.54223 11.5562C4.54223 7.47703 7.8372 4.16991 11.9017 4.16991C15.9663 4.16991 19.2612 7.47684 19.2612 11.5562V11.6516C19.2612 11.6675 19.2608 11.6835 19.2604 11.6993C19.2604 11.7125 19.2599 11.7255 19.2595 11.7387C19.2595 11.7505 19.259 11.7622 19.2585 11.7736C19.2585 11.7885 19.2577 11.8034 19.2572 11.8183V11.8195C19.2559 11.8519 19.2546 11.8843 19.2532 11.9166L19.2526 11.9273L19.2501 11.9757L19.2478 12.014C19.2423 12.1047 19.2352 12.1955 19.2266 12.286V12.2873C19.225 12.3042 19.2233 12.3213 19.2214 12.3383C19.2172 12.3777 19.2128 12.4172 19.2084 12.4567L19.2035 12.4963L19.1974 12.5429C19.1952 12.56 19.1929 12.5769 19.1905 12.5939C19.1879 12.6129 19.185 12.6318 19.1823 12.6507L19.1755 12.6954L19.1676 12.7461C19.1648 12.7629 19.1621 12.7797 19.1589 12.7965C19.1556 12.8133 19.1531 12.8301 19.1502 12.8469C19.1443 12.8805 19.1383 12.9139 19.1318 12.9473C19.1189 13.0139 19.1054 13.0803 19.0911 13.1465C19.0875 13.163 19.0838 13.1796 19.0801 13.1961C18.8729 12.994 18.5987 12.884 18.2961 12.884C18.0216 12.884 17.7394 12.9751 17.4569 13.1549C17.2694 13.2744 17.0623 13.4861 16.8489 13.7523C16.6513 13.4771 16.3747 13.2944 16.0586 13.2444C15.9983 13.2349 15.9374 13.2301 15.8763 13.23C15.1539 13.23 14.7192 13.8589 14.5548 14.4247C14.4734 14.6158 14.082 15.4864 13.4932 16.0769C12.5971 16.9733 12.371 17.8972 12.8079 18.8868ZM20.4056 16.8977L20.4027 16.9064C20.4006 16.9119 20.3986 16.9175 20.3964 16.923C20.3929 16.9312 20.3892 16.9393 20.3853 16.9474C20.3759 16.9667 20.3652 16.9854 20.3534 17.0034C20.3372 17.0276 20.3194 17.0508 20.3001 17.0727C20.2957 17.0777 20.2914 17.0827 20.2863 17.0877C20.2795 17.0952 20.2723 17.1025 20.2651 17.1098C20.1343 17.2399 19.935 17.3539 19.7097 17.4585C19.6842 17.4701 19.6583 17.4817 19.6321 17.4933L19.6061 17.5049C19.5887 17.5126 19.5714 17.5203 19.5532 17.5278C19.5354 17.5354 19.5175 17.5429 19.4997 17.5503L19.4455 17.5729C19.3188 17.6252 19.1889 17.675 19.0622 17.7243L19.0081 17.7454L18.9545 17.7664C18.919 17.7804 18.8838 17.7943 18.8491 17.8082L18.7976 17.8291L18.747 17.85L18.722 17.8604C18.7055 17.8674 18.6892 17.8742 18.6731 17.8812C18.3004 18.0417 18.0324 18.2049 18.0887 18.4076C18.0902 18.4133 18.092 18.4188 18.0939 18.424C18.099 18.439 18.1059 18.4533 18.1144 18.4665C18.1195 18.4745 18.1253 18.482 18.1318 18.4888C18.198 18.5579 18.3185 18.5469 18.4705 18.4922C18.4828 18.4877 18.4955 18.4829 18.5082 18.4778C18.5169 18.4745 18.5256 18.471 18.5343 18.4675L18.5474 18.4619C18.5822 18.4471 18.619 18.4307 18.6567 18.4126C18.6661 18.4082 18.6756 18.404 18.6851 18.3989C18.8709 18.3078 19.0815 18.1849 19.2905 18.0731C19.3225 18.0556 19.3547 18.0389 19.3866 18.0224C19.4389 17.9952 19.4916 17.969 19.5448 17.9439C19.7427 17.8505 19.9287 17.7843 20.0783 17.7843C20.1484 17.7843 20.2105 17.7987 20.2621 17.8318L20.2707 17.8376C20.2968 17.8561 20.3195 17.8788 20.3381 17.9049C20.3424 17.9111 20.3468 17.9174 20.3506 17.9239C20.3547 17.9307 20.3586 17.9376 20.3623 17.9446C20.4362 18.0853 20.3743 18.2312 20.2296 18.3742C20.0907 18.5115 19.8745 18.6461 19.6287 18.7707C19.6106 18.78 19.5922 18.7892 19.5738 18.7982C18.8424 19.1586 17.885 19.4301 17.8716 19.4335C17.6164 19.4999 17.2514 19.5871 16.8404 19.6523L16.7795 19.6618L16.7696 19.6632C16.6763 19.6773 16.5828 19.6896 16.4891 19.7004L16.4805 19.7012C16.3101 19.7207 16.1353 19.7349 15.9602 19.7408H15.9576C15.8946 19.7431 15.8318 19.7442 15.7689 19.7442H15.6964C15.6005 19.7428 15.5046 19.7386 15.409 19.7312C15.4068 19.7312 15.4044 19.7311 15.4021 19.7307C15.3679 19.728 15.3336 19.7248 15.2996 19.721C15.2409 19.7147 15.1823 19.7069 15.124 19.6977C15.1013 19.6939 15.077 19.6899 15.0536 19.6858C15.0429 19.6839 15.0323 19.6819 15.0217 19.6798L15.0192 19.6793C14.9855 19.6729 14.952 19.6658 14.9186 19.6581C14.8993 19.6537 14.8799 19.6493 14.8607 19.6441L14.8493 19.6411C14.8397 19.6388 14.8304 19.6362 14.8211 19.6337L14.816 19.6323L14.7859 19.6236C14.7751 19.6205 14.7643 19.6173 14.7534 19.6141L14.7495 19.6129L14.7213 19.6042C14.7106 19.6009 14.7 19.5974 14.6894 19.594C14.6807 19.5911 14.672 19.5881 14.6633 19.5852L14.6442 19.5785C14.6257 19.5721 14.6075 19.5653 14.5892 19.5582L14.5719 19.5515L14.5576 19.5458C14.5302 19.5347 14.5028 19.5231 14.4757 19.5109L14.4576 19.5022L14.4546 19.5008C14.4482 19.4978 14.4419 19.4948 14.4355 19.4921C14.423 19.486 14.4105 19.4798 14.3982 19.4734L14.3945 19.4716L14.3766 19.4621C14.3449 19.4456 14.3137 19.4278 14.2832 19.4089L14.2665 19.3987C14.2579 19.3934 14.25 19.3881 14.2418 19.3827L14.22 19.3682C14.2121 19.3629 14.2043 19.3576 14.1966 19.352L14.1826 19.3421C14.1679 19.3314 14.1534 19.3206 14.1391 19.3094C14.1315 19.3036 14.1241 19.2975 14.1166 19.292C14.1 19.2786 14.0838 19.2649 14.0677 19.2507L14.0671 19.2502C14.0514 19.2366 14.0362 19.2226 14.0213 19.2082L14.0205 19.2073C14.0128 19.1999 14.0052 19.1925 13.9976 19.1848C13.9901 19.1771 13.9826 19.1695 13.9753 19.1618C13.9679 19.154 13.9605 19.1461 13.9533 19.138C13.9464 19.1304 13.9396 19.1227 13.9328 19.1149L13.9304 19.1122C13.8954 19.0714 13.8625 19.0286 13.8322 18.9841L13.8201 18.9662C13.8122 18.9544 13.8043 18.9426 13.7965 18.9307L13.7736 18.8953C13.7623 18.878 13.7514 18.8606 13.7407 18.843C13.733 18.8306 13.7254 18.8181 13.718 18.8055C13.7116 18.7948 13.7053 18.7842 13.6993 18.7736C13.6959 18.7679 13.6927 18.762 13.6895 18.7562C13.6863 18.7502 13.6825 18.744 13.6791 18.7379L13.6737 18.7282C13.6718 18.725 13.6712 18.724 13.6703 18.7219C13.6637 18.7103 13.6573 18.6985 13.651 18.6865C13.6482 18.6813 13.6454 18.6761 13.6424 18.6709L13.6337 18.6542L13.625 18.6375L13.6083 18.6037C13.6056 18.5981 13.603 18.5926 13.6004 18.587C13.5946 18.575 13.5892 18.5632 13.5838 18.5514C13.5816 18.5466 13.5794 18.5419 13.5774 18.5371C13.57 18.5208 13.5629 18.5043 13.5562 18.4877C13.5516 18.4767 13.5474 18.4657 13.543 18.4548C13.5304 18.4227 13.5187 18.3902 13.5079 18.3574C13.5047 18.3476 13.5015 18.338 13.4987 18.3282C13.4917 18.3061 13.4854 18.2838 13.4797 18.2613C13.4729 18.235 13.4667 18.2085 13.4616 18.1819C13.4583 18.1662 13.4554 18.1504 13.4529 18.1346C13.4503 18.1189 13.4481 18.1032 13.4462 18.0876C13.4423 18.0565 13.4394 18.0253 13.4378 17.994C13.4378 17.9888 13.4373 17.9836 13.4372 17.9784C13.4367 17.9681 13.4364 17.9578 13.4363 17.9474C13.4309 17.531 13.6409 17.1306 14.0899 16.6802C14.8895 15.8783 15.355 14.7049 15.355 14.7049C15.355 14.7049 15.3675 14.6557 15.3936 14.5849C15.4024 14.5615 15.4115 14.5381 15.4211 14.515C15.4321 14.4888 15.4439 14.463 15.4565 14.4377L15.4602 14.4303C15.4764 14.3979 15.494 14.3664 15.5131 14.3357C15.5175 14.3286 15.5217 14.3215 15.5268 14.3145C15.541 14.2932 15.556 14.2727 15.5718 14.2527C15.5841 14.2374 15.5971 14.2226 15.6108 14.2085C15.6572 14.1606 15.7101 14.1214 15.77 14.1004L15.7776 14.098C15.7827 14.0963 15.7876 14.0948 15.7928 14.0933C15.7988 14.0918 15.8048 14.0903 15.8108 14.089L15.8135 14.0886C15.8263 14.086 15.839 14.0843 15.8519 14.0834H15.8531C15.8598 14.0834 15.8665 14.0827 15.8734 14.0827C15.8906 14.0828 15.9076 14.0842 15.9246 14.0868C15.9967 14.0982 16.0653 14.1413 16.1244 14.2078L16.1323 14.2171C16.1516 14.2397 16.1691 14.2639 16.1846 14.2892C16.1962 14.308 16.2072 14.3278 16.2176 14.3486C16.2218 14.3574 16.2258 14.3654 16.2297 14.3739C16.2317 14.3783 16.2336 14.3826 16.2355 14.3871C16.2394 14.3958 16.243 14.4045 16.2465 14.4137C16.2668 14.4659 16.2826 14.5198 16.2936 14.5748C16.3054 14.6342 16.3122 14.6944 16.3141 14.7549C16.3148 14.7815 16.3148 14.8084 16.3141 14.8357C16.3136 14.8461 16.3132 14.8565 16.3124 14.8669C16.3044 14.9828 16.2793 15.0968 16.2377 15.2053C16.2335 15.216 16.229 15.227 16.2247 15.2379C16.2038 15.288 16.1795 15.3365 16.1522 15.3833C16.1365 15.41 16.1196 15.4365 16.1016 15.4628L16.0905 15.4786C16.0477 15.5386 15.9999 15.595 15.9476 15.647C15.8962 15.6988 15.841 15.7466 15.7827 15.7904C15.7241 15.8338 15.6692 15.8819 15.6186 15.9343C15.4726 16.0881 15.4386 16.2236 15.4714 16.3265C15.4753 16.3381 15.4799 16.3495 15.4851 16.3605C15.4973 16.3844 15.513 16.4063 15.5318 16.4254L15.537 16.4306C15.5423 16.4357 15.548 16.4407 15.5537 16.4455L15.5595 16.4502C15.5737 16.4612 15.5886 16.4709 15.6043 16.4794C15.6087 16.4818 15.6129 16.4843 15.6181 16.4866C15.6395 16.4973 15.662 16.5059 15.6851 16.5124L15.6915 16.5141L15.7001 16.5164L15.7077 16.5183L15.7158 16.52L15.7238 16.5217L15.7315 16.523C15.7372 16.524 15.743 16.5249 15.7488 16.5257L15.7544 16.5265L15.7644 16.5275L15.7706 16.5281L15.7809 16.5289H15.7868L15.7975 16.5294H15.8312L15.8408 16.5289L15.8519 16.5282L15.8654 16.527L15.878 16.5254C15.8808 16.5254 15.8838 16.5246 15.8867 16.5241C15.9311 16.5176 15.9745 16.505 16.0154 16.4867C16.0242 16.483 16.0328 16.4789 16.0408 16.4746C16.0579 16.466 16.0745 16.4564 16.0904 16.4458C16.1126 16.4311 16.1336 16.4147 16.1533 16.3967L16.167 16.3837C16.1692 16.3815 16.1714 16.3795 16.1734 16.3772C16.1868 16.3638 16.1994 16.3496 16.2112 16.3347C16.232 16.3083 16.2504 16.2804 16.2665 16.2509C16.4565 15.9041 16.6557 15.5624 16.8638 15.2263L16.8923 15.1804L16.9212 15.1344C16.9356 15.1112 16.9501 15.0882 16.9646 15.0655L16.9792 15.0425L17.0085 14.9968C17.0477 14.9359 17.087 14.8757 17.1266 14.816L17.1563 14.7716C17.2157 14.6833 17.275 14.5973 17.3337 14.5155L17.363 14.4752C17.4268 14.3867 17.4933 14.3002 17.5624 14.2158L17.5898 14.1829C17.5943 14.1773 17.5985 14.172 17.6034 14.1666L17.6303 14.1353C17.6348 14.1302 17.6391 14.1251 17.6437 14.1201L17.6698 14.0906L17.6829 14.0764C17.6955 14.0626 17.7083 14.0491 17.7213 14.0356C17.7301 14.027 17.7381 14.0182 17.7466 14.0101C17.7958 13.9595 17.8501 13.9142 17.9086 13.8749L17.9221 13.8662L17.9358 13.8575C17.9446 13.852 17.9534 13.8467 17.9624 13.8418C18.192 13.7111 18.3821 13.7014 18.4915 13.8112C18.5578 13.8777 18.5944 13.988 18.5925 14.1413C18.5925 14.1481 18.5925 14.1548 18.5919 14.1618V14.1694C18.5919 14.1764 18.5913 14.1835 18.5908 14.1906C18.5908 14.1993 18.5898 14.208 18.5889 14.2167C18.588 14.2255 18.5876 14.2321 18.5868 14.2398C18.5868 14.2421 18.5863 14.2443 18.586 14.2465C18.5853 14.2534 18.5844 14.2603 18.5835 14.2671C18.5835 14.2693 18.5835 14.2713 18.5827 14.2734C18.5817 14.2827 18.5803 14.292 18.5787 14.3011C18.5776 14.3096 18.5763 14.3181 18.5746 14.3266C18.5739 14.3314 18.573 14.3362 18.5722 14.3411C18.5697 14.3549 18.5664 14.3687 18.5624 14.3821C18.5549 14.4073 18.5458 14.4319 18.535 14.4559C18.5303 14.4663 18.5254 14.4768 18.5203 14.487C18.5098 14.5081 18.498 14.5298 18.485 14.5522C18.4785 14.5632 18.4718 14.5746 18.4646 14.586L18.4537 14.6034C18.4426 14.6208 18.4311 14.6385 18.419 14.6563C18.407 14.6741 18.3941 14.6924 18.3802 14.7108C18.3622 14.7353 18.3433 14.7604 18.3233 14.7857L18.3081 14.8049C18.2653 14.8584 18.2214 14.9111 18.1766 14.9628L18.1409 15.0033L18.1228 15.0237C18.098 15.0515 18.0731 15.0791 18.0481 15.1065L18.0289 15.1273C18.0161 15.1412 18.0028 15.1552 17.9901 15.1692C17.9771 15.1833 17.9639 15.1973 17.9507 15.2114L17.9107 15.2537L17.8702 15.2961C17.8567 15.3102 17.8431 15.3245 17.8294 15.3386L17.747 15.4239C17.3532 15.8293 16.9382 16.2333 16.7978 16.4851C16.7885 16.5016 16.7801 16.5185 16.7724 16.5357C16.7525 16.5815 16.7441 16.6207 16.7498 16.6524C16.7516 16.6628 16.7553 16.6729 16.7606 16.6819C16.7686 16.6957 16.7782 16.7083 16.7893 16.7196C16.7944 16.7247 16.7998 16.7295 16.8056 16.7338C16.8344 16.7544 16.8694 16.7651 16.9048 16.764H16.9159L16.9273 16.7632L16.9387 16.7618L16.9482 16.7605C16.9494 16.7604 16.9507 16.7601 16.9519 16.7598L16.9606 16.7581L16.9629 16.7576L16.9724 16.7555L16.9758 16.7546L16.986 16.752L16.9982 16.7484C17.0061 16.746 17.0141 16.7432 17.0222 16.7402C17.0398 16.734 17.057 16.7268 17.0738 16.7187C17.0781 16.7166 17.0825 16.7147 17.0866 16.7124L17.0995 16.706C17.1164 16.6974 17.1332 16.6882 17.1501 16.6781C17.1636 16.6701 17.177 16.6619 17.1904 16.6533L17.2034 16.6446C17.2077 16.6419 17.2121 16.639 17.2164 16.6358L17.2293 16.6272L17.2361 16.6224L17.2547 16.6093C17.2721 16.5972 17.2883 16.5848 17.3048 16.5723L17.3063 16.5712L17.3323 16.5509C17.368 16.5227 17.4018 16.4942 17.4324 16.4674L17.4528 16.4494L17.4548 16.4476L17.4653 16.4382C17.4904 16.4156 17.5127 16.3946 17.5314 16.3771L17.539 16.3697L17.5573 16.3523L17.5683 16.3416L17.5721 16.3377L17.5731 16.3366C17.5825 16.3272 17.5825 16.3272 17.5918 16.3178L17.5926 16.317L17.5961 16.3139C17.5971 16.3127 17.5986 16.3116 17.6002 16.3101L17.6016 16.3088L17.6053 16.3055L17.625 16.2881L17.6361 16.278C17.6415 16.2733 17.6474 16.268 17.6534 16.2622L17.6668 16.2505C17.6691 16.2486 17.6714 16.2464 17.6738 16.2442L17.6877 16.232L17.7082 16.2141L17.719 16.2046C17.7612 16.1677 17.8127 16.1232 17.8716 16.073L17.8958 16.0525L17.9358 16.0189L17.9766 15.9846C18.03 15.9401 18.0875 15.8928 18.1483 15.8437L18.1882 15.8116C18.2222 15.7845 18.2572 15.7567 18.2925 15.7288C18.3067 15.7176 18.3212 15.7064 18.3359 15.6953C18.3721 15.6672 18.4086 15.6392 18.4451 15.6117C18.5284 15.5485 18.6143 15.4852 18.7012 15.4235L18.7386 15.3975C18.7647 15.3794 18.7907 15.3614 18.8168 15.3437L18.8404 15.3276C18.8871 15.2961 18.9342 15.2652 18.9817 15.2349L19.0053 15.22L19.0287 15.2054C19.0521 15.1909 19.0755 15.1765 19.0986 15.1625L19.1218 15.1487L19.1683 15.1215C19.1836 15.1126 19.1987 15.104 19.2139 15.0954L19.223 15.0902L19.2591 15.0704C19.2741 15.0622 19.2891 15.0543 19.304 15.0466L19.3263 15.0351L19.3479 15.0241C19.3972 14.9993 19.4474 14.9763 19.4985 14.9552C19.5055 14.9523 19.5124 14.9495 19.5193 14.9464C19.533 14.9407 19.5466 14.9354 19.5601 14.9308C19.5736 14.9262 19.5869 14.9214 19.6 14.9167C19.6119 14.9127 19.6235 14.909 19.6347 14.9055L19.6385 14.9043C19.6445 14.9025 19.6506 14.9007 19.6566 14.8992L19.6583 14.8987C19.6706 14.8952 19.6828 14.892 19.6951 14.889H19.6961C19.7143 14.8847 19.7319 14.8809 19.7492 14.878C19.7552 14.8771 19.761 14.8761 19.7666 14.8753C19.7834 14.8728 19.8003 14.871 19.8172 14.8698C19.8279 14.8691 19.8387 14.8688 19.8493 14.8688H19.8575C19.8684 14.8688 19.8789 14.8694 19.8893 14.8705C19.894 14.8705 19.8988 14.8714 19.9034 14.8721H19.9054C19.91 14.8726 19.9148 14.8733 19.9194 14.8743C19.9239 14.8753 19.9286 14.876 19.9331 14.8771H19.9346C19.9391 14.878 19.9433 14.8793 19.9479 14.8806C19.985 14.8906 20.0191 14.9095 20.0474 14.9356L20.0499 14.9382L20.0548 14.943L20.0597 14.9482C20.0986 14.9893 20.1309 15.0364 20.1551 15.0877L20.1589 15.0963C20.1672 15.1158 20.1737 15.136 20.1783 15.1567C20.1909 15.2143 20.1875 15.2743 20.1683 15.3301C20.1601 15.3543 20.15 15.3779 20.1381 15.4005L20.1301 15.415C20.0998 15.4659 20.0641 15.5134 20.0234 15.5565L20.0146 15.5657C19.9955 15.5861 19.9756 15.6059 19.9551 15.6249C19.9486 15.631 19.9419 15.6372 19.9351 15.6433L19.9248 15.6527C19.9034 15.6717 19.8816 15.6902 19.8594 15.7083C19.8556 15.7115 19.8516 15.7146 19.8478 15.7179C19.8324 15.7304 19.8164 15.743 19.7999 15.7557C19.743 15.7994 19.685 15.8415 19.626 15.8821C19.5912 15.906 19.5553 15.9301 19.5182 15.9545C19.4491 16.0001 19.3794 16.0446 19.3091 16.0883C19.2888 16.1008 19.2685 16.1136 19.2477 16.1263C19.0567 16.2442 18.8449 16.3703 18.619 16.5075L18.5605 16.5431C18.4965 16.5823 18.4361 16.6197 18.3793 16.6553L18.3507 16.6734L18.2965 16.7083C18.275 16.722 18.2542 16.7354 18.2339 16.7487C18.2185 16.7585 18.2036 16.7683 18.1889 16.7779L18.16 16.797C18.1459 16.8063 18.1319 16.8156 18.1179 16.825L18.1043 16.8337C18.0899 16.8433 18.076 16.8528 18.0624 16.8621L18.0401 16.8773L18.014 16.8956L17.9899 16.9124C17.9519 16.9392 17.9143 16.9666 17.877 16.9945L17.864 17.0044C17.8493 17.0156 17.8351 17.0267 17.8214 17.0375L17.8036 17.0518C17.7735 17.0761 17.7462 17.0994 17.7215 17.1216L17.7095 17.1327C17.7026 17.139 17.6958 17.1454 17.6894 17.1516C17.6848 17.1559 17.6806 17.1603 17.6761 17.1646L17.6698 17.1708C17.6559 17.1848 17.6424 17.1991 17.6293 17.2138L17.6229 17.2212C17.6086 17.2378 17.5962 17.2537 17.5852 17.2692L17.5803 17.2762C17.5677 17.2947 17.5565 17.3143 17.547 17.3347L17.5437 17.3418L17.5417 17.3467L17.54 17.351L17.5378 17.357C17.5371 17.359 17.5358 17.3626 17.535 17.3657C17.531 17.3773 17.5281 17.3893 17.5261 17.4015L17.5252 17.408L17.5244 17.414L17.5239 17.4197V17.4503C17.5239 17.4529 17.5239 17.4555 17.5245 17.4581C17.5246 17.4597 17.5248 17.4613 17.525 17.4628C17.525 17.4654 17.5257 17.4679 17.5259 17.4705L17.5278 17.4812V17.4817C17.5285 17.4851 17.5291 17.4886 17.53 17.492C17.5309 17.4954 17.5318 17.4992 17.5328 17.5028C17.5359 17.5138 17.5397 17.5247 17.5441 17.5353C17.5441 17.5361 17.5448 17.537 17.5451 17.5378C17.5462 17.5404 17.5473 17.5431 17.5486 17.5458C17.5533 17.5569 17.5587 17.5677 17.5645 17.5783L17.5706 17.5893L17.577 17.6004L17.5837 17.6116C17.5849 17.6134 17.5862 17.6151 17.5876 17.6167L17.5898 17.6191L17.5922 17.6212L17.5948 17.6233C17.5965 17.6245 17.5984 17.6256 17.6003 17.6267C17.6023 17.6275 17.6044 17.6285 17.6065 17.6293C17.6089 17.6301 17.6112 17.6308 17.6135 17.6313C17.6696 17.644 17.7847 17.5974 17.9377 17.5163L17.9652 17.5017L18.0117 17.4763L18.0345 17.4636C18.0506 17.4548 18.0672 17.4451 18.084 17.4354L18.1148 17.418C18.3171 17.3011 18.5588 17.1509 18.8085 17.0043C18.8319 16.9906 18.8554 16.977 18.8789 16.9633L18.926 16.9331C18.9496 16.9195 18.9731 16.906 18.9967 16.8927C19.0972 16.8354 19.1989 16.7804 19.3018 16.7276L19.3479 16.7041C19.3786 16.6889 19.409 16.6741 19.439 16.6597C19.4971 16.632 19.5559 16.6058 19.6152 16.581L19.6478 16.5677L19.6517 16.5661C19.824 16.4976 19.9803 16.4552 20.1067 16.4552C20.1341 16.455 20.1614 16.4573 20.1884 16.4619H20.1891C20.1979 16.4635 20.2057 16.4653 20.2137 16.4673H20.2152C20.2268 16.4701 20.2383 16.4737 20.2493 16.4782C20.2582 16.4814 20.2667 16.4852 20.275 16.4897C20.3112 16.5081 20.3422 16.5353 20.3653 16.5689C20.3672 16.5717 20.3691 16.5746 20.3708 16.5776C20.3794 16.5907 20.3867 16.6044 20.3928 16.6189C20.3964 16.6271 20.3997 16.6357 20.4028 16.645C20.4059 16.6543 20.4086 16.6633 20.4114 16.673C20.432 16.7468 20.43 16.825 20.4056 16.8977Z" fill="#FF9D00"/>
<path fill-rule="evenodd" clip-rule="evenodd" d="M19.26 11.6039V11.5562C19.26 7.47685 15.9663 4.16992 11.9016 4.16992C7.83717 4.16992 4.54221 7.47704 4.54221 11.5562L4.54211 11.5722C4.54201 11.5828 4.54191 11.5933 4.54211 11.6039C4.54258 11.6198 4.54274 11.6357 4.54259 11.6516L4.54318 11.6867L4.54337 11.6994L4.54386 11.7167C4.54405 11.7261 4.54434 11.7353 4.54434 11.7447L4.54531 11.7826L4.54687 11.8271L4.54735 11.8418L4.54929 11.8879V11.89L4.55201 11.9439V11.9453C4.55298 11.9637 4.55396 11.9821 4.55512 12.0004C4.55609 12.0175 4.55716 12.0345 4.55833 12.0514L4.55862 12.0544C4.55947 12.069 4.56044 12.0836 4.56153 12.0981L4.56182 12.1019C4.56279 12.1159 4.56386 12.1301 4.56503 12.144L4.56522 12.1467L4.56716 12.1711C4.57298 12.2414 4.57978 12.3116 4.58756 12.3817L4.58804 12.3861L4.59387 12.4376L4.60057 12.4918C4.60506 12.5278 4.60986 12.5638 4.61494 12.5998C4.61797 12.6215 4.62112 12.6431 4.62436 12.6648L4.62484 12.6674C4.6321 12.7163 4.63993 12.7653 4.64835 12.814C4.6725 12.9554 4.70086 13.0962 4.73341 13.2359L4.7339 13.2382L4.73701 13.2513C4.73992 13.2638 4.74283 13.2763 4.74594 13.2888L4.75128 13.2823C4.96492 13.026 5.27139 12.8846 5.61428 12.8846C5.88909 12.8846 6.17109 12.9758 6.45358 13.1556C6.641 13.2751 6.84823 13.4868 7.06148 13.753C7.2588 13.4778 7.53535 13.2951 7.85173 13.2452C7.91213 13.2356 7.97312 13.2308 8.0341 13.2307C8.75629 13.2307 9.19124 13.8597 9.35555 14.4254C9.43663 14.6166 9.82797 15.4871 10.418 16.076C11.3148 16.9753 11.5392 17.9034 11.0954 18.897H11.0969C11.1272 18.9003 11.1576 18.9035 11.1881 18.9063C11.2062 18.908 11.2244 18.9098 11.2425 18.9114L11.249 18.9119C11.2623 18.9132 11.2757 18.9144 11.2891 18.9154L11.326 18.9184C11.3611 18.9211 11.3964 18.9235 11.4318 18.9259L11.4598 18.9275L11.482 18.9288L11.4959 18.9296L11.5392 18.9319L11.5511 18.9324L11.5967 18.9344L11.6473 18.9363L11.6881 18.9375L11.6949 18.9378C11.7034 18.9381 11.7122 18.9385 11.7208 18.9385L11.73 18.9387C11.7873 18.94 11.8445 18.9407 11.9018 18.9407H11.9626L12.0061 18.9402C12.0168 18.9396 12.0274 18.9396 12.0381 18.9396H12.055L12.0696 18.9393C12.0753 18.9391 12.0812 18.9389 12.0869 18.9389H12.1043L12.1384 18.938L12.1896 18.9362L12.2462 18.9338C12.2624 18.9331 12.2785 18.9323 12.2947 18.9314L12.3121 18.9305L12.3378 18.929L12.3531 18.9281L12.3644 18.9274L12.4166 18.9239C12.434 18.9229 12.4513 18.9215 12.4687 18.9201L12.5159 18.9164L12.5492 18.9136L12.5856 18.9103C12.623 18.9068 12.6603 18.9031 12.6974 18.8992C12.7211 18.8965 12.7446 18.8939 12.7682 18.8911L12.8097 18.8861C12.3728 17.8965 12.5989 16.9727 13.4921 16.0769C14.0808 15.4865 14.4722 14.6158 14.5537 14.4247C14.7181 13.8589 15.1527 13.23 15.8751 13.23C15.9362 13.2301 15.9971 13.2348 16.0575 13.2445C16.3735 13.2944 16.6502 13.4772 16.8478 13.7523C17.0612 13.4861 17.2683 13.2744 17.4557 13.1549C17.7382 12.9751 18.0204 12.884 18.2949 12.884C18.5975 12.884 18.8718 12.9941 19.079 13.1961C19.0903 13.1452 19.1013 13.0943 19.1118 13.0432C19.1182 13.0114 19.1245 12.9794 19.1307 12.9473C19.1383 12.9079 19.1455 12.8684 19.1521 12.8288C19.1538 12.8181 19.1557 12.8074 19.1577 12.7965C19.1609 12.7797 19.1637 12.763 19.1664 12.7461L19.1674 12.7396L19.1743 12.6955L19.1811 12.6507L19.1812 12.6502C19.1839 12.6315 19.1868 12.6127 19.1893 12.5939C19.1913 12.5797 19.1933 12.5654 19.1951 12.5511L19.1963 12.5429L19.2023 12.4963L19.2072 12.4567C19.2103 12.4306 19.2132 12.4044 19.216 12.3782C19.2172 12.3678 19.2183 12.3573 19.2194 12.3467L19.2204 12.3383C19.2222 12.3208 19.2238 12.3035 19.2254 12.286L19.2293 12.2455C19.2373 12.1556 19.2439 12.0657 19.2489 11.9757V11.9751L19.2515 11.9273L19.252 11.9166L19.254 11.8713C19.2547 11.8542 19.2554 11.837 19.256 11.8195V11.8183L19.2565 11.8057C19.257 11.795 19.2574 11.7843 19.2574 11.7736L19.2575 11.7692C19.2579 11.7593 19.2583 11.749 19.2583 11.7387L19.2586 11.73C19.2589 11.7197 19.2592 11.7096 19.2592 11.6994L19.2594 11.6907C19.2597 11.6776 19.26 11.6647 19.26 11.6516V11.6039ZM10.0764 18.9828C10.6591 18.1249 10.6179 17.481 9.81817 16.6789C9.01848 15.8768 8.55305 14.7037 8.55305 14.7037C8.55305 14.7037 8.37932 14.0222 7.98312 14.0848C7.58692 14.1474 7.29628 15.1656 8.12577 15.7889C8.95527 16.4122 7.96078 16.8348 7.64149 16.25C7.32211 15.665 6.45047 14.1614 5.99844 13.8737C5.5465 13.5861 5.22866 13.7473 5.33519 14.3401C5.38811 14.6344 5.88026 15.1365 6.34006 15.6057C6.80657 16.0818 7.23977 16.5238 7.14722 16.6803C6.9634 16.991 6.31598 16.3153 6.31598 16.3153C6.31598 16.3153 4.28875 14.4637 3.8474 14.9463C3.44061 15.391 4.06793 15.7691 5.03474 16.3517C5.11699 16.4013 5.20167 16.4524 5.28838 16.505C6.39444 17.1772 6.48048 17.3544 6.32355 17.6087C6.26558 17.7027 5.89531 17.4796 5.43987 17.2051C4.66349 16.7373 3.63969 16.1204 3.49519 16.6726C3.37002 17.1504 4.12319 17.4432 4.80624 17.7088C5.3753 17.9301 5.89579 18.1324 5.81927 18.4071C5.73994 18.6918 5.30984 18.4543 4.83965 18.1947C4.31187 17.9032 3.73359 17.5838 3.54442 17.9442C3.18668 18.6255 6.01193 19.4275 6.03514 19.4334C6.94796 19.671 9.26611 20.1745 10.0764 18.9828ZM13.831 18.9828C13.2481 18.1249 13.2895 17.481 14.0892 16.6789C14.8889 15.8768 15.3544 14.7037 15.3544 14.7037C15.3544 14.7037 15.528 14.0222 15.9242 14.0848C16.3204 14.1474 16.6112 15.1656 15.7816 15.7889C14.952 16.4122 15.9466 16.8348 16.2659 16.25C16.5852 15.665 17.4565 14.1614 17.9084 13.8737C18.3604 13.5861 18.6783 13.7473 18.5718 14.3401C18.5188 14.6344 18.0267 15.1366 17.5668 15.6058C17.1004 16.0818 16.6672 16.5238 16.7597 16.6803C16.9435 16.991 17.5915 16.3149 17.5915 16.3149C17.5915 16.3149 19.6186 14.4633 20.0599 14.9459C20.4667 15.3906 19.8393 15.7688 18.8725 16.3515C18.7903 16.401 18.7057 16.452 18.619 16.5047C17.5128 17.1768 17.4269 17.3541 17.5838 17.6083C17.6418 17.7023 18.012 17.4792 18.4674 17.2048C19.2439 16.737 20.2677 16.12 20.4122 16.6722C20.5373 17.1501 19.7842 17.4429 19.101 17.7085C18.532 17.9298 18.0116 18.132 18.088 18.4068C18.1673 18.6915 18.5972 18.454 19.0672 18.1943C19.595 17.9028 20.1734 17.5833 20.3626 17.9438C20.7204 18.6256 17.8947 19.4268 17.8718 19.4327C16.959 19.671 14.6408 20.1745 13.831 18.9828Z" fill="#FFD21E"/>
<path fill-rule="evenodd" clip-rule="evenodd" d="M14.2915 9.54571C14.4062 9.58645 14.4916 9.71052 14.5728 9.82846C14.6825 9.98801 14.7847 10.1364 14.9414 10.0527C15.1264 9.95409 15.278 9.80263 15.3771 9.61744C15.4763 9.43231 15.5184 9.2218 15.4983 9.01257C15.4834 8.85613 15.434 8.70495 15.3538 8.56996C15.2736 8.43496 15.1645 8.3195 15.0346 8.23188C14.9046 8.14428 14.7568 8.08672 14.602 8.06334C14.4471 8.03995 14.289 8.05135 14.1391 8.09668C13.9386 8.15729 13.7605 8.27619 13.6272 8.43837C13.4941 8.60053 13.4117 8.79869 13.3907 9.00779C13.3697 9.21694 13.411 9.42764 13.5092 9.61325C13.5819 9.75039 13.7431 9.68577 13.9132 9.61744C14.0466 9.56393 14.1855 9.50818 14.2915 9.54571ZM9.30253 9.5458C9.18784 9.58655 9.10239 9.71062 9.02121 9.82855C8.91147 9.98801 8.80932 10.1364 8.65258 10.0528C8.5144 9.97904 8.39428 9.87534 8.30076 9.74931C8.20725 9.62329 8.14277 9.47807 8.11189 9.32399C8.08101 9.16995 8.0845 9.01096 8.12218 8.85845C8.15996 8.70595 8.23084 8.56372 8.3298 8.442C8.42894 8.32035 8.55363 8.22227 8.69502 8.15479C8.83641 8.08731 8.99101 8.05215 9.14754 8.0518C9.30408 8.05146 9.45877 8.08595 9.60045 8.15279C9.74214 8.21964 9.86731 8.31719 9.96694 8.4384C10.1002 8.60056 10.1825 8.79876 10.2036 9.00791C10.2246 9.21706 10.1833 9.42776 10.0849 9.61335C10.0121 9.75048 9.8509 9.68577 9.68076 9.61744C9.54743 9.56393 9.40857 9.50818 9.30253 9.5458ZM13.5197 14.1024C14.3105 13.4771 14.6009 12.4563 14.6009 11.8275C14.6009 11.3304 14.2677 11.4868 13.7342 11.7519L13.7042 11.7669C13.2145 12.0102 12.5627 12.3342 11.8472 12.3342C11.1317 12.3342 10.4799 12.0101 9.99034 11.7668C9.43964 11.493 9.09423 11.3212 9.09423 11.8276C9.09423 12.4762 9.40323 13.5414 10.2515 14.1603C10.3633 13.9323 10.5208 13.7298 10.7143 13.5657C10.9076 13.4016 11.1327 13.2793 11.3754 13.2065C11.4601 13.1812 11.5473 13.3275 11.6366 13.4772C11.7227 13.6217 11.8107 13.7695 11.9004 13.7695C11.9957 13.7695 12.0895 13.6239 12.1811 13.4817C12.2767 13.3331 12.37 13.1883 12.4602 13.2173C12.9143 13.3635 13.2941 13.6808 13.5197 14.1024Z" fill="#32343D"/>
<path d="M13.5199 14.1024C13.1081 14.4281 12.5607 14.6466 11.8479 14.6466C11.1782 14.6466 10.6543 14.4538 10.252 14.1603C10.3639 13.9323 10.5215 13.7299 10.7149 13.5658C10.9082 13.4017 11.1333 13.2794 11.3759 13.2065C11.5422 13.1567 11.7184 13.7695 11.9007 13.7695C12.096 13.7695 12.2841 13.1606 12.4607 13.2172C12.9146 13.3636 13.2942 13.6809 13.5199 14.1024Z" fill="#FF323D"/>
<path fill-rule="evenodd" clip-rule="evenodd" d="M7.41219 10.4302C7.33705 10.481 7.25266 10.5164 7.16387 10.5343C7.07508 10.5523 6.98363 10.5525 6.89477 10.5349C6.80591 10.5173 6.72137 10.4823 6.64602 10.4319C6.57066 10.3814 6.50597 10.3166 6.45564 10.241C6.40531 10.1654 6.37034 10.0805 6.35273 9.99145C6.33513 9.90227 6.33522 9.81046 6.35302 9.72128C6.37082 9.63219 6.40599 9.5475 6.45647 9.47196C6.50697 9.3965 6.57181 9.33177 6.64727 9.2815C6.79905 9.1804 6.98457 9.1438 7.16318 9.17974C7.3418 9.21567 7.49894 9.32121 7.60018 9.47323C7.70137 9.62527 7.73846 9.81134 7.70321 9.99067C7.66796 10.1701 7.56328 10.3282 7.41219 10.4302ZM17.2601 10.4302C17.1849 10.481 17.1005 10.5164 17.0118 10.5343C16.923 10.5523 16.8316 10.5525 16.7427 10.5349C16.6538 10.5173 16.5693 10.4823 16.4939 10.4319C16.4186 10.3814 16.3539 10.3166 16.3036 10.241C16.2532 10.1654 16.2182 10.0805 16.2006 9.99145C16.1831 9.90227 16.1832 9.81046 16.2009 9.72128C16.2187 9.63219 16.2539 9.5475 16.3044 9.47196C16.3548 9.3965 16.4197 9.33177 16.4952 9.2815C16.647 9.1804 16.8325 9.1438 17.0111 9.17974C17.1897 9.21567 17.3468 9.32121 17.4481 9.47323C17.5493 9.62527 17.5864 9.81134 17.5511 9.99067C17.5159 10.1701 17.4112 10.3282 17.2601 10.4302Z" fill="#FFAD03"/>
</svg>
