<svg width="30" height="29" viewBox="0 0 30 29" fill="none" xmlns="http://www.w3.org/2000/svg">
<path d="M15.0204 13.6962V17.0418" stroke="white" stroke-width="1.3" stroke-linecap="round" stroke-linejoin="round"/>
<path d="M15.0202 19.5508C15.7303 19.5508 16.3059 18.9891 16.3059 18.2962C16.3059 17.6034 15.7303 17.0416 15.0202 17.0416C14.3101 17.0416 13.7345 17.6034 13.7345 18.2962C13.7345 18.9891 14.3101 19.5508 15.0202 19.5508Z" stroke="white" stroke-width="1.3" stroke-linecap="round" stroke-linejoin="round"/>
<path d="M19.7348 15.7869V14.1141L16.9862 12.7519" stroke="white" stroke-width="1.3" stroke-linecap="round" stroke-linejoin="round"/>
<path d="M19.7346 18.296C20.4446 18.296 21.0203 17.7343 21.0203 17.0414C21.0203 16.3485 20.4446 15.7868 19.7346 15.7868C19.0245 15.7868 18.4489 16.3485 18.4489 17.0414C18.4489 17.7343 19.0245 18.296 19.7346 18.296Z" stroke="white" stroke-width="1.3" stroke-linecap="round" stroke-linejoin="round"/>
<path d="M10.3063 15.7869V14.1141L13.1093 12.7328" stroke="white" stroke-width="1.3" stroke-linecap="round" stroke-linejoin="round"/>
<path d="M10.3061 18.296C11.0162 18.296 11.5918 17.7343 11.5918 17.0414C11.5918 16.3485 11.0162 15.7868 10.3061 15.7868C9.59602 15.7868 9.02039 16.3485 9.02039 17.0414C9.02039 17.7343 9.59602 18.296 10.3061 18.296Z" stroke="white" stroke-width="1.3" stroke-linecap="round" stroke-linejoin="round"/>
<path d="M15.0203 13.696C16.2687 13.696 17.2807 12.7085 17.2807 11.4903C17.2807 10.2721 16.2687 9.28457 15.0203 9.28457C13.7719 9.28457 12.7599 10.2721 12.7599 11.4903C12.7599 12.7085 13.7719 13.696 15.0203 13.696Z" stroke="white" stroke-width="1.3" stroke-linecap="round" stroke-linejoin="round"/>
<circle cx="15.0204" cy="14.4317" r="11.25" stroke="#28AAC4" stroke-width="0.9"/>
</svg>
