<svg width="11" height="11" viewBox="0 0 11 11" fill="none" xmlns="http://www.w3.org/2000/svg">
<path fill-rule="evenodd" clip-rule="evenodd" d="M5.49987 0.828125C5.61838 0.828125 5.72661 0.895402 5.77907 1.00167L7.15009 3.77921L10.2151 4.22458C10.3324 4.24163 10.4298 4.32378 10.4664 4.4365C10.503 4.54922 10.4725 4.67296 10.3876 4.75568L8.16963 6.91749L8.69308 9.97065C8.7131 10.0875 8.66508 10.2055 8.56919 10.2752C8.47331 10.3448 8.34619 10.354 8.24129 10.2989L5.49987 8.85746L2.75844 10.2989C2.65354 10.354 2.52643 10.3448 2.43054 10.2752C2.33466 10.2055 2.28663 10.0875 2.30666 9.97065L2.83011 6.91749L0.612114 4.75568C0.527239 4.67296 0.49669 4.54922 0.533312 4.4365C0.569934 4.32378 0.667375 4.24163 0.784663 4.22458L3.84964 3.77921L5.22067 1.00167C5.27312 0.895402 5.38136 0.828125 5.49987 0.828125ZM5.49987 1.84293L4.33559 4.20162C4.29024 4.2935 4.20257 4.35719 4.10117 4.37192L1.49858 4.75011L3.38198 6.58579C3.45536 6.65732 3.48885 6.76038 3.47154 6.86138L3.02703 9.45409L5.35497 8.2301C5.44568 8.1824 5.55405 8.1824 5.64477 8.2301L7.9727 9.45409L7.5282 6.86138C7.51088 6.76038 7.54437 6.65732 7.61776 6.58579L9.50115 4.75011L6.89857 4.37192C6.79716 4.35719 6.7095 4.2935 6.66414 4.20162L5.49987 1.84293Z" fill="white"/>
<path fill-rule="evenodd" clip-rule="evenodd" d="M9.9807 1.41563L2.11411 9.28221L1.3313 8.4994L9.19788 0.632812L9.9807 1.41563Z" fill="#191B1C"/>
<path fill-rule="evenodd" clip-rule="evenodd" d="M9.38043 2.03984L1.51384 9.90643L1.12244 9.51502L8.98902 1.64844L9.38043 2.03984Z" fill="white"/>
</svg>
