<svg width="20" height="20" viewBox="0 0 20 20" fill="none" xmlns="http://www.w3.org/2000/svg">
<path d="M19.7819 16.836L11.6031 1.42485C11.4498 1.13233 11.2194 0.887328 10.9368 0.716385C10.6542 0.545443 10.3303 0.455078 10 0.455078C9.66974 0.455078 9.34577 0.545443 9.06319 0.716385C8.78061 0.887328 8.55019 1.13233 8.39688 1.42485L0.218128 16.836C0.0670069 17.1184 -0.00794169 17.4353 0.000666076 17.7555C0.00927384 18.0756 0.101141 18.388 0.267217 18.6619C0.42718 18.9315 0.65469 19.1548 0.927293 19.3097C1.1999 19.4646 1.50817 19.5457 1.8217 19.545H18.1783C18.4918 19.5457 18.8001 19.4646 19.0727 19.3097C19.3453 19.1548 19.5728 18.9315 19.7328 18.6619C19.8989 18.388 19.9907 18.0756 19.9993 17.7555C20.0079 17.4353 19.933 17.1184 19.7819 16.836Z" fill="#F7BF26"/>
<path d="M9.99981 17.7272C10.7529 17.7272 11.3634 17.1167 11.3634 16.3636C11.3634 15.6105 10.7529 15 9.99981 15C9.24673 15 8.63623 15.6105 8.63623 16.3636C8.63623 17.1167 9.24673 17.7272 9.99981 17.7272Z" fill="black"/>
<path d="M11.039 6.36328L10.5195 13.8952H9.48046L8.96094 6.36328H11.039Z" fill="black"/>
</svg>
